<ttFont>
          <CharString index="0">
            40.1399993896 0 29.6799926758 134 11 67 -58.5 0 -11 -67 rlineto
            return
          </CharString>
          <CharString index="1">
            -13 -84.3300018311 39.0700073242 -40.6699981689 82.5899963379 0 rrcurveto
            101 hlineto
            103.009994507 0 29.9900054932 34.6399993896 14.3399963379 90.3600006104 rrcurveto
            21 133 rlineto
            13.6699981689 89.0200042725 -31.0399932861 35.9799957275 -89.9600067139 0 rrcurveto
            -101 hlineto
            -107.700012207 0 -27.9700012207 -41.3399963379 -13 -83.6600036621 rrcurveto
            return
          </CharString>
          <CharString index="2">
            21 133 rlineto
            9.30999755859 59.5200042725 18.9000091553 16.9799957275 64.9299926758 0 rrcurveto
            101 hlineto
            65.8999786377 0 9.28001403809 -17.9299926758 -9.32000732422 -58.5700073242 rrcurveto
            -21 -133 rlineto
            -9.97999572754 -61.5299987793 -19.9000091553 -14.9700012207 -62.2599945068 0 rrcurveto
            -101 hlineto
            -57.2299804688 0 -19.6100006104 15.2899932861 9.97999572754 61.2100067139 rrcurveto
            return
          </CharString>
          <CharString index="3">
            54.5 0 554 732 -54.5 0 rlineto
            return
          </CharString>
          <CharString index="4">
            -12.9999847412 -84.3299865723 38.0699920654 -40.6699981689 82.5899963379 0 rrcurveto
            101 hlineto
            103.010009766 1.52587890625e-05 30.9899902344 34.6399993896 14.3400115967 90.3600006104 rrcurveto
            21 133 rlineto
            return
          </CharString>
          <CharString index="5">
            13.6700134277 89.0200042725 -31.700012207 35.9800109863 -89.9599914551 0 rrcurveto
            -101 hlineto
            -107.699996948 1.52587890625e-05 -27.3099975586 -41.3400115967 -13 -83.6599884033 rrcurveto
            return
          </CharString>
          <CharString index="6">
            21 133 rlineto
            9.31001281738 59.5200042725 17.8999938965 16.9800109863 64.9300079346 0 rrcurveto
            101 hlineto
            65.8999938965 1.52587890625e-05 10.2799987793 -17.9300079346 -9.31999206543 -58.5699920654 rrcurveto
            -21 -133 rlineto
            -9.97999572754 -61.5299835205 -20.8999938965 -14.9700012207 -62.2599945068 0 rrcurveto
            -101 hlineto
            -57.2300109863 1.52587890625e-05 -18.6100006104 15.2899932861 9.98001098633 61.2100067139 rrcurveto
            return
          </CharString>
          <CharString index="7">
            -143.669998169 -20.75 rlineto
            return
          </CharString>
          <CharString index="8">
            -19 -120 74 -42 91 0 rrcurveto
            154.100006104 hlineto
            105.029998779 0 68.9700012207 43 19 119 rrcurveto
            65 408 rlineto
            13.3299865723 82.9600067139 -34 79.0399932861 -121.329986572 0 rrcurveto
            -154.100006104 hlineto
            -104.380004883 0 -74.9499969482 -49.3099975586 -17.6699981689 -112.690002441 rrcurveto
            return
          </CharString>
          <CharString index="9">
            65 408 rlineto
            9.30999755859 59.8600006104 39.1999969482 44.6399993896 82.3000030518 0 rrcurveto
            154.100006104 hlineto
            81.2599945068 0 22.5800018311 -36.6100006104 -10.6499938965 -67.8899993896 rrcurveto
            -65 -408 rlineto
            -10.3200073242 -64.2299957275 -38.6199951172 -40.2700042725 -77.1999969482 0 rrcurveto
            -154.100006104 hlineto
            -61.8599853516 0 -50 13.1699981689 14 91.3300018311 rrcurveto
            return
          </CharString>
          <CharString index="10">
            486.75 0 9.36000061035 57.5 -369.369995117 0 rlineto
            77.7700042725 51.0599975586 347.970001221 236.11000061 21.620010376 186.669998169 13.629989624 112.270004272 -43.3399963379 98.3899993896 -139.289993286 0 rrcurveto
            return
          </CharString>
          <CharString index="11">
            -91.200012207 0 -101.909988403 -3.69999694824 -104.330001831 -13 rrcurveto
            -6.69000244141 -41.8000030518 rlineto
            return
          </CharString>
          <CharString index="12">
            291.449996948 hlineto
            99.5999908447 0 39.879989624 -49.6999969482 -15.9599914551 -100.460006714 -26.6600036621 -166 -351.160003662 -231.169998169 -129.429992676 -83.0200042725 rrcurveto
            return
          </CharString>
          <CharString index="13">
            68.1499938965 -23.4100189209 109.940002441 1.02000427246 114 0 122 0 65 59 17 109 rrcurveto
            9.66999816895 59 rlineto
            13.3199920654 85.2400054932 -39.7900085449 43.3699951172 -35.0199890137 15.7200012207 36.6999969482 8.0299987793 54.8000030518 38.7200012207 14.3199920654 88.9199981689 rrcurveto
            10.6699981689 69 rlineto
            14.9999847412 94.0099945068 -55.4199981689 68.9900054932 -103.589996338 2 rrcurveto
            return
          </CharString>
          <CharString index="14">
            -117 2 -113 0.339996337891 -82.7700042725 -24.3999938965 rrcurveto
            -5.35000610352 -35.4400024414 rlineto
            return
          </CharString>
          <CharString index="15">
            302.75 hlineto
            61.8999938965 0 53.3000030518 -22.5899963379 -13.3200073242 -83.5899963379 rrcurveto
            -10.6699981689 -69 rlineto
            -10.9899902344 -68.9200134277 -54.8600006104 -36.3199920654 -71.9700012207 -2.33999633789 rrcurveto
            return
          </CharString>
          <CharString index="16">
            -234.100006104 -8.67999267578 -7.36000061035 -43.4799957275 rlineto
            return
          </CharString>
          <CharString index="17">
            232.100006104 -7 rlineto
            54.9899902344 -1.99998474121 61.8600006104 -10.9300079346 -16 -100 rrcurveto
            -9.66999816895 -59 rlineto
            -13.6399993896 -83.5 -68.6199951172 -27.6499938965 -58.2299957275 0 rrcurveto
            return
          </CharString>
          <CharString index="18">
            -289.75 hlineto
            return
          </CharString>
          <CharString index="19">
            21.3999938965 -33.0399932861 372.88999939 0 -30.3200073242 -193.25 59.5099945068 0 30.3200073242 193.25 rlineto
            return
          </CharString>
          <CharString index="20">
            92.6699981689 16.0299987793 6.69000244141 44.1499938965 rlineto
            return
          </CharString>
          <CharString index="21">
            -90 0 46.3200073242 291.570007324 -29.4100036621 0 -42.1000061035 -75 rlineto
            return
          </CharString>
          <CharString index="22">
            -34.3200073242 -216.570007324 rlineto
            return
          </CharString>
          <CharString index="23">
            -309.660003662 0 372.949996948 476.570007324 -71.2200012207 0 rlineto
            return
          </CharString>
          <CharString index="24">
            -301.690002441 hlineto
            return
          </CharString>
          <CharString index="25">
            -49.3399963379 -311.039993286 81.0299987793 -73.2900085449 99.6199951172 0 rrcurveto
            139.410003662 hlineto
            94 -1.52587890625e-05 68.0500030518 36.3300018311 18 112 rrcurveto
            19.3399963379 124.399993896 rlineto
            10.3200073242 64.5800018311 -15.9499969482 84.7700042725 -134.669998169 -1.33999633789 -74 -0.669998168945 -108.300003052 -7.0299987793 -87 -10 15.9900054932 93.2399902344 53.3000030518 184.550003052 99.5299987793 0 rrcurveto
            return
          </CharString>
          <CharString index="26">
            281.410003662 0 6.69000244141 41.8000030518 rlineto
            return
          </CharString>
          <CharString index="27">
            269.270004272 hlineto
            69.9300079346 1.52587890625e-05 31.9099884033 -16.9700012207 -12.3099975586 -75.5200042725 rrcurveto
            -18.3399963379 -118.729995728 rlineto
            -12.9799957275 -81.8899841309 -63.2900085449 -14.3099975586 -42.5699920654 0 rrcurveto
            -139.100006104 hlineto
            -114.519989014 0 11.6899871826 179.559997559 20.3100128174 127.86000061 rrcurveto
            return
          </CharString>
          <CharString index="28">
            402.550003052 0 -358.039993286 -674.5 68.1999969482 0 365.410003662 692.25 -16.6900024414 39.75 -452.070007324 0 rlineto
            return
          </CharString>
          <CharString index="29">
            -6 -38.3200073242 -10.0099945068 -115.679992676 169.319992065 0 rrcurveto
            135.100006104 hlineto
            72.7099914551 0 90.6399993896 15.9600067139 22.3400115967 138.039993286 rrcurveto
            15 98 rlineto
            8.65998840332 49.6000061035 -13.6599884033 60.4099884033 -58.2900085449 18.6600036621 68.3899993896 11.3699951172 29.5899963379 72.0900115967 4.31001281738 32.5599975586 rrcurveto
            10.6699981689 65 rlineto
            17.6600036621 114.289993286 -51.3499908447 61.0200042725 -103.290008545 0 rrcurveto
            -136.100006104 hlineto
            -109.699996948 0 -70.3200073242 -36.0200042725 -21 -134.669998169 rrcurveto
            -10.6699981689 -65 rlineto
            -8 -49.6499938965 11.0399932861 -67.3099975586 71.9400024414 -19.6900024414 -45.0299987793 -3.35000610352 -56.9499969482 -34.3199920654 -12 -74.6600036621 rrcurveto
            return
          </CharString>
          <CharString index="30">
            17 105 rlineto
            10.990020752 68.6000061035 65.1599884033 20.6499938965 46 0 rrcurveto
            150.419998169 hlineto
            45.9800109863 0 51.1999969482 -16.0800018311 -11.6399993896 -73.1699981689 rrcurveto
            -17 -105 rlineto
            -10.9799957275 -71.8800048828 -62.2400054932 -21.6199951172 -46.2599945068 0 rrcurveto
            -132.789993286 hlineto
            -76.9600067139 0 -39.8600006104 23.9499969482 10.9799957275 69.5500030518 rrcurveto
            return
          </CharString>
          <CharString index="31">
            10.6699981689 68 rlineto
            12.3199920654 81.2200012207 31.9199981689 36.2799987793 91.5800018311 0 rrcurveto
            135.440002441 hlineto
            73.5700073242 0 28.9199981689 -27.6000061035 -14.3199920654 -89.8999938965 rrcurveto
            -11 -68 rlineto
            -6.33000183105 -39.3000030518 -29.5700073242 -52.9499969482 -80.9199981689 0 rrcurveto
            -149.100006104 hlineto
            -44.5599975586 0 -61.2699890137 14.0299987793 12.6499938965 78.2200012207 rrcurveto
            return
          </CharString>
          <CharString index="32">
            -281.410003662 hlineto
            return
          </CharString>
          <CharString index="33">
            18.3399963379 121.039993286 rlineto
            12.6500091553 81.8899993896 65.6000061035 14.3099975586 42.5699920654 0 rrcurveto
            139.429992676 hlineto
            114.190002441 1.52587890625e-05 -13.0099945068 -179.559997559 -20.3099975586 -127.86000061 rrcurveto
            -267.619995117 hlineto
            -67.2899932861 0 -36.8600006104 14.6600036621 12.3099975586 75.5199890137 rrcurveto
            return
          </CharString>
          <CharString index="34">
            427 0 10.0299987793 57.5 -427 0 rlineto
            return
          </CharString>
          <CharString index="35">
            126 0 115.339996338 11.3899993896 50 10 rrcurveto
            6.02000427246 36.1100006104 rlineto
            return
          </CharString>
          <CharString index="36">
            -385.339996338 hlineto
            -85.9999847412 0 -25.1600036621 57.3300018311 11.6399993896 73.1699981689 rrcurveto
            81 512 rlineto
            7.63999938965 48.1600036621 28.5700073242 71.6699981689 103.25 0 rrcurveto
            379.36000061 hlineto
            53.8599853516 1.52587890625e-05 48.9800109863 -7.54000854492 -16.6600036621 -112.289993286 rrcurveto
            -53 -354 rlineto
            -15.3099975586 -98.1600036621 -52.8300018311 -8.66999816895 -48 0 rrcurveto
            61.6399993896 421.830001831 rlineto
            -51 49 -102.36000061 15.3099975586 -73.6399993896 -2.30999755859 -74 -2.30999755859 -107 -45.6900024414 -34 -221 rrcurveto
            return
          </CharString>
          <CharString index="37">
            -34 -227 75 -54 111 2 73 1 68.5 32 31 34 rrcurveto
            return
          </CharString>
          <CharString index="38">
            14.75 -60 45.75 0 rlineto
            144 0 18.6600036621 120.960006714 6.33999633789 43.0399932861 rrcurveto
            53 354 rlineto
            17 113 -46 65 -111 0 rrcurveto
            -375 hlineto
            -138 0 -52 -86 -15 -92 rrcurveto
            return
          </CharString>
          <CharString index="39">
            25.3100128174 203.479995728 85.1800079346 28.6999969482 53.6499938965 0.660003662109 49.5899963379 0.660003662109 50.9600067139 -1.64999389648 62.9700012207 -22.9300079346 rrcurveto
            -53.6399993896 -349.419998169 rlineto
            return
          </CharString>
          <CharString index="40">
            -65 -49 -59.4900054932 -12 -55 1 -78 1 -36.8399963379 36.6799926758 20.3099975586 162.820007324 rrcurveto
            return
          </CharString>
          <CharString index="41">
            57.5 0 116 732 -57.5 0 rlineto
            return
          </CharString>
          <CharString index="42">
            -52.9999847412 -333 111.149993896 -34.3099975586 167.940002441 0 175.309997559 0 105.039993286 39.6900024414 49.6600036621 323 51.3200073242 334.959991455 -102.070007324 43.3500061035 -173.669998169 0 -174.009994507 0 -103.669998169 -30.6900024414 -54 -343 rrcurveto
            return
          </CharString>
          <CharString index="43">
            48.9800109863 311.539993286 84.2599945068 6.96000671387 137.949996948 0 135.880004883 0 82.3500061035 -11.25 -48.3200073242 -307.25 -41.6399993896 -264.509994507 -75.9799957275 -42.9900054932 -151.570007324 0 -159.569992065 0 -55.3200073242 36.9700012207 42.9800109863 270.529998779 rrcurveto
            return
          </CharString>
          <CharString index="44">
            120.039993286 -133 50.8500061035 0 -104.020004272 133 rlineto
            return
          </CharString>
          <CharString index="45">
            -35.6599884033 -211.559997559 72.6800079346 -61.75 101.009994507 -0.669998168945 83 -0.339996337891 55.3999938965 5.66999816895 85 23 rrcurveto
            6.69000244141 42.8000030518 rlineto
            -1.52587890625e-05 1.52587890625e-05 -135.429992676 -14.3000030518 -92 0 -71.9300079346 0 -41.2399902344 43.0299987793 28.9799957275 167.809997559 35.3399963379 201.259994507 47.2400054932 16.5800018311 69.5599975586 0 rrcurveto
            89 127.440002441 -10.6399993896 0 hvcurveto
            6.35000610352 40.8000030518 rlineto
            -65.3600158691 13.3300018311 -96.0699920654 14.0099945068 -52 0 -96.6399993896 0 -79.6699981689 -22.9599914551 -41.6900024414 -246.070007324 rrcurveto
            return
          </CharString>
          <CharString index="46">
            -19.6699981689 -122.000015259 21.3600006104 -149.63999939 141.649993896 0 68 0 101.300003052 44.3500061035 29.3300018311 20.6499938965 rrcurveto
            7.0299987793 -59 39.8000030518 0 124.669998169 785 -55.5 0 -45.6699981689 -286 rlineto
            -59.9999847412 26 -85.3300018311 14 -45 0 -151 0 -48.3000030518 -133.339996338 -22.6699981689 -140.020004272 rrcurveto
            return
          </CharString>
          <CharString index="47">
            28.9799957275 178.179992676 59.1999969482 40.3200073242 67.9200134277 0 77 0 48.0099945068 -9.32000732422 66 -18 rrcurveto
            -55.9499969482 -353.710006714 rlineto
            -57 -23.6499938965 -65.6699981689 -25.3200073242 -79 0 -72.9400024414 0 -40.1900024414 68.6900024414 23.6399993896 142.809997559 rrcurveto
            return
          </CharString>
          <CharString index="48">
            244.100006104 -24 rlineto
            79.3499908447 -8 86.6500091553 52 20 124 rrcurveto
            98.3300018311 621.300003052 rlineto
            -46 4.00001525879 -100.449996948 15.6999969482 -106 0 -116.289993286 0 -78.6900024414 -94 -27 -168 -25 -158 15.3500061035 -126.330001831 157.689987183 0 45 0 78.5600128174 12.3300018311 68 26 rrcurveto
            -21 -133 rlineto
            -12.3100128174 -78.5200042725 -57.5199890137 -34.3000030518 -49.3099975586 1.32000732422 rrcurveto
            -247.440002441 4.94999694824 rlineto
            return
          </CharString>
          <CharString index="49">
            12.6100006104 79.3200073242 43.5500030518 132.180007935 109.970001221 -0.990005493164 rrcurveto
            187.61000061 -1.64999389648 -64.6199951172 -402.050003052 rlineto
            -86 -20.9999847412 -38.2599945068 -7.30000305176 -74 0 -114.660003662 0 7.86000061035 115.839996338 15.9400024414 105.650009155 rrcurveto
            return
          </CharString>
          <CharString index="50">
            57.5 0 84 531 -57.5 0 rlineto
            return
          </CharString>
          <CharString index="51">
            161.600006104 0 9.36000061035 57.5 -161.600006104 0 23 148 -42.8000030518 0 -37.6999969482 -148 rlineto
            return
          </CharString>
          <CharString index="52">
            -96.3899993896 -14.6999969482 rlineto
            return
          </CharString>
          <CharString index="53">
            11.3699951172 -30.1100006104 rlineto
            38.6600036621 17.9599914551 24.3000030518 21.9899902344 38.6699981689 0 rrcurveto
            return
          </CharString>
          <CharString index="54">
            37.0200042725 0 26.5999908447 -47.5399932861 44.0100097656 0 49.3699951172 0 39.3600006104 41.0599975586 33.6399993896 27.6399993896 rrcurveto
            -11.6999969482 30.4499969482 rlineto
            -28.0099945068 -16.9900054932 -35.299987793 -27.3000030518 -39 0 rrcurveto
            return
          </CharString>
          <CharString index="55">
            -37.3600006104 0 -25.5700073242 47.5399932861 -42.3499908447 0 rrcurveto
            -48.3800048828 0 -32.3099975586 -32.6900024414 -43.0200042725 -32.0099945068 rrcurveto
            return
          </CharString>
          <CharString index="56">
            -3.34001159668 -22.0599975586 15.0399932861 -18.0500030518 22.0599975586 0 22.0600128174 0 20.0599975586 18.0500030518 3.33999633789 22.0599975586 3.33999633789 22.0599975586 -14.0399932861 17.0500030518 -22.0599975586 0 -22.0599975586 0 -21.0600128174 -17.0500030518 -3.33999633789 -22.0599975586 rrcurveto
            return
          </CharString>
          <CharString index="57">
            314 0 9.36000061035 57.5 -314 0 rlineto
            return
          </CharString>
          <CharString index="58">
            -72 0 -45.6699981689 -4.36000061035 -67 -8 -1 1 -6.35000610352 -36.1199951172 2 0 rrcurveto
            return
          </CharString>
          <CharString index="59">
            49.7100067139 -16.3699951172 59.6199951172 0.679992675781 74 0 100.339996338 -0.669998168945 33.6600036621 48.0099945068 11 71 rrcurveto
            4.33000183105 28.6600036621 rlineto
            6.98999023438 45.5800018311 -27.1899871826 33.0099945068 -23.0100097656 12.7100067139 26.6800079346 7.36000061035 37.5299987793 34.0299987793 8 50.3000030518 rrcurveto
            6 35.9900054932 rlineto
            9 59.9999847412 -32.0299987793 54.3500061035 -80.3000030518 0.669998168945 rrcurveto
            return
          </CharString>
          <CharString index="60">
            -76 0.669998168945 -64.9600067139 1 -55.7099914551 -16.3699951172 rrcurveto
            -5.02000427246 -32.1100006104 rlineto
            return
          </CharString>
          <CharString index="61">
            188.309997559 hlineto
            52.0099945068 0 25.8699951172 -17.0100097656 -8.65000915527 -52.8899993896 rrcurveto
            -3.33000183105 -26.6199951172 rlineto
            -6 -43.3000183105 -39.8800048828 -24.9700012207 -50.6100006104 -2 rrcurveto
            -141.020004272 -5.33999633789 -6.02000427246 -35.4600067139 141.660003662 -4.66999816895 rlineto
            40.6099853516 -1 37.5899963379 -20.9599914551 -8.32998657227 -53.9700012207 rrcurveto
            -3.66999816895 -23 rlineto
            -8.97999572754 -56.5399932861 -37.6499938965 -18.9800109863 -52.5200042725 0 rrcurveto
            0 -154.899993896 -0.669998168945 -21.4400024414 vhcurveto
            return
          </CharString>
          <CharString index="62">
            50.8500061035 0 154 133 -72.2299957275 0 rlineto
            return
          </CharString>
          <CharString index="63">
            77 -1.52587890625e-05 49.9499969482 26.6100006104 17 13 rrcurveto
            -66.9799957275 -418.839996338 47.4799957275 0 76 478 -46.1399993896 0 rlineto
            0 -69.2899932861 -67 -80 vhcurveto
            return
          </CharString>
          <CharString index="64">
            47.4700012207 0 561.600006104 770 -47.4700012207 0 rlineto
            return
          </CharString>
          <CharString index="65">
            120.040039062 -133 50.849609375 0 -104.01953125 133 rlineto
            return
          </CharString>
          <CharString index="66">
            63.509765625 0 116.580078125 220.169921875 308.879882812 0 42.9599609375 -220.169921875 58.169921875 0 -142.649414062 732 -60.7998046875 0 rlineto
            return
          </CharString>
          <CharString index="67">
            196.83984375 377.060546875 70.5908203125 -377.060546875 rlineto
            return
          </CharString>
          <CharString index="68">
            50.849609375 0 154 133 -72.2294921875 0 rlineto
            return
          </CharString>
          <CharString index="69">
            59.5400390625 0 107.490234375 93.5595703125 69.2099609375 -93.5595703125 49.16015625 0 -87.9501953125 130 -54.5 0 rlineto
            return
          </CharString>
          <CharString index="70">
            11.3701171875 -30.1103515625 rlineto
            34.6396484375 17.9599609375 26.310546875 21.3203125 42.01953125 0.669921875 rrcurveto
            return
          </CharString>
          <CharString index="71">
            35.009765625 0.669921875 19.900390625 -46.8701171875 51.3798828125 -0.669921875 43.33984375 -0.669921875 37.3505859375 33.6904296875 41.6796875 28.9794921875 rrcurveto
            -11.7001953125 30.4501953125 rlineto
            -12.599609375 -8.9501953125 -60.759765625 -31.990234375 -28.9501953125 0.669921875 rrcurveto
            return
          </CharString>
          <CharString index="72">
            -29.3203125 0.669921875 -29.58984375 44.1904296875 -46.3701171875 2.009765625 rrcurveto
            -40.33984375 0 -40.349609375 -30.009765625 -43.0205078125 -32.009765625 rrcurveto
            return
          </CharString>
          <CharString index="73">
            -3.33984375 -22.060546875 15.0400390625 -18.0498046875 22.0595703125 0 22.060546875 0 20.0595703125 18.0498046875 3.33984375 22.060546875 3.3408203125 22.0595703125 -14.0400390625 17.0498046875 -22.060546875 0 -22.0595703125 0 -21.060546875 -17.0498046875 -3.33984375 -22.0595703125 rrcurveto
            return
          </CharString>
          <CharString index="74">
            -6.3115234375 -57 41.0517578125 -45 56 0 56 0 49.9482421875 45 6.3115234375 57 6.310546875 57 -39.6630859375 46 -56 0 -56 0 -51.3369140625 -46 -6.310546875 -57 rrcurveto
            return
          </CharString>
          <CharString index="75">
            120.0390625 -133 50.8505859375 0 -104.020507812 133 rlineto
            return
          </CharString>
          <CharString index="76">
            -15.990234375 -100.270507812 65.990234375 -30.7197265625 66 3.33984375 rrcurveto
            return
          </CharString>
          <CharString index="77">
            303.0703125 14.6904296875 7.359375 42.8095703125 rlineto
            return
          </CharString>
          <CharString index="78">
            -300.399414062 hlineto
            -37.580078125 0 -40.58984375 2.6298828125 9.6396484375 65.8701171875 rrcurveto
            33.3203125 209.240234375 rlineto
            return
          </CharString>
          <CharString index="79">
            339.899414062 8.349609375 7.3603515625 44.150390625 rlineto
            return
          </CharString>
          <CharString index="80">
            -337.900390625 8.349609375 33.3203125 208.91015625 rlineto
            6.6396484375 42.83984375 20.8798828125 29.66015625 52.6201171875 0 rrcurveto
            return
          </CharString>
          <CharString index="81">
            310.400390625 0 6.6904296875 43.48046875 rlineto
            return
          </CharString>
          <CharString index="82">
            -308.060546875 14.01953125 rlineto
            -72.0400390625 3.33984375 -58.6298828125 -33.689453125 -16 -98 rrcurveto
            return
          </CharString>
          <CharString index="83">
            50.8505859375 0 154 133 -72.23046875 0 rlineto
            return
          </CharString>
          <CharString index="84">
            -3.33984375 -22.0595703125 15.0390625 -18.05078125 22.060546875 0 22.0595703125 0 20.060546875 18.05078125 3.33984375 22.0595703125 3.33984375 22.0595703125 -14.0400390625 17.05078125 -22.0595703125 0 -22.060546875 0 -21.0595703125 -17.05078125 -3.33984375 -22.0595703125 rrcurveto
            return
          </CharString>
          <CharString index="85">
            -3.33984375 -22.060546875 15.0400390625 -18.0498046875 22.0595703125 0 22.060546875 0 20.0595703125 18.0498046875 3.3408203125 22.060546875 3.33984375 22.0595703125 -14.0400390625 17.0498046875 -22.060546875 0 -22.0595703125 0 -21.060546875 -17.0498046875 -3.33984375 -22.0595703125 rrcurveto
            return
          </CharString>
          <CharString index="86">
            -29.3203125 0.669921875 -29.58984375 44.1904296875 -46.3701171875 2.009765625 rrcurveto
            -40.33984375 0 -40.349609375 -30.009765625 -43.0205078125 -32.0107421875 rrcurveto
            return
          </CharString>
          <CharString index="87">
            58.169921875 0 99.2802734375 625.6796875 296.830078125 -625.6796875 54.8193359375 0 116 732 -57.5 0 -99.279296875 -625.349609375 -295.830078125 625.349609375 -56.490234375 0 rlineto
            return
          </CharString>
          <CharString index="88">
            -53 -333 111.149414062 -34.3095703125 167.940429688 0 175.309570312 0 105.040039062 39.6904296875 49.66015625 323 51.3203125 334.959960938 -102.0703125 43.349609375 -173.669921875 0 -174.009765625 0 -103.669921875 -30.6904296875 -54 -343 rrcurveto
            return
          </CharString>
          <CharString index="89">
            48.9794921875 311.540039062 84.2607421875 6.9599609375 137.94921875 0 135.879882812 0 82.3505859375 -11.25 -48.3203125 -307.25 -41.6396484375 -264.509765625 -75.98046875 -42.990234375 -151.569335938 0 -159.5703125 0 -55.3203125 36.9697265625 42.98046875 270.530273438 rrcurveto
            return
          </CharString>
          <CharString index="90">
            -29.3203125 0.669921875 -29.58984375 44.1904296875 -46.3701171875 2.009765625 rrcurveto
            -40.33984375 0 -40.3505859375 -30.009765625 -43.01953125 -32.009765625 rrcurveto
            return
          </CharString>
          <CharString index="91">
            -3.33984375 -22.060546875 15.0400390625 -18.0498046875 22.0595703125 0 22.060546875 0 20.0595703125 18.0498046875 3.33984375 22.060546875 3.33984375 22.0595703125 -14.0400390625 17.0498046875 -22.0595703125 0 -22.0595703125 0 -21.060546875 -17.0498046875 -3.33984375 -22.0595703125 rrcurveto
            return
          </CharString>
          <CharString index="92">
            120.040039062 -133 50.8505859375 0 -104.020507812 133 rlineto
            return
          </CharString>
          <CharString index="93">
            -40.6103515625 -256.640625 96.5205078125 -56.2998046875 154.759765625 0 203.069335938 0 67.720703125 110.540039062 32.2392578125 202.400390625 rrcurveto
            67.0107421875 424.059570312 -58.169921875 0 -67.0107421875 -424.059570312 rlineto
            -33.609375 -213.310546875 -79.5400390625 -42.1298828125 -128.350585938 0 -125.279296875 0 -66.1904296875 29.4697265625 35.6103515625 225.970703125 rrcurveto
            67.009765625 424.059570312 -58.169921875 0 rlineto
            return
          </CharString>
          <CharString index="94">
            161.299804688 -472 -41 -260 57.5 0 41 260 331.299804688 472 -68.529296875 0 -283.16015625 -400.469726562 -137.240234375 400.469726562 rlineto
            return
          </CharString>
          <CharString index="95">
            -40.330078125 -238.690429688 80.3203125 -46.6396484375 114 0 77 0 86.9296875 48 29 19 rrcurveto
            return
          </CharString>
          <CharString index="96">
            7.0400390625 -60 40.1298828125 0 70 479 rlineto
            -51 49 -125.76953125 22 -70 -9 rrcurveto
            -82 -10 -98 -32.0400390625 -37.3203125 -220.629882812 rrcurveto
            return
          </CharString>
          <CharString index="97">
            30.669921875 191.330078125 55.6806640625 30.169921875 82.1591796875 13.3203125 59.48046875 9.650390625 72.650390625 -17.240234375 49.76953125 -16.66015625 rrcurveto
            -53.98046875 -358.120117188 rlineto
            return
          </CharString>
          <CharString index="98">
            -68 -29 -50.619140625 -22.6298828125 -80.30078125 0 -88.5595703125 0 -31.2802734375 57.8798828125 22.330078125 141.299804688 rrcurveto
            return
          </CharString>
          <CharString index="99">
            -3.33984375 -22.0595703125 15.0400390625 -18.05078125 22.060546875 0 22.0595703125 0 20.0595703125 18.05078125 3.3408203125 22.0595703125 3.33984375 22.060546875 -14.0400390625 17.0498046875 -22.060546875 0 -22.0595703125 0 -21.0595703125 -17.0498046875 -3.3408203125 -22.060546875 rrcurveto
            return
          </CharString>
          <CharString index="100">
            -6.3115234375 -57 41.052734375 -45 56 0 56 0 49.947265625 45 6.3115234375 57 6.310546875 57 -39.6630859375 46 -56 0 -56 0 -51.3369140625 -46 -6.310546875 -57 rrcurveto
            return
          </CharString>
          <CharString index="101">
            -35.009765625 -194 33.33984375 -91 128 0 83 0 77.3896484375 6 84 23 rrcurveto
            6.3505859375 42.7998046875 rlineto
            -78 -11 -91.0400390625 -9.66015625 -76.330078125 4.3505859375 -82.8798828125 1.330078125 -19 50.2099609375 20.669921875 133.569335938 37 -15 334.559570312 -49.599609375 28 219 15 116 -79.009765625 37 -126 0 -195 0 -35.689453125 -103.629882812 -29.3505859375 -159.370117188 rrcurveto
            return
          </CharString>
          <CharString index="102">
            22.30078125 108.819335938 9.3193359375 100.280273438 171.870117188 0 93.9501953125 0 50.599609375 -15.58984375 -12.330078125 -79.91015625 -23.6591796875 -157.139648438 -312.05078125 43.5400390625 0 0 rrcurveto
            return
          </CharString>
          <CharString index="103">
            -3.3408203125 -22.060546875 15.0400390625 -18.0498046875 22.060546875 0 22.0595703125 0 20.060546875 18.0498046875 3.33984375 22.060546875 3.33984375 22.0595703125 -14.0400390625 17.0498046875 -22.0595703125 0 -22.060546875 0 -21.0595703125 -17.0498046875 -3.33984375 -22.0595703125 rrcurveto
            return
          </CharString>
          <CharString index="104">
            57.5 0 67.3095703125 424.1796875 rlineto
            82.0107421875 37.990234375 47.279296875 20.330078125 82.640625 0 63.5400390625 0 36.3095703125 -42.2099609375 -10.990234375 -70.2900390625 rrcurveto
            -59 -370 57.5 0 59 370 rlineto
            14 88 -45 82 -106 0 -81 0 -67.259765625 -35.009765625 -66.33984375 -35.990234375 rrcurveto
            return
          </CharString>
          <CharString index="105">
            -8.0400390625 62 -39.4599609375 0 rlineto
            return
          </CharString>
          <CharString index="106">
            -30 -190 51.099609375 -75.3095703125 173.3203125 0 172.689453125 0 58.650390625 64.6796875 32.33984375 196.010742188 30.669921875 187 -48.080078125 93.3095703125 -169.649414062 0 -169.049804688 0 -67.990234375 -58.6904296875 -34 -217 rrcurveto
            return
          </CharString>
          <CharString index="107">
            32.9794921875 199.83984375 58.91015625 20.66015625 114.640625 0 118.319335938 0 48.900390625 -34.3203125 -30.650390625 -186.1796875 -30.66015625 -183.91015625 -60.609375 -21.58984375 -112.58984375 0 -110.919921875 0 -58.640625 20.6298828125 30.3203125 184.870117188 rrcurveto
            return
          </CharString>
          <CharString index="108">
            50.849609375 0 154 133 -72.23046875 0 rlineto
            return
          </CharString>
          <CharString index="109">
            35.0107421875 0.669921875 19.8994140625 -46.8701171875 51.3798828125 -0.669921875 43.33984375 -0.669921875 37.3505859375 33.6904296875 41.6796875 28.9794921875 rrcurveto
            -11.7001953125 30.4501953125 rlineto
            -12.599609375 -8.9501953125 -60.759765625 -31.990234375 -28.9501953125 0.669921875 rrcurveto
            return
          </CharString>
          <CharString index="110">
            -14.669921875 -92.6904296875 46 -77.3095703125 106 0 81 0 66.259765625 35.009765625 66.33984375 35.990234375 rrcurveto
            return
          </CharString>
          <CharString index="111">
            8.0400390625 -62 39.4599609375 0 84 531 -57.5 0 -66.6396484375 -424.1796875 rlineto
            return
          </CharString>
          <CharString index="112">
            -82.009765625 -37.990234375 -47.2802734375 -20.330078125 -82.6396484375 0 -63.5400390625 0 -37.650390625 35.509765625 12.330078125 76.990234375 rrcurveto
            58.330078125 370 -57.5 0 rlineto
            return
          </CharString>
          <CharString index="113">
            -3.33984375 -22.060546875 15.0400390625 -18.0498046875 22.0595703125 0 22.060546875 0 20.0595703125 18.0498046875 3.33984375 22.060546875 3.33984375 22.0595703125 -14.0400390625 17.0498046875 -22.0595703125 0 -22.060546875 0 -21.0595703125 -17.0498046875 -3.33984375 -22.0595703125 rrcurveto
            return
          </CharString>
          <CharString index="114">
            69.599609375 -421 rlineto
            16.3203125 -99.33984375 67.33984375 -10.330078125 23.6806640625 -0.330078125 -24.7900390625 -47.5703125 -70.7802734375 -146.120117188 -77.7001953125 -35.1796875 rrcurveto
            -40.1298828125 vlineto
            105.719726562 14.740234375 81.150390625 150.740234375 53.599609375 104.51953125 rrcurveto
            218.360351562 438.969726562 rlineto
            13.6904296875 27.0400390625 8.94921875 35.9599609375 -10.009765625 31.6806640625 rrcurveto
            -45.8203125 hlineto
            -5.33984375 -34.0302734375 -7.9697265625 -21.9404296875 -12.6796875 -25.349609375 rrcurveto
            -196.959960938 -393.490234375 rlineto
            0.330078125 0 -65.2802734375 -10.66015625 -11.9599609375 66.8203125 rrcurveto
            -69.9404296875 415 rlineto
            return
          </CharString>
          <CharString index="115">
            -3.3408203125 -22.0595703125 15.0400390625 -18.05078125 22.060546875 0 22.0595703125 0 20.060546875 18.05078125 3.33984375 22.0595703125 3.33984375 22.0595703125 -14.0400390625 17.05078125 -22.0595703125 0 -22.060546875 0 -21.0595703125 -17.05078125 -3.33984375 -22.0595703125 rrcurveto
            return
          </CharString>
          <CharString index="116">
            12.7200012207 -19.3800048828 258.190002441 0 -21.9799957275 -135.179992676 48.1499938965 0 21.3099975586 135.179992676 rlineto
            return
          </CharString>
          <CharString index="117">
            60.3300018311 12.3399963379 5.69000244141 37.4799957275 -58.3300018311 0 27 169 -25.75 0 -29.3999938965 -48 -19.3300018311 -121 rlineto
            return
          </CharString>
          <CharString index="118">
            -195 0 225.979995728 289 -56.5 0 rlineto
            return
          </CharString>
          <CharString index="119">
            6.02000427246 37.4600067139 rlineto
            return
          </CharString>
          <CharString index="120">
            274.800003052 0 -242.940002441 -428.520004272 53.8300018311 0 253.990005493 450.279998779 -11.0200042725 25.7200012207 -320.970001221 0 rlineto
            return
          </CharString>
          <CharString index="121">
            -15.3299865723 -96.6500091553 68.7299957275 -14.3399963379 45.6000061035 0 rrcurveto
            117 hlineto
            68.0200195312 1.52587890625e-05 47.9799957275 12.0200042725 15 96 rrcurveto
            40 255 rlineto
            11.0000152588 67 -28.3600006104 44.9799957275 -77.6399993896 0 rrcurveto
            -117 hlineto
            -68.3199920654 1.52587890625e-05 -53.6799926758 -25.0099945068 -13 -84 rrcurveto
            return
          </CharString>
          <CharString index="122">
            39 247 rlineto
            6.97999572754 44.5300140381 21.5999908447 21.9900054932 55.5800018311 0 rrcurveto
            109 hlineto
            59.9299926758 0 6.26998901367 -22.2799987793 -7.31999206543 -44.2400054932 rrcurveto
            -39 -247 rlineto
            -7.64999389648 -45.5599822998 -14.3099975586 -20.9600067139 -58.5399932861 0 rrcurveto
            -109 hlineto
            -55.5999908447 0 -15.9199981689 10.6399993896 8.97999572754 55.8800048828 rrcurveto
            return
          </CharString>
          <CharString index="123">
            77 0 49.9499969482 26.6100006104 17 13 rrcurveto
            -66.9799957275 -418.839996338 47.4799957275 0 76 478 -46.1399993896 0 rlineto
            1.52587890625e-05 -69.2899932861 -67 -80 vhcurveto
            return
          </CharString>
          <CharString index="124">
            309 0 7.69000244141 47.4799957275 -218.399993896 0 rlineto
            33.2899932861 30.3300018311 212.410003662 128.089996338 21.0099945068 137.790008545 9.64999389648 53.879989624 -25.3399963379 84.4300079346 -93.3099975586 0 rrcurveto
            return
          </CharString>
          <CharString index="125">
            173.649993896 hlineto
            70.5399932861 0 13 -33.2400054932 -8.99000549316 -58.2799987793 -17.6699981689 -110.690002441 -213.819992065 -134.830001831 -76 -54 rrcurveto
            return
          </CharString>
          <CharString index="126">
            49.7100067139 -16.3699951172 59.6199951172 0.68000793457 74 0 100.339996338 -0.669998168945 33.6600036621 48.0099945068 11 71 rrcurveto
            4.33000183105 28.6600036621 rlineto
            6.98999023438 45.5800170898 -27.1899871826 33.0099945068 -23.0100097656 12.7100067139 26.6800079346 7.36000061035 37.5299987793 34.0299987793 8 50.3000030518 rrcurveto
            6 35.9900054932 rlineto
            9 60 -32.0299987793 54.3500061035 -80.3000030518 0.669998168945 rrcurveto
            return
          </CharString>
          <CharString index="127">
            68.5 -12.0299835205 63.8300018311 1.00999450684 81 -0.669998168945 65.6799926758 -0.669998168945 46.3100128174 25.9700012207 14.3399963379 88.6999969482 rrcurveto
            10.6699981689 64 rlineto
            11.0000152588 71.0000152588 -35.6999969482 42.3999938965 -66.950012207 0 -48.5 0 -83.3399963379 10.6600036621 -35.3199920654 -39.5599975586 rrcurveto
            36.2700042725 169.020004272 248.850006104 0 7.69000244141 47.4799957275 -295 0 -61.6699981689 -292 43.4600067139 0 rlineto
            6.33000183105 35.6600189209 28.9199981689 21.2599945068 31.9300079346 0 rrcurveto
            110.669998169 hlineto
            63.2299957275 0 -5.69999694824 -38.6799926758 -4.64999389648 -31.2400054932 rrcurveto
            -8.66999816895 -56 rlineto
            -6.97999572754 -44.549987793 -25.5999908447 -25.6399993896 -43.5800018311 0 rrcurveto
            return
          </CharString>
          <CharString index="128">
            -33.3200073242 -202.279998779 59.3500061035 -47.7200012207 63.9599914551 0 rrcurveto
            111.320007324 hlineto
            68.3699951172 0 39.9900054932 32.0099945068 11.3300018311 72 rrcurveto
            11.3300018311 72.3399963379 rlineto
            7.33001708984 44.9700012207 -22.3900146484 51.0899963379 -74.5999908447 -0.669998168945 -48 -0.669998168945 -89.8500061035 -5.02000427246 -56 -6 13.3000030518 77.4400024414 22.9400024414 95.0299987793 67.25 0 rrcurveto
            204.330001831 0 rlineto
            return
          </CharString>
          <CharString index="129">
            -59.0900115967 10.0199890137 -85.9400024414 0.660003662109 -66.3299865723 -0.660003662109 rrcurveto
            -57.6300048828 -0.660003662109 -61.3399963379 -32.3399963379 -32.3300018311 -197 rrcurveto
            return
          </CharString>
          <CharString index="130">
            188.509994507 hlineto
            37.9199829102 -1.52587890625e-05 22.2700042725 -6.33999633789 -6.99000549316 -42.9299926758 rrcurveto
            -10.9900054932 -64.6300048828 rlineto
            -7.32000732422 -42.5999908447 -21.6100006104 -20.2799987793 -41.25 0 rrcurveto
            -108.339996338 hlineto
            -65.6399841309 -1.52587890625e-05 0.849990844727 96.5900115967 12.5900115967 80.1899871826 rrcurveto
            return
          </CharString>
          <CharString index="131">
            -8.33000183105 -53.3299865723 22.7200012207 -50.6699981689 82.6199951172 0 rrcurveto
            118.300003052 hlineto
            59.6900024414 1.52587890625e-05 46 15.3099975586 13.6699981689 88.6900024414 rrcurveto
            9.33000183105 58 rlineto
            4.99000549316 33.6100158691 -15.5800018311 39.7099914551 -34.0100097656 11.3600006104 48.3300018311 8.02000427246 18.9499969482 48.0400085449 2.99000549316 20.5999908447 rrcurveto
            6.33000183105 40 rlineto
            12.6600036621 77.9599914551 -42.0299987793 39.6999969482 -59.2799987793 0 rrcurveto
            -112.679992676 hlineto
            -67.0000152588 1.52587890625e-05 -50.6699981689 -24.0099945068 -15 -92 rrcurveto
            -7 -40 rlineto
            -5 -31.3200073242 11 -40.9799957275 43.9499969482 -17.370010376 -27 -5.68998718262 -39.6199951172 -17.9800109863 -8 -48 rrcurveto
            return
          </CharString>
          <CharString index="132">
            8 50.6600036621 rlineto
            6.32998657227 40.6600036621 28.5899963379 18.2700042725 37.9200134277 0 rrcurveto
            118.970001221 hlineto
            28.9999847412 -1.52587890625e-05 24.8899993896 -17.3099975586 -6.65998840332 -42.2799987793 rrcurveto
            -7.33000183105 -50 rlineto
            -6.97999572754 -45.2199859619 -26.2900085449 -14.6300048828 -38.2299957275 0 rrcurveto
            -108.649993896 hlineto
            -54.5900115967 -1.52587890625e-05 -11.6199951172 16.9600067139 6.64999389648 42.8899993896 rrcurveto
            return
          </CharString>
          <CharString index="133">
            5 32 rlineto
            8.97999572754 57.2200164795 23.5999908447 16.3000030518 50.5800018311 0 rrcurveto
            100.350006104 hlineto
            47.2400054932 0 17.9400024414 -13.6399993896 -9.64999389648 -59.8800048828 rrcurveto
            -5 -32 rlineto
            -5.31999206543 -32.2399902344 -21.1999969482 -30.0199890137 -44.6900024414 0 rrcurveto
            -117.600006104 hlineto
            -29.5899963379 0 -27.9700012207 15.2899932861 7.33000183105 46.9700012207 rrcurveto
            return
          </CharString>
          <CharString index="134">
            9.66000366211 64.6300048828 rlineto
            6.98999023438 42.6000061035 22.2699890137 20.2799987793 41.25 0 rrcurveto
            108.009994507 hlineto
            65.6399993896 0 -0.18000793457 -96.5900115967 -12.5899963379 -80.1899871826 rrcurveto
            -188.509994507 hlineto
            -37.9199829102 0 -21.6100006104 6.33999633789 6.98999023438 42.9299926758 rrcurveto
            return
          </CharString>
          <CharString index="135">
            -19 -120 76.3099975586 -42 91 0 rrcurveto
            153.440002441 hlineto
            105.029998779 0 67.3200073242 43 19 119 rrcurveto
            48.6699981689 307.669998169 rlineto
            13.3300170898 81.6399841309 -33.6700134277 80.3600006104 -122.979995728 0 rrcurveto
            -154.100006104 hlineto
            -104.380004883 -1.52587890625e-05 -73.6300048828 -49.3099975586 -17.6699981689 -112.690002441 rrcurveto
            return
          </CharString>
          <CharString index="136">
            68.1499938965 -23.4099884033 109.61000061 1.02000427246 114 0 122 0 65.3300018311 58.0099945068 17 109 rrcurveto
            9.66999816895 59 rlineto
            13.3199920654 85.2399902344 -39.7900085449 44.3600006104 -35.0199890137 15.7200012207 36.6999969482 8.0299987793 54.4700012207 36.7399902344 14.6499938965 88.9200134277 rrcurveto
            11 69.6600036621 rlineto
            15 94.0100097656 -56.4100036621 70.3099975586 -103.589996338 2 rrcurveto
            return
          </CharString>
          <CharString index="137">
            -117 2 -112.339996338 0.339996337891 -82.7700042725 -24.3999938965 rrcurveto
            -5.35000610352 -35.4400024414 rlineto
            return
          </CharString>
          <CharString index="138">
            302.75 hlineto
            61.8999938965 0 53.3000030518 -23.9100036621 -13.3200073242 -83.5899963379 rrcurveto
            -10.6699981689 -69 rlineto
            -10.9899902344 -68.9199981689 -54.8600006104 -35 -71.9700012207 -2.34001159668 rrcurveto
            return
          </CharString>
          <CharString index="139">
            232.100006104 -7 rlineto
            54.9899902344 -1.99998474121 61.8600006104 -12.5800018311 -16 -100 rrcurveto
            -9.66999816895 -59 rlineto
            -13.6399993896 -83.5 -68.6199951172 -26 -58.2299957275 0 rrcurveto
            return
          </CharString>
          <CharString index="140">
            18.3399963379 121.039993286 rlineto
            12.6500091553 81.8899841309 65.6000061035 14.3099975586 42.5699920654 0 rrcurveto
            139.429992676 hlineto
            114.190002441 0 -13.0099945068 -179.559997559 -20.3099975586 -127.86000061 rrcurveto
            -267.619995117 hlineto
            -67.2899932861 -1.52587890625e-05 -36.8600006104 14.6600036621 12.3099975586 75.5200042725 rrcurveto
            return
          </CharString>
          <CharString index="141">
            473 0 9.36000061035 58.5 -473 0 rlineto
            return
          </CharString>
          <CharString index="142">
            696 0 9.36000061035 58.5 -696 0 rlineto
            return
          </CharString>
          <CharString index="143">
            -159.669921875 -64.66015625 55.330078125 -132.33984375 118 16 rrcurveto
            7.3603515625 44.8203125 rlineto
            -99.169921875 -3.669921875 6.990234375 79.439453125 101.25 60.41015625 rrcurveto
            return
          </CharString>
          <CharString index="144">
            39.4700012207 0 30.0099945068 134 10.6699981689 67 -57.8300018311 0 -10.6699981689 -67 rlineto
            return
          </CharString>
          <CharString index="145">
            38.2998046875 -7.330078125 134.98046875 -13.7001953125 67.08984375 0 87.6103515625 0 115.079101562 13.650390625 23.3408203125 148.69921875 rrcurveto
            10.669921875 68 rlineto
            13 82 -19.33984375 83.400390625 -126.30078125 0 rrcurveto
            -130.75 hlineto
            -65.8701171875 0 -52 0.240234375 16.6708984375 106.009765625 rrcurveto
            10.3291015625 66 rlineto
            16.3203125 104.25 55.6005859375 20.25 85.5693359375 -4 0 0 184.799804688 -7.349609375 54.2900390625 -1.3203125 rrcurveto
            6.6904296875 43.8203125 rlineto
            -52.0205078125 8 -131.399414062 13.009765625 -53 1.33984375 -109.3203125 2.6796875 -90.689453125 -26.9892578125 -24.3408203125 -152.370117188 rrcurveto
            -10.3291015625 -66 rlineto
            -12 -75.990234375 5.6591796875 -89.080078125 156.340820312 0 rrcurveto
            130.08984375 hlineto
            83.919921875 0 10.8994140625 -40.009765625 -10.3193359375 -66.240234375 rrcurveto
            -10.669921875 -68 rlineto
            -14.650390625 -95.5595703125 -86.6904296875 -10.9404296875 -57.169921875 0 -93 0 -107.69921875 3.33984375 -43 5.33984375 rrcurveto
            return
          </CharString>
          <CharString index="146">
            87.9501953125 -130 54.5 0 142.950195312 130 -59.5400390625 0 -107.490234375 -93.5595703125 -69.2099609375 93.5595703125 rlineto
            return
          </CharString>
          <CharString index="147">
            44.400390625 hlineto
            80.990234375 0 26.009765625 34.66015625 16 101.33984375 rrcurveto
            -50.5 hlineto
            -8.9697265625 -61.099609375 -17.2607421875 -25.419921875 -38.25 -10.6806640625 rrcurveto
            -48.0693359375 -11.7001953125 rlineto
            return
          </CharString>
          <CharString index="148">
            227.200195312 0 -106.640625 -674.5 57.5 0 106.640625 674.5 233.200195312 0 9.359375 57.5 -517.899414062 0 rlineto
            return
          </CharString>
          <CharString index="149">
            87.9501953125 -130 54.5 0 142.94921875 130 -59.5400390625 0 -107.489257812 -93.5595703125 -69.2099609375 93.5595703125 rlineto
            return
          </CharString>
          <CharString index="150">
            483.099609375 0 9.3603515625 57.5 -407.549804688 0 504.830078125 617 9.359375 57.5 -483.099609375 0 -9.3603515625 -57.5 407.55078125 0 -504.830078125 -617 rlineto
            return
          </CharString>
          <CharString index="151">
            -1.705078125 -11.689453125 7.41796875 -7.6796875 11.6904296875 0 rrcurveto
            37.1298828125 hlineto
            11.6904296875 0 8.55859375 6.6796875 1.7578125 12.689453125 rrcurveto
            9.271484375 56.640625 rlineto
            1.7060546875 11.689453125 -5.0791015625 9.0205078125 -12.6904296875 0 rrcurveto
            -37.1298828125 hlineto
            -13.3603515625 0 -8.228515625 -8.0205078125 -1.7578125 -12.689453125 rrcurveto
            return
          </CharString>
          <CharString index="152">
            -159.669921875 -64.6591796875 55.330078125 -132.340820312 118 16 rrcurveto
            7.3603515625 44.8203125 rlineto
            -99.169921875 -3.669921875 6.9892578125 79.4404296875 101.25 60.4091796875 rrcurveto
            return
          </CharString>
          <CharString index="153">
            -264.099609375 hlineto
            return
          </CharString>
          <CharString index="154">
            87.94921875 -130 54.5 0 142.950195312 130 -59.5400390625 0 -107.490234375 -93.5595703125 -69.2099609375 93.5595703125 rlineto
            return
          </CharString>
          <CharString index="155">
            37 -4 174.76953125 -12.029296875 49 0 58.640625 0 74.689453125 7.689453125 17 109 rrcurveto
            8.669921875 58.3798828125 rlineto
            12 75 -44.6494140625 51.0302734375 -83.3701171875 0 rrcurveto
            -142.740234375 hlineto
            -43.509765625 0 -38.330078125 -6.3701171875 11.990234375 73.2705078125 rrcurveto
            7.669921875 49.349609375 rlineto
            5.6396484375 37.16015625 16.240234375 36.689453125 70.599609375 0 rrcurveto
            return
          </CharString>
          <CharString index="156">
            251.100585938 0 7.01953125 42.810546875 rlineto
            return
          </CharString>
          <CharString index="157">
            -51 5 -146.4296875 8.689453125 -52 0 -103 0 -42 -43.689453125 -13.669921875 -84.6796875 rrcurveto
            -7.669921875 -49.3505859375 rlineto
            -16 -100.990234375 47.359375 -25.3896484375 94 0 rrcurveto
            142.390625 hlineto
            52.91015625 0 14.609375 -26.9296875 -6.66015625 -39.6201171875 rrcurveto
            -8.669921875 -52.3505859375 rlineto
            -11.6494140625 -70.8896484375 -55.650390625 3.6904296875 -15.509765625 0 rrcurveto
            return
          </CharString>
          <CharString index="158">
            44.3994140625 hlineto
            80.990234375 0 26.009765625 34.66015625 16 101.33984375 rrcurveto
            -50.5 hlineto
            -8.9697265625 -61.099609375 -17.259765625 -25.419921875 -38.25 -10.6796875 rrcurveto
            -48.0703125 -11.7001953125 rlineto
            return
          </CharString>
          <CharString index="159">
            87.94921875 -130 54.5 0 142.950195312 130 -59.5400390625 0 -107.489257812 -93.5595703125 -69.2109375 93.5595703125 rlineto
            return
          </CharString>
          <CharString index="160">
            381 hlineto
            0 0 9.6904296875 56.5 -1 1 rrcurveto
            -299.760742188 0 367.05078125 415 8.01953125 57.5 -396 0 -8.01953125 -57.5 317.109375 0 -370.740234375 -415 rlineto
            return
          </CharString>
          <CharString index="161">
            -1.7060546875 -11.6904296875 7.4189453125 -7.6796875 11.689453125 0 rrcurveto
            37.1298828125 hlineto
            11.6904296875 0 8.55859375 6.6796875 1.7587890625 12.6904296875 rrcurveto
            9.2705078125 56.6396484375 rlineto
            1.7060546875 11.6904296875 -5.0791015625 9.01953125 -12.689453125 0 rrcurveto
            -37.130859375 hlineto
            -13.359375 0 -8.2294921875 -8.01953125 -1.7578125 -12.6904296875 rrcurveto
            return
          </CharString>
          <CharString index="162">
            57.5 0 50.3203125 316.25 rlineto
            return
          </CharString>
          <CharString index="163">
            1.3193359375 -0.990234375 199.0703125 -11.359375 17.490234375 -0.330078125 rrcurveto
            102.299804688 -303.5703125 62.849609375 0 -106.989257812 308.9296875 rlineto
            44.1796875 3.33984375 102.75 14.330078125 22.6298828125 190.680664062 20.6298828125 170.959960938 -74.91015625 43.759765625 -83.01953125 0 rrcurveto
            -300.120117188 hlineto
            return
          </CharString>
          <CharString index="164">
            48.9599609375 309.75 241.950195312 0 rlineto
            59.919921875 0 43.5302734375 -15.6396484375 -15.2900390625 -139.260742188 -14.2802734375 -125.819335938 -63.26953125 -29.0302734375 -62.919921875 0 rrcurveto
            return
          </CharString>
          <CharString index="165">
            -7.650390625 -73.33984375 53.669921875 -40.66015625 53.66015625 0 64.3798828125 0 52.6005859375 34.650390625 11.330078125 79.349609375 rrcurveto
            -35.4404296875 hlineto
            -8.330078125 -53.3095703125 -35.9296875 -25.5908203125 -48.2802734375 0.3408203125 -39.9296875 -0.330078125 -31.6298828125 31.26953125 6.9892578125 47.6201171875 rrcurveto
            return
          </CharString>
          <CharString index="166">
            -15.990234375 -100.26953125 66.970703125 -25.73046875 66.669921875 0 rrcurveto
            295.790039062 0 8.689453125 57.5 -296.099609375 0 rlineto
            -37.25 0 -41.58984375 2.6298828125 10.3095703125 65.8701171875 rrcurveto
            96.669921875 606 -56.830078125 0 rlineto
            return
          </CharString>
          <CharString index="167">
            -29.98046875 -184.849609375 28.310546875 -191.790039062 187.6796875 0 60.7099609375 0 97.0205078125 2.9697265625 80.7099609375 19.7001953125 rrcurveto
            6.01953125 44.150390625 rlineto
            -95.1396484375 -6.7001953125 -80.8603515625 -4.6298828125 -64.1298828125 2.009765625 -128.549804688 6.0302734375 -34.9306640625 124.689453125 30.640625 183.780273438 46.6796875 296.080078125 104.440429688 19.75 85.359375 0.669921875 94.0107421875 1.33984375 121.6796875 -14 15.0703125 -2.009765625 rrcurveto
            6.689453125 44.150390625 rlineto
            -68 13 -110.759765625 15.01953125 -52 0 -200.3203125 0 -62.33984375 -136.6796875 -38.009765625 -232.680664062 rrcurveto
            return
          </CharString>
          <CharString index="168">
            87.9501953125 -130 54.5 0 142.950195312 130 -59.5400390625 0 -107.490234375 -93.560546875 -69.2099609375 93.560546875 rlineto
            return
          </CharString>
          <CharString index="169">
            -6.310546875 -57 41.0517578125 -45 56 0 56 0 49.9482421875 45 6.310546875 57 6.3115234375 57 -39.6630859375 46 -56 0 -56 0 -51.3369140625 -46 -6.3115234375 -57 rrcurveto
            return
          </CharString>
          <CharString index="170">
            57.5 0 65.98046875 417.200195312 rlineto
            83 37 48.2900390625 24.6298828125 82.9697265625 0 29 0 28.3701171875 -2.669921875 15.6298828125 -3.66015625 rrcurveto
            9.3603515625 56.5 rlineto
            -13.640625 6.330078125 -30.359375 1.669921875 -29 0 -84.640625 0 -64.9599609375 -38 -67 -35 rrcurveto
            -7.69921875 67 -38.80078125 0 rlineto
            return
          </CharString>
          <CharString index="171">
            -35.66015625 -211.559570312 72.6796875 -61.75 101.010742188 -0.669921875 83 -0.33984375 55.3994140625 5.669921875 85 23 rrcurveto
            6.6904296875 42.7998046875 rlineto
            0 -135.430664062 -14.2998046875 -92 vhcurveto
            -71.9296875 0 -41.240234375 43.0302734375 28.98046875 167.809570312 35.33984375 201.259765625 47.240234375 16.580078125 69.5595703125 0 rrcurveto
            89 127.440429688 -10.6396484375 0 hvcurveto
            6.349609375 40.7998046875 rlineto
            -65.359375 13.330078125 -96.0703125 14.009765625 -52 0 -96.6396484375 0 -79.6708984375 -22.9599609375 -41.689453125 -246.0703125 rrcurveto
            return
          </CharString>
          <CharString index="172">
            94.0498046875 0 -44.9697265625 -285.830078125 rlineto
            -20.330078125 -130.66015625 36.009765625 -58.33984375 92.7099609375 0 rrcurveto
            66.3505859375 0 6.01953125 41.810546875 rlineto
            -2.9794921875 -71.0302734375 15.689453125 0 hvcurveto
            -35.7001953125 7.349609375 -31.849609375 6.0107421875 18.2998046875 118.139648438 rrcurveto
            44.9697265625 285.830078125 rlineto
            return
          </CharString>
          <CharString index="173">
            161.600585938 0 9.359375 57.5 -161.599609375 0 23 148 -42.7998046875 0 -37.7001953125 -148 rlineto
            return
          </CharString>
          <CharString index="174">
            -96.390625 -14.7001953125 rlineto
            return
          </CharString>
          <CharString index="175">
            -3.33984375 -22.0595703125 15.0400390625 -18.0498046875 22.0595703125 0 22.060546875 0 20.0595703125 18.0498046875 3.33984375 22.0595703125 3.33984375 22.060546875 -14.0400390625 17.0498046875 -22.0595703125 0 -22.0595703125 0 -21.060546875 -17.0498046875 -3.33984375 -22.060546875 rrcurveto
            return
          </CharString>
          <CharString index="176">
            376.660003662 0 9.36000061035 57.5 -376.660003662 0 rlineto
            return
          </CharString>
          <CharString index="177">
            59.5400390625 0 107.489257812 93.5595703125 69.2099609375 -93.5595703125 49.16015625 0 -87.9501953125 130 -54.5 0 rlineto
            return
          </CharString>
          <CharString index="178">
            -29.6494140625 -182.209960938 16.7998046875 -194.419921875 192.9296875 -0.009765625 80.6201171875 0 98.2001953125 37.6396484375 32.330078125 24.7099609375 rrcurveto
            6.7001953125 -56.009765625 42.8095703125 0 61 386 rlineto
            -24 2 -22.330078125 1 -21 0 rrcurveto
            return
          </CharString>
          <CharString index="179">
            -81 0 -53.359375 -9.3798828125 -42 -11 rrcurveto
            -6.3505859375 -38.1201171875 183.850585938 0 -37.9599609375 -225.990234375 rlineto
            0 -132.830078125 -53.349609375 -78 vhcurveto
            -130.860351562 -0.669921875 -26.6796875 124.450195312 30.2900390625 191.049804688 41.369140625 275.959960938 91.2109375 40.5498046875 94.3095703125 -0.669921875 61.83984375 -0.669921875 132.600585938 -9.9404296875 42.1796875 -6.029296875 rrcurveto
            6.349609375 45.7998046875 rlineto
            -68 13 -117.629882812 16.009765625 -49.990234375 -0.669921875 rrcurveto
            -199 0 -58.0595703125 -146.25 -36.6904296875 -222.780273438 rrcurveto
            return
          </CharString>
          <CharString index="180">
            -1.705078125 -11.6904296875 7.41796875 -7.6796875 11.6904296875 0 rrcurveto
            37.1298828125 hlineto
            11.6904296875 0 8.55859375 6.6796875 1.7578125 12.6904296875 rrcurveto
            9.271484375 56.6396484375 rlineto
            1.7060546875 11.6904296875 -5.0791015625 9.01953125 -12.6904296875 0 rrcurveto
            -37.1298828125 hlineto
            -13.359375 0 -8.2294921875 -8.01953125 -1.7578125 -12.6904296875 rrcurveto
            return
          </CharString>
          <CharString index="181">
            59.5400390625 0 107.489257812 93.5595703125 69.2099609375 -93.5595703125 49.16015625 0 -87.94921875 130 -54.5 0 rlineto
            return
          </CharString>
          <CharString index="182">
            -7.650390625 -73.33984375 53.669921875 -40.66015625 53.66015625 0 64.3798828125 0 52.6005859375 34.650390625 11.3291015625 79.349609375 rrcurveto
            -35.439453125 hlineto
            -8.330078125 -53.3095703125 -35.9296875 -25.5908203125 -48.2802734375 0.3408203125 -39.9296875 -0.330078125 -31.630859375 31.26953125 6.990234375 47.6201171875 rrcurveto
            return
          </CharString>
          <CharString index="183">
            59.5400390625 0 107.490234375 93.560546875 69.2099609375 -93.560546875 49.16015625 0 -87.9501953125 130 -54.5 0 rlineto
            return
          </CharString>
          <CharString index="184">
            -7.6494140625 -73.33984375 53.669921875 -40.66015625 53.66015625 0 64.3798828125 0 52.599609375 34.650390625 11.330078125 79.349609375 rrcurveto
            -35.439453125 hlineto
            -8.330078125 -53.3095703125 -35.9306640625 -25.5908203125 -48.279296875 0.3408203125 -39.9306640625 -0.330078125 -31.6298828125 31.26953125 6.990234375 47.6201171875 rrcurveto
            return
          </CharString>
          <CharString index="185">
            244.099609375 -24 rlineto
            79.3505859375 -8 86.6494140625 52 20 124 rrcurveto
            98.330078125 621.299804688 rlineto
            -46 4 -100.44921875 15.7001953125 -106 0 -116.290039062 0 -78.6904296875 -94 -27 -168 -25 -158 15.349609375 -126.330078125 157.690429688 0 45 0 78.5595703125 12.330078125 68 26 rrcurveto
            -21 -133 rlineto
            -12.3095703125 -78.51953125 -57.5205078125 -34.30078125 -49.3095703125 1.3203125 rrcurveto
            -247.440429688 4.9501953125 rlineto
            return
          </CharString>
          <CharString index="186">
            12.6103515625 79.3193359375 43.5498046875 132.180664062 109.969726562 -0.990234375 rrcurveto
            187.610351562 -1.650390625 -64.6201171875 -402.049804688 rlineto
            -86 -21 -38.259765625 -7.2998046875 -74 0 -114.66015625 0 7.859375 115.83984375 15.9404296875 105.650390625 rrcurveto
            return
          </CharString>
          <CharString index="187">
            -19 -96 65.9794921875 -58.66015625 102 0 rrcurveto
            136.030273438 hlineto
            147 0 16.990234375 85.3203125 10.669921875 68.6796875 rrcurveto
            5 33 rlineto
            13 79 -68.650390625 45.740234375 -68 9 rrcurveto
            -202.149414062 26.6494140625 rlineto
            -27.9306640625 3.66015625 -8.76953125 13.9501953125 4 26 5 32 24.009765625 3.580078125 34.810546875 0 rrcurveto
            147 hlineto
            140.349609375 0 44.330078125 110.419921875 10 77 18 141 -82.98046875 46 -68.330078125 0.330078125 rrcurveto
            -102.689453125 1.669921875 rlineto
            -107 1.669921875 -72 -60.669921875 -20 -130 -8 -53 15.3095703125 -66.2998046875 40.66015625 -26.6806640625 -46.3701171875 -1.6494140625 -26.94921875 -38.1201171875 -6.3203125 -44.25 rrcurveto
            return
          </CharString>
          <CharString index="188">
            30.3203125 145.580078125 227.169921875 -31.330078125 rlineto
            65.849609375 -9.3203125 33.3203125 -25.3095703125 -7.990234375 -51.6201171875 rrcurveto
            -4.669921875 -28 rlineto
            -8.3203125 -54.259765625 -22.6494140625 -41.5703125 -75.830078125 0 rrcurveto
            -148.020507812 hlineto
            -45.5693359375 0 -60.2705078125 15.2001953125 16.66015625 80.6298828125 rrcurveto
            return
          </CharString>
          <CharString index="189">
            13.2900390625 76.08984375 36.189453125 55.41015625 82 0 rrcurveto
            102.650390625 hlineto
            74 0 23.1796875 -60.990234375 -11.3095703125 -70.509765625 -6 -38 -28.33984375 -91.25 -90.1806640625 0 rrcurveto
            -113.209960938 hlineto
            -77 0 -13.9296875 76.9501953125 8.66015625 52.2998046875 rrcurveto
            return
          </CharString>
          <CharString index="190">
            -1.7060546875 -11.6904296875 7.4189453125 -7.6796875 11.6904296875 0 rrcurveto
            37.1298828125 hlineto
            11.689453125 0 8.5595703125 6.6796875 1.7578125 12.6904296875 rrcurveto
            9.2705078125 56.6396484375 rlineto
            1.7060546875 11.6904296875 -5.0791015625 9.01953125 -12.689453125 0 rrcurveto
            -37.1298828125 hlineto
            -13.3603515625 0 -8.228515625 -8.01953125 -1.7587890625 -12.6904296875 rrcurveto
            return
          </CharString>
          <CharString index="191">
            97 0 -74.6399993896 -473.5 57.5 0 rlineto
            return
          </CharString>
          <CharString index="192">
            74.6399993896 473.5 rlineto
            return
          </CharString>
          <CharString index="193">
            -101.009994507 -15.3500061035 rlineto
            return
          </CharString>
          <CharString index="194">
            93.6999969482 0 -74.6399993896 -473.5 57.5 0 rlineto
            return
          </CharString>
          <CharString index="195">
            6.02000427246 37.1199951172 rlineto
            return
          </CharString>
          <CharString index="196">
            11.3701171875 -30.109375 rlineto
            34.6396484375 17.9599609375 26.310546875 21.3193359375 42.01953125 0.6708984375 rrcurveto
            return
          </CharString>
          <CharString index="197">
            0 0 64.556640625 -13.5263671875 10.9267578125 69.1650390625 rrcurveto
            13.7099609375 87.533203125 rlineto
            1.58203125 11.421875 -2.4638671875 8.720703125 -13.52734375 0 rrcurveto
            -33.7236328125 hlineto
            -12.0234375 0 -8.0087890625 -6.615234375 -2.232421875 -13.52734375 rrcurveto
            -7.7412109375 -50.9755859375 rlineto
            -2.1845703125 -12.626953125 7.279296875 -6.30859375 10.521484375 0 rrcurveto
            8.4150390625 0 -4.6240234375 -29.0341796875 rlineto
            -1.4873046875 -8.4150390625 -3.1328125 -15.3359375 -22.544921875 0.6025390625 rrcurveto
            return
          </CharString>
          <CharString index="198">
            0 0 64.5576171875 -13.5263671875 10.92578125 69.1650390625 rrcurveto
            13.7109375 87.533203125 rlineto
            1.58203125 11.421875 -2.4638671875 8.720703125 -13.52734375 0 rrcurveto
            -33.7236328125 hlineto
            -12.0244140625 0 -8.0087890625 -6.615234375 -2.232421875 -13.52734375 rrcurveto
            -7.740234375 -50.9755859375 rlineto
            -2.185546875 -12.626953125 7.2802734375 -6.30859375 10.5205078125 0 rrcurveto
            8.4150390625 0 -4.623046875 -29.0341796875 rlineto
            -1.48828125 -8.4150390625 -3.1318359375 -15.3359375 -22.544921875 0.6025390625 rrcurveto
            return
          </CharString>
          <CharString index="199">
            278.799804688 0 7.3603515625 47.16015625 -278.799804688 0 rlineto
            return
          </CharString>
          <CharString index="200">
            278.799804688 0 7.3603515625 47.16015625 -278.80078125 0 rlineto
            return
          </CharString>
          <CharString index="201">
            -159.669921875 -64.66015625 55.330078125 -132.33984375 118 16 rrcurveto
            7.359375 44.8203125 rlineto
            -99.169921875 -3.669921875 6.990234375 79.439453125 101.25 60.41015625 rrcurveto
            return
          </CharString>
          <CharString index="202">
            -1.7060546875 -11.6904296875 7.4189453125 -7.6796875 11.689453125 0 rrcurveto
            37.130859375 hlineto
            11.689453125 0 8.5595703125 6.6796875 1.7578125 12.6904296875 rrcurveto
            9.2705078125 56.6396484375 rlineto
            1.7060546875 11.6904296875 -5.0791015625 9.01953125 -12.689453125 0 rrcurveto
            -37.1298828125 hlineto
            -13.3603515625 0 -8.2294921875 -8.01953125 -1.7578125 -12.6904296875 rrcurveto
            return
          </CharString>
          <CharString index="203">
            11.3701171875 -30.1103515625 rlineto
            34.640625 17.9599609375 26.3095703125 21.3203125 42.0205078125 0.669921875 rrcurveto
            return
          </CharString>
          <CharString index="204">
            35.009765625 0.669921875 19.8994140625 -46.8701171875 51.380859375 -0.669921875 43.33984375 -0.669921875 37.349609375 33.6904296875 41.6796875 28.9794921875 rrcurveto
            -11.69921875 30.4501953125 rlineto
            -12.6005859375 -8.9501953125 -60.759765625 -31.990234375 -28.9501953125 0.669921875 rrcurveto
            return
          </CharString>
          <CharString index="205">
            39.4700012207 0 29.6799926758 134 11 67 -57.8300018311 0 -11 -67 rlineto
            return
          </CharString>
          <CharString index="206">
            -12.3300018311 -84.3299865723 36.4100036621 -41.6600036621 82.5899963379 0 rrcurveto
            53.0299987793 hlineto
            103.010009766 0 32.3200073242 33.6500091553 13.6699981689 90.3600006104 rrcurveto
            11.3399963379 76.3999938965 rlineto
            13.6699829102 89.0200042725 -31.0399932861 36.9700012207 -89.9600067139 0 rrcurveto
            -53.0299987793 hlineto
            -107.699996948 1.52587890625e-05 -27.6399993896 -40.3500061035 -13 -83.6600036621 rrcurveto
            return
          </CharString>
          <CharString index="207">
            11.3399963379 76.3999938965 rlineto
            9.30999755859 59.5200042725 18.5700073242 16.9800109863 64.9299926758 0 rrcurveto
            52.6999969482 hlineto
            65.8999938965 1.52587890625e-05 9.61000061035 -17.9300079346 -9.32000732422 -58.5699920654 rrcurveto
            -11.3399963379 -76.3999938965 rlineto
            -9.3099822998 -61.5299987793 -20.9000091553 -14.9700012207 -62.2599945068 0 rrcurveto
            -52.6999969482 hlineto
            -57.2299957275 0 -18.6100006104 15.2900085449 9.30999755859 61.2099914551 rrcurveto
            return
          </CharString>
          <CharString index="208">
            54.5 0 433.36000061 570 -54.5 0 rlineto
            return
          </CharString>
          <CharString index="209">
            -12.3300170898 -84.3299865723 36.4100036621 -41.6600036621 82.5899963379 0 rrcurveto
            53.6900024414 hlineto
            103.010009766 0 32.3299865723 33.3200073242 13 90.3599853516 rrcurveto
            11.3399963379 76.3999938965 rlineto
            return
          </CharString>
          <CharString index="210">
            14.0000152588 90.0100097656 -31.0400085449 36.3099975586 -89.9599914551 0 rrcurveto
            -52.6999969482 hlineto
            -107.700012207 0 -28.3000030518 -40.3499908447 -13 -83.6600036621 rrcurveto
            return
          </CharString>
          <CharString index="211">
            11.3399963379 76.3999938965 rlineto
            9.30999755859 59.5200042725 18.5699920654 16.9799957275 64.9300079346 0 rrcurveto
            52.6999969482 hlineto
            65.9000091553 0 9.61000061035 -17.9299926758 -9.31999206543 -58.5700073242 rrcurveto
            -11.3399963379 -76.3999938965 rlineto
            -9.30999755859 -61.5299987793 -21.5699920654 -14.9700012207 -62.2600097656 0 rrcurveto
            -52.6999969482 hlineto
            -57.2299957275 0 -17.9400024414 15.2899932861 9.30999755859 61.2100067139 rrcurveto
            return
          </CharString>
          <CharString index="212">
            281.699996948 0 7.36000061035 45.4900054932 rlineto
            return
          </CharString>
          <CharString index="213">
            -8.32998657227 -51.3200073242 -32.0099945068 -260.070007324 207 1 60 0 76.6399993896 20.3000030518 58 34 rrcurveto
            return
          </CharString>
          <CharString index="214">
            6.02000427246 -47.3000030518 42.1399993896 0 48.6699981689 308 rlineto
            -24 2 -21 1 -21 0 rrcurveto
            return
          </CharString>
          <CharString index="215">
            -81 0 -41.5799865723 -10.3699951172 -52.5600128174 -9.68000793457 rrcurveto
            -6.02000427246 -37.4499969482 rlineto
            return
          </CharString>
          <CharString index="216">
            181.300003052 0 -23.6199951172 -148.699996948 rlineto
            -25.0000152588 -16.9999847412 -86.9599914551 -37.9700012207 -81 0 -117 0 -18.1399993896 128.169998169 17.2799987793 110 29.3199920654 183.589996338 46.2400054932 49.9100036621 116.910003662 0 90.6899871826 0 73.7800140381 -7.66000366211 61 -6 rrcurveto
            7.36000061035 46.1600036621 rlineto
            -58.9699859619 12.6499938965 -121.830001831 12.3500061035 -43 0 rrcurveto
            -172 0 -57.6699981689 -91.6100006104 -29.6600036621 -184 rrcurveto
            return
          </CharString>
          <CharString index="217">
            57.5 0 90 570 -57.5 0 rlineto
            return
          </CharString>
          <CharString index="218">
            -39 -249 86.0899963379 -37.3200073242 161.330001831 0 168 0 74.6799926758 44.6900024414 39 245 41 256 -85.7599945068 34.3099975586 -163.660003662 0 -166.660003662 0 -76.0199890137 -49.6799926758 -39 -244 rrcurveto
            return
          </CharString>
          <CharString index="219">
            35.3300018311 221 72.7299957275 11.5 114.470001221 0 131.13999939 0 53.7700042725 -13.1900024414 -33.3400115967 -217.309997559 -32.6799926758 -215.679992676 -75.7400054932 -18.8200073242 -116.11000061 0 -132.529998779 0 -49.6900024414 26.5800018311 32.6500091553 205.919998169 rrcurveto
            return
          </CharString>
          <CharString index="220">
            67.5302734375 0 89.919921875 161.900390625 256.169921875 0 38.310546875 -161.900390625 59.169921875 0 -127.959960938 570 -57.5 0 rlineto
            return
          </CharString>
          <CharString index="221">
            153.470703125 273.359375 59.580078125 -273.359375 rlineto
            return
          </CharString>
          <CharString index="222">
            57.5 0 39.3203125 247.919921875 rlineto
            1 -2 143.809570312 -10.01953125 30 -2 rrcurveto
            94.650390625 -233.900390625 63.169921875 0 -99.330078125 240.259765625 rlineto
            80.3701171875 6.009765625 56.240234375 57.1005859375 9.9697265625 100.629882812 12.6298828125 134.669921875 -81.6796875 32.330078125 -59.6201171875 0 rrcurveto
            -258.030273438 hlineto
            return
          </CharString>
          <CharString index="223">
            35.6298828125 222.099609375 201.200195312 0 rlineto
            26.140625 0 69.7099609375 -16.919921875 -17.3203125 -91.58984375 -19 -99.310546875 -54.8798828125 -14.279296875 -36.98046875 0 rrcurveto
            return
          </CharString>
          <CharString index="224">
            -3.34001159668 -22.0599822998 15.0399932861 -18.0500030518 22.0599975586 0 22.0600128174 0 20.3899993896 18.0500030518 3.33999633789 22.0599975586 3.33999633789 22.0599975586 -14.3699951172 17.7200012207 -22.0599975586 0 -22.0599975586 0 -21.0600128174 -17.7200012207 -3.33999633789 -22.0599975586 rrcurveto
            return
          </CharString>
          <CharString index="225">
            35 -12 179.099609375 -8.01953125 49 0 55 0 78.330078125 17.6796875 17 109 rrcurveto
            11 70 rlineto
            12 75 -36.3193359375 47.0703125 -87 0 rrcurveto
            -150.100585938 hlineto
            -47.8896484375 0 -33.2802734375 -2.33984375 10.990234375 67.58984375 rrcurveto
            10.330078125 61.6396484375 rlineto
            7.3095703125 47.8603515625 24.919921875 33 60.580078125 0 rrcurveto
            98 154.770507812 -4.66015625 0 hvcurveto
            6.689453125 42.810546875 rlineto
            -66 9 -132.099609375 9.349609375 -52 0 -103 0 -45.009765625 -53.7099609375 -13 -82 rrcurveto
            -8.990234375 -61.6396484375 rlineto
            -13.66015625 -100.020507812 48.0302734375 -24.3798828125 84.6201171875 0 rrcurveto
            150.099609375 hlineto
            54.580078125 0 15.919921875 -13.2998046875 -7.990234375 -49.9501953125 rrcurveto
            -11 -70 rlineto
            -5.9892578125 -37.9404296875 -23.6201171875 -32.5595703125 -54.5302734375 0 rrcurveto
            -96 -169.099609375 3.990234375 0 hvcurveto
            return
          </CharString>
          <CharString index="226">
            278.80078125 0 7.359375 47.16015625 -278.799804688 0 rlineto
            return
          </CharString>
          <CharString index="227">
            -8 -52 30.3203125 -33 50 0 rrcurveto
            return
          </CharString>
          <CharString index="228">
            304.379882812 13.009765625 7.359375 44.490234375 rlineto
            return
          </CharString>
          <CharString index="229">
            -286.279296875 hlineto
            -18.0302734375 0 -25.5595703125 3.330078125 6.3193359375 38.900390625 rrcurveto
            24.310546875 157.51953125 rlineto
            return
          </CharString>
          <CharString index="230">
            300.200195312 6.669921875 7.359375 45.490234375 rlineto
            return
          </CharString>
          <CharString index="231">
            -298.200195312 7.33984375 24.98046875 155.860351562 rlineto
            4.330078125 27.2998046875 8.2802734375 16.58984375 42.869140625 0 rrcurveto
            return
          </CharString>
          <CharString index="232">
            281.700195312 0 7.3603515625 45.490234375 rlineto
            return
          </CharString>
          <CharString index="233">
            -283.020507812 11.009765625 rlineto
            -64 0 -44.349609375 -30.6796875 -9.330078125 -59.3203125 rrcurveto
            return
          </CharString>
          <CharString index="234">
            422.700195312 0 9.359375 57.5 -343.469726562 0 415.419921875 455 8.6904296875 57.5 -422.700195312 0 -8.6904296875 -57.5 346.48046875 0 -418.4296875 -455 rlineto
            return
          </CharString>
          <CharString index="235">
            -3.33984375 -22.060546875 15.0400390625 -18.0498046875 22.060546875 0 22.0595703125 0 20.0595703125 18.0498046875 3.3408203125 22.060546875 3.33984375 22.0595703125 -14.0400390625 17.0498046875 -22.060546875 0 -22.0595703125 0 -21.060546875 -17.0498046875 -3.33984375 -22.0595703125 rrcurveto
            return
          </CharString>
          <CharString index="236">
            -159.669921875 -64.66015625 55.330078125 -132.33984375 118 16 rrcurveto
            7.359375 44.8193359375 rlineto
            -99.169921875 -3.669921875 6.990234375 79.4404296875 101.25 60.41015625 rrcurveto
            return
          </CharString>
          <CharString index="237">
            -22 -138 -1.669921875 -175.040039062 181 0 77 0 86.0703125 13.6904296875 60 11 rrcurveto
            6.689453125 42.8095703125 rlineto
            0 0 -147.399414062 -8 -73 -2 -119.290039062 1.33984375 -11.5302734375 102.41015625 21.9599609375 137.75 22.6396484375 144.5 50.5703125 81 108.9296875 0 65 0 138.400390625 -7 15 -3 rrcurveto
            6.6904296875 44.150390625 rlineto
            -49 12 -123.73046875 11.349609375 -43 0 -170 0 -56.330078125 -123.959960938 -23 -145 rrcurveto
            return
          </CharString>
          <CharString index="238">
            304.379882812 13.009765625 7.3603515625 44.490234375 rlineto
            return
          </CharString>
          <CharString index="239">
            -286.280273438 hlineto
            -18.0302734375 0 -25.5595703125 3.330078125 6.3193359375 38.900390625 rrcurveto
            24.310546875 157.51953125 rlineto
            return
          </CharString>
          <CharString index="240">
            -1.705078125 -11.6904296875 7.41796875 -7.6796875 11.6904296875 0 rrcurveto
            37.1298828125 hlineto
            11.689453125 0 8.5595703125 6.6796875 1.7578125 12.6904296875 rrcurveto
            9.271484375 56.6396484375 rlineto
            1.7060546875 11.6904296875 -5.0791015625 9.01953125 -12.6904296875 0 rrcurveto
            -37.1298828125 hlineto
            -13.3603515625 0 -8.228515625 -8.01953125 -1.7578125 -12.6904296875 rrcurveto
            return
          </CharString>
          <CharString index="241">
            75.0500030518 0 -42.3200073242 -269.600006104 219.679992676 0 rlineto
            60 0 162.019989014 -8.00999450684 45.3300018311 281.669998169 19.3300018311 122.669998169 -21.0199890137 173.669998169 -176 2 rrcurveto
            -219.009994507 0 -41.3200073242 -261.600006104 -75.0500030518 0 rlineto
            return
          </CharString>
          <CharString index="242">
            33.6300048828 212.100006104 101.550003052 0 5.35000610352 40.8000030518 -100.210006714 0 32.6300048828 204.100006104 166.199996948 0 rlineto
            86.9699859619 0 63.8600006104 -64.6600036621 -26.6399993896 -166.839996338 -19.3099975586 -122.539993286 -48.6199951172 -102.960006714 -129.210006714 0 rrcurveto
            return
          </CharString>
          <CharString index="243">
            57.5 0 76.2900390625 474.400390625 272.740234375 -474.400390625 53.169921875 0 90 571 -56.5 0 -75.6201171875 -470.73046875 -272.419921875 470.73046875 -55.16015625 0 rlineto
            return
          </CharString>
          <CharString index="244">
            -39 -249 86.08984375 -37.3203125 161.330078125 0 168 0 74.6796875 44.6904296875 39 245 41 256 -85.759765625 34.3095703125 -163.66015625 0 -166.66015625 0 -76.01953125 -49.6796875 -39 -244 rrcurveto
            return
          </CharString>
          <CharString index="245">
            35.330078125 221 72.7294921875 11.5 114.470703125 0 131.139648438 0 53.76953125 -13.1904296875 -33.33984375 -217.309570312 -32.6796875 -215.6796875 -75.740234375 -18.8203125 -116.109375 0 -132.530273438 0 -49.6904296875 26.580078125 32.650390625 205.919921875 rrcurveto
            return
          </CharString>
          <CharString index="246">
            11.369140625 -30.1103515625 rlineto
            34.640625 17.9599609375 26.3095703125 21.3203125 42.0205078125 0.669921875 rrcurveto
            return
          </CharString>
          <CharString index="247">
            35.009765625 0.669921875 19.900390625 -46.8701171875 51.3798828125 -0.669921875 43.33984375 -0.669921875 37.349609375 33.6904296875 41.6806640625 28.9794921875 rrcurveto
            -11.7001953125 30.4501953125 rlineto
            -12.6005859375 -8.9501953125 -60.759765625 -31.990234375 -28.9501953125 0.669921875 rrcurveto
            return
          </CharString>
          <CharString index="248">
            -29.3193359375 0.669921875 -29.5908203125 44.1904296875 -46.369140625 2.009765625 rrcurveto
            -40.3408203125 0 -40.349609375 -30.009765625 -43.01953125 -32.009765625 rrcurveto
            return
          </CharString>
          <CharString index="249">
            -39 -239 105.400390625 -26 136 0 121 0 102.69921875 32 37 233 rrcurveto
            49 310 -58.5 0 -49 -310 rlineto
            -26.9892578125 -168.9296875 -64.6708984375 -38.5703125 -112.19921875 0 -128.55078125 0 -41.6796875 36.259765625 27.990234375 171.240234375 rrcurveto
            49 310 -58.5 0 rlineto
            return
          </CharString>
          <CharString index="250">
            -3.33984375 -22.060546875 15.0400390625 -18.0498046875 22.0595703125 0 22.060546875 0 20.0595703125 18.0498046875 3.33984375 22.060546875 3.33984375 22.0595703125 -14.0390625 17.0498046875 -22.060546875 0 -22.0595703125 0 -21.060546875 -17.0498046875 -3.33984375 -22.0595703125 rrcurveto
            return
          </CharString>
          <CharString index="251">
            -22 -138 -1.669921875 -175.040039062 181 0 77 0 86.0703125 13.6904296875 60 11 rrcurveto
            6.689453125 42.8095703125 rlineto
            0 0 -147.399414062 -8 -73 -2 -119.290039062 1.33984375 -11.5302734375 102.41015625 21.9599609375 137.75 22.6396484375 144.5 50.5703125 81 108.9296875 0 65 0 138.400390625 -7 15 -3 rrcurveto
            6.689453125 44.150390625 rlineto
            -49 12 -123.729492188 11.349609375 -43 0 -170 0 -56.330078125 -123.959960938 -23 -145 rrcurveto
            return
          </CharString>
          <CharString index="252">
            156.950195312 -380 -30 -191 57.5 0 30 191 274.950195312 380 -66.1806640625 0 -230.830078125 -315.139648438 -131.219726562 315.139648438 rlineto
            return
          </CharString>
          <CharString index="253">
            87.9501953125 -130 54.5 0 142.94921875 130 -59.5390625 0 -107.490234375 -93.5595703125 -69.2099609375 93.5595703125 rlineto
            return
          </CharString>
          <CharString index="254">
            237.099609375 hlineto
            60 0 162.30078125 -7.3798828125 42.029296875 279.689453125 20.98046875 145.770507812 -24.25 151.919921875 -169.73046875 2 rrcurveto
            -237.4296875 hlineto
            return
          </CharString>
          <CharString index="255">
            72.279296875 457 179.600585938 0 rlineto
            98.189453125 0 52.3203125 -64.990234375 -25.3203125 -166.509765625 -17.9892578125 -121.879882812 -50.2705078125 -103.620117188 -129.209960938 0 rrcurveto
            return
          </CharString>
          <CharString index="256">
            -8.330078125 -51.3193359375 -32.009765625 -260.0703125 207 1 60 0 76.6396484375 20.2998046875 58 34 rrcurveto
            return
          </CharString>
          <CharString index="257">
            6.0205078125 -47.2998046875 42.1396484375 0 48.669921875 308 rlineto
            -24 2 -21 1 -21 0 rrcurveto
            return
          </CharString>
          <CharString index="258">
            -81 0 -41.580078125 -10.3701171875 -52.5595703125 -9.6796875 rrcurveto
            -6.0205078125 -37.4501953125 rlineto
            return
          </CharString>
          <CharString index="259">
            181.30078125 0 -23.6201171875 -148.700195312 rlineto
            -25 -17 -86.9599609375 -37.9697265625 -81 0 -117 0 -18.140625 128.169921875 17.2802734375 110 29.3203125 183.58984375 46.240234375 49.91015625 116.909179688 0 90.6904296875 0 73.7802734375 -7.66015625 61 -6 rrcurveto
            7.359375 46.16015625 rlineto
            -58.9697265625 12.650390625 -121.830078125 12.349609375 -43 0 rrcurveto
            -172 0 -57.669921875 -91.6103515625 -29.66015625 -184 rrcurveto
            return
          </CharString>
          <CharString index="260">
            -1.7060546875 -11.689453125 7.4189453125 -7.6796875 11.689453125 0 rrcurveto
            37.1298828125 hlineto
            11.6904296875 0 8.55859375 6.6796875 1.7587890625 12.689453125 rrcurveto
            9.2705078125 56.640625 rlineto
            1.7060546875 11.689453125 -5.0791015625 9.0205078125 -12.689453125 0 rrcurveto
            -37.130859375 hlineto
            -13.359375 0 -8.2294921875 -8.0205078125 -1.7578125 -12.689453125 rrcurveto
            return
          </CharString>
          <CharString index="261">
            -1.705078125 -11.6904296875 7.41796875 -7.6796875 11.6904296875 0 rrcurveto
            37.1298828125 hlineto
            11.6904296875 0 8.55859375 6.6796875 1.7578125 12.6904296875 rrcurveto
            9.271484375 56.6396484375 rlineto
            1.7060546875 11.6904296875 -5.0791015625 9.01953125 -12.6904296875 0 rrcurveto
            -37.1298828125 hlineto
            -13.3603515625 0 -8.228515625 -8.01953125 -1.7578125 -12.6904296875 rrcurveto
            return
          </CharString>
          <CharString index="262">
            142.650390625 -732 60.7998046875 0 198.649414062 381.259765625 72.55078125 -381.259765625 60.7998046875 0 380.049804688 732 -62.849609375 0 -334.880859375 -647.030273438 -71.5390625 378.860351562 136.599609375 268.169921875 -64.8603515625 0 -334.549804688 -642.6796875 -125.25 642.6796875 rlineto
            return
          </CharString>
          <CharString index="263">
            -1.7060546875 -11.6904296875 7.4189453125 -7.6796875 11.689453125 0 rrcurveto
            37.1298828125 hlineto
            11.6904296875 0 8.55859375 6.6796875 1.7578125 12.6904296875 rrcurveto
            9.271484375 56.6396484375 rlineto
            1.7060546875 11.6904296875 -5.0791015625 9.01953125 -12.6904296875 0 rrcurveto
            -37.1298828125 hlineto
            -13.359375 0 -8.2294921875 -8.01953125 -1.7578125 -12.6904296875 rrcurveto
            return
          </CharString>
          <CharString index="264">
            127.969726562 -531 63.5205078125 0 155.91015625 286.599609375 64.599609375 -286.599609375 57.8203125 0 249.639648438 439.330078125 rlineto
            13.3701171875 23.7294921875 9.8896484375 36.5908203125 -10.009765625 31.6796875 rrcurveto
            -41.7998046875 hlineto
            -5.33984375 -34.0302734375 -12.2802734375 -22.9296875 -12.669921875 -25.0205078125 rrcurveto
            -209.83984375 -371.109375 -61.58984375 278.899414062 40.2197265625 79.5205078125 rlineto
            12.0302734375 24.3994140625 11.2294921875 35.9208984375 -10.009765625 31.6796875 rrcurveto
            -41.1298828125 hlineto
            -5.33984375 -34.0302734375 -12.2802734375 -22.599609375 -12.669921875 -25.0205078125 rrcurveto
            -204.16015625 -372.129882812 -109.580078125 456.120117188 rlineto
            return
          </CharString>
          <CharString index="265">
            -1.7060546875 -11.6904296875 7.4189453125 -7.6796875 11.6904296875 0 rrcurveto
            37.1298828125 hlineto
            11.689453125 0 8.5595703125 6.6796875 1.7578125 12.6904296875 rrcurveto
            9.2705078125 56.6396484375 rlineto
            1.7060546875 11.6904296875 -5.078125 9.01953125 -12.6904296875 0 rrcurveto
            -37.1298828125 hlineto
            -13.3603515625 0 -8.228515625 -8.01953125 -1.7578125 -12.6904296875 rrcurveto
            return
          </CharString>
          <CharString index="266">
            125.669921875 -570 58.1796875 0 158.510742188 306.049804688 70.94921875 -306.049804688 56.8408203125 0 296.989257812 570 -62.509765625 0 -252.870117188 -483.440429688 -67.9501953125 295.380859375 95.6904296875 188.059570312 -62.509765625 0 -253.209960938 -484.099609375 -104.610351562 484.099609375 rlineto
            return
          </CharString>
          <CharString index="267">
            57.5 0 102.330078125 646.650390625 rlineto
            5.9697265625 36.1396484375 42.759765625 6.650390625 6.640625 -30.8408203125 rrcurveto
            154.509765625 -594.540039062 rlineto
            27.3798828125 -103.719726562 129.98046875 13.6298828125 15.669921875 104.379882812 rrcurveto
            100.990234375 653.650390625 -57.5 0 -102.66015625 -646.959960938 rlineto
            -6.640625 -36.8603515625 -41.41015625 -5.919921875 -7.6396484375 34.830078125 rrcurveto
            -156.860351562 601.919921875 rlineto
            -21.689453125 84.310546875 -134.33984375 -8.310546875 -13.66015625 -101.689453125 rrcurveto
            return
          </CharString>
          <CharString index="268">
            188.309997559 hlineto
            52.0099945068 1.52587890625e-05 25.8699951172 -17.0100097656 -8.65000915527 -52.8899993896 rrcurveto
            -3.33000183105 -26.6199951172 rlineto
            -6 -43.3000030518 -39.8800048828 -24.9700012207 -50.6100006104 -2 rrcurveto
            -141.020004272 -5.33999633789 -6.02000427246 -35.4600067139 141.660003662 -4.66999816895 rlineto
            40.6099853516 -1.00001525879 37.5899963379 -20.9599914551 -8.32998657227 -53.9700012207 rrcurveto
            -3.66999816895 -23 rlineto
            -8.97999572754 -56.5399932861 -37.6499938965 -18.9799957275 -52.5200042725 0 rrcurveto
            0 -154.899993896 -0.669998168945 -21.4400024414 vhcurveto
            return
          </CharString>
          <CharString index="269">
            57.5 0 70.3095703125 443.849609375 rlineto
            94 33 43.9306640625 5.650390625 71 0 62.5498046875 0 37.2998046875 -42.2099609375 -10.990234375 -70.2900390625 rrcurveto
            -59 -370 57.5 0 59 370 rlineto
            14 88 -45 82 -106 0 -108 0 -44.099609375 -13 -118 -44 rrcurveto
            return
          </CharString>
          <CharString index="270">
            57.5 0 70.3095703125 443.849609375 rlineto
            105 37 80.9306640625 8.640625 100 -9.66015625 rrcurveto
            9.359375 58.169921875 rlineto
            -161 14 -74.279296875 -25.2900390625 -111.8203125 -43.7099609375 rrcurveto
            return
          </CharString>
          <CharString index="271">
            -31.01953125 -205.51953125 67.0693359375 -70.8408203125 115.620117188 0 34.98046875 0 195.9296875 12.7099609375 16.830078125 2.640625 rrcurveto
            64.9599609375 480.620117188 rlineto
            -45.259765625 18.609375 -86.970703125 28.400390625 -86.099609375 0 -156.349609375 0 -64.0205078125 -80.48046875 -25.669921875 -186.139648438 rrcurveto
            return
          </CharString>
          <CharString index="272">
            22.650390625 164.350585938 48.609375 55.4794921875 110.600585938 0 50.5498046875 0 53.3603515625 -10.669921875 62.5791015625 -14.2998046875 rrcurveto
            -57.25 -401 rlineto
            0 -146.029296875 -4.0205078125 -49.580078125 vhcurveto
            -89.1796875 0 -26.30078125 63.7802734375 19.990234375 146.379882812 rrcurveto
            return
          </CharString>
          <CharString index="273">
            -14 -88 46 -82 106 0 108 0 55.830078125 4.9599609375 101.919921875 31.9404296875 rrcurveto
            79.349609375 503.099609375 -57.5 0 -72.9892578125 -460.599609375 rlineto
            -63.1806640625 -15.580078125 -72.0693359375 -6.3203125 -71 0 -62.5498046875 0 -37.30078125 42.2099609375 10.990234375 70.2900390625 rrcurveto
            59 370 -57.5 0 rlineto
            return
          </CharString>
          <CharString index="274">
            -3.33984375 -22.060546875 15.0400390625 -18.0498046875 22.0595703125 0 22.0595703125 0 20.060546875 18.0498046875 3.33984375 22.060546875 3.33984375 22.0595703125 -14.0400390625 17.0498046875 -22.0595703125 0 -22.060546875 0 -21.0595703125 -17.0498046875 -3.33984375 -22.0595703125 rrcurveto
            return
          </CharString>
          <CharString index="275">
            17.9599914551 111.420013428 25.8800048828 109.080001831 117.300003052 0 74 0 35.9400024414 -5.97999572754 80 -21 rrcurveto
            -64.6199951172 -405.020004272 -193.600006104 0 rlineto
            -111.289993286 1.52587890625e-05 4.4700012207 124.080001831 13.9600067139 87.4199981689 rrcurveto
            return
          </CharString>
        <CharString name=".notdef">
          192 0 13 505 13 hstem
          100 14 530 14 vstem
          100 hmoveto
          558 531 -558 hlineto
          14 -509 rmoveto
          0 485 256 -241 rlineto
          -246 252 rmoveto
          511 0 -254 -242 rlineto
          -254 -263 rmoveto
          254 243 253 -243 rlineto
          -242 253 rmoveto
          252 240 0 -481 rlineto
          endchar
        </CharString>
        <CharString name="A">
          88 21 -21 21 -21 220.169998169 57.5 454.330001831 -20 hstemhm
          hintmask 10110000
          45 hmoveto
          63.5099945068 0 116.580001831 220.169998169 308.880004883 0 42.9600067139 -220.169998169 58.1699981689 0 -142.649993896 732 -60.8000030518 0 rlineto
          -176.13999939 -454.330001831 rmoveto
          196.839996338 377.059997559 70.5899963379 -377.059997559 rlineto
          endchar
        </CharString>
        <CharString name="AE">
          346 -4.33999633789 57.5 -42.8099975586 42.8099975586 184.099990845 57.5 34.1300048828 60.8500061035 -52.5 44.1499938965 292.440002441 58.1699981689 -58.1699981689 44.1499938965 hstemhm
          hintmask 10100000
          30 hmoveto
          66.8500061035 0 166.839996338 237.259994507 220.13999939 0 -17.6499938965 -116.259994507 rlineto
          -15.3199920654 -100.270004272 68.6199951172 -28.4099884033 65.6699981689 3.33999633789 rrcurveto
          hintmask 01100000
          290.199996948 14.6900024414 7.36000061035 42.8099975586 rlineto
          hintmask 10110000
          -290.5 hlineto
          -37.5799865723 0 -41.2600097656 2.62998962402 10.3099975586 65.870010376 rrcurveto
          32.9799957275 207.229995728 rlineto
          hintmask 00101000
          331.009994507 8.35000610352 7.02000427246 44.1499938965 rlineto
          hintmask 00110100
          -328.330001831 8.35000610352 33.6600036621 210.300003052 rlineto
          7.98001098633 42.8399963379 0.0399932861328 30.9499969482 70.4400024414 0 rrcurveto
          hintmask 00100010
          302.509994507 0 6.69000244141 44.1499938965 rlineto
          hintmask 10100100
          -299.839996338 14.0200042725 rlineto
          -91.9100036621 1.64999389648 -57.4599914551 -5.11999511719 -89.7200012207 -129.149993896 rrcurveto
          -146.970001221 -304.620010376 rmoveto
          249.399993896 350.850006104 -57.3200073242 -350.850006104 rlineto
          endchar
        </CharString>
        <CharString name="Aacute">
          88 0 21 199.169998169 57.5 434.330001831 20 65 133 hstem
          447.083999634 204.850006104 vstem
          447.083984375 797 rmoveto
          -39 callsubr
          -534.704101562 -930 rmoveto
          -41 callsubr
          -176.140625 -454.330078125 rmoveto
          -40 callsubr
          endchar
        </CharString>
        <CharString name="Abreve">
          88 0 21 199.169998169 57.5 434.330001831 20 65 35.4400024414 hstem
          376.580001831 35.4400024414 157.11000061 35.4400024414 vstem
          376.580078125 911 rmoveto
          58 callsubr
          -367.01953125 -911 rmoveto
          -41 callsubr
          -176.140625 -454.330078125 rmoveto
          -40 callsubr
          endchar
        </CharString>
        <CharString name="Acircumflex">
          88 0 21 199.169998169 57.5 434.330001831 20 65 130 hstem
          329.809005737 285.399993896 vstem
          329.80859375 797 rmoveto
          -38 callsubr
          -427.758789062 -927 rmoveto
          -41 callsubr
          -176.140625 -454.330078125 rmoveto
          -40 callsubr
          endchar
        </CharString>
        <CharString name="Adieresis">
          88 0 21 199.169998169 57.5 434.330001831 20 65 79.2200012207 hstem
          311.755004883 79.2200012207 175.779998779 79.2200012207 vstem
          311.754882812 837.110351562 rmoveto
          -34 callsubr
          255 hmoveto
          -34 callsubr
          -521.754882812 -837.110351562 rmoveto
          -41 callsubr
          -176.140625 -454.330078125 rmoveto
          -40 callsubr
          endchar
        </CharString>
        <CharString name="Agrave">
          88 0 21 199.169998169 57.5 434.330001831 20 65 133 hstem
          327.044006348 170.88999939 vstem
          327.043945312 930 rmoveto
          -42 callsubr
          -348.9140625 -930 rmoveto
          -41 callsubr
          -176.140625 -454.330078125 rmoveto
          -40 callsubr
          endchar
        </CharString>
        <CharString name="Amacron">
          88 0 21 199.169998169 57.5 434.330001831 20 65 47.1600036621 hstem
          333.166000366 286.160003662 vstem
          333.166015625 797 rmoveto
          92 callsubr
          -295.526367188 -844.16015625 rmoveto
          -41 callsubr
          -176.140625 -454.330078125 rmoveto
          -40 callsubr
          endchar
        </CharString>
        <CharString name="Aogonek">
          246 -181 44.8200073242 116.179992676 20 0 21 199.169998169 57.5 434.330001831 20 hstemhm
          hintmask 11000000
          695.639648438 hmoveto
          36 callsubr
          hintmask 00111000
          -578.73046875 hmoveto
          -41 callsubr
          -176.140625 -454.330078125 rmoveto
          -40 callsubr
          endchar
        </CharString>
        <CharString name="Aring">
          88 0 21 199.169998169 57.5 434.330001831 20 -1.83299255371 37.1100006104 130.779998779 37.1100006104 hstemhm
          377.860992432 203 hintmask 00011100
          377.861328125 832.166992188 rmoveto
          -33 callsubr
          36.439453125 hmoveto
          4.3994140625 35.9404296875 33.064453125 29.94921875 35.9404296875 0 35.939453125 0 25.505859375 -29.94921875 -4.3994140625 -35.9404296875 -4.3984375 -35.9404296875 -32.0068359375 -28.94921875 -35.939453125 0 -35.9404296875 0 -26.5625 28.94921875 4.3974609375 35.9404296875 rrcurveto
          hintmask 11100000
          -369.30078125 -832.166992188 rmoveto
          -41 callsubr
          -176.140625 -454.330078125 rmoveto
          -40 callsubr
          endchar
        </CharString>
        <CharString name="Atilde">
          88 0 21 199.169998169 57.5 434.330001831 20 65.6699981689 52.1800994873 -5.31010437012 52.1799926758 hstemhm
          hintmask 00001000
          308.961914062 834.700195312 rmoveto
          -37 callsubr
          hintmask 00000000
          -36 callsubr
          hintmask 00001000
          -35 callsubr
          hintmask 11100000
          -263.961914062 -834.700195312 rmoveto
          -41 callsubr
          -176.140625 -454.330078125 rmoveto
          -40 callsubr
          endchar
        </CharString>
        <CharString name="B">
          28 0 57.8300018311 297.089996338 57.5 262.080001831 57.5 hstem
          80 hmoveto
          273.100006104 hlineto
          154 0 57.6799926758 89.6399993896 14.6600036621 110.039993286 15.3199920654 114.670013428 -62.25 60.3199920654 -33.2899932861 6.65000915527 59.3099975586 13.0299987793 58.9100036621 52.2399902344 12.9899902344 98.6800079346 12.3100128174 91.5899963379 -26.9800109863 95.1399993896 -146.659988403 0 rrcurveto
          -273.100006104 hlineto
          -48.4700012207 -674.169998169 rmoveto
          46.9600067139 297.089996338 214.929992676 0 rlineto
          86.6399841309 0.65998840332 38.5299987793 -70.3000030518 -12.9899902344 -79.9400024414 -20.6500091553 -129.229995728 -80.2599945068 -18.2799987793 -58.2299957275 0 rrcurveto
          -158.61000061 354.589996338 rmoveto
          41.6300048828 262.080001831 215.600006104 0 rlineto
          79.1800079346 0 49.6399993896 -23.6199951172 -17.9700012207 -104.590011597 -15.3099975586 -87.2799987793 -56.8999938965 -46.5899963379 -80.9400024414 0 rrcurveto
          endchar
        </CharString>
        <CharString name="C">
          7 -6 57.5 631 57.5 hstem
          115.660003662 370.63999939 rmoveto
          -29.9800109863 -184.850021362 28.3100128174 -191.789993286 187.679992676 0 60.7100067139 0 97.0199890137 2.9700012207 80.7100067139 19.6999969482 rrcurveto
          6.02000427246 44.1499938965 rlineto
          -95.1399993896 -6.70001220703 -80.8600006104 -4.62998962402 -64.1300048828 2.00999450684 -128.550003052 6.0299987793 -34.9299926758 124.690002441 30.6399993896 183.779998779 46.6799926758 296.080001831 104.440002441 19.75 85.3600006104 0.669998168945 94.0099945068 1.33999633789 121.680007935 -14 15.0699920654 -2.00999450684 rrcurveto
          6.69000244141 44.1499938965 rlineto
          -68 12.9999847412 -110.759994507 15.0200042725 -52 0 -200.320007324 0 -62.3399963379 -136.679992676 -38.0099945068 -232.680007935 rrcurveto
          endchar
        </CharString>
        <CharString name="Cacute">
          7 -6 57.5 631 57.5 60 133 hstem
          412.742004395 204.850006104 vstem
          412.7421875 800 rmoveto
          -39 callsubr
          -429.702148438 -562.360351562 rmoveto
          60 callsubr
          endchar
        </CharString>
        <CharString name="Ccaron">
          7 -6 57.5 631 57.5 60 130 hstem
          321.899993896 285.399993896 vstem
          321.900390625 930 rmoveto
          47 callsubr
          -255.399414062 -559.360351562 rmoveto
          60 callsubr
          endchar
        </CharString>
        <CharString name="Ccedilla">
          7 -172.669998169 27.1000061035 139.569992065 57.5 631 57.5 hstem
          307.220001221 50.5 vstem
          115.660003662 370.63999939 rmoveto
          -29.9800109863 -184.850021362 28.3100128174 -191.789993286 187.679992676 0 60.7100067139 0 97.0199890137 2.9700012207 80.7100067139 19.6999969482 rrcurveto
          6.02000427246 44.1499938965 rlineto
          -95.1399993896 -6.70001220703 -80.8600006104 -4.62998962402 -64.1300048828 2.00999450684 -128.550003052 6.0299987793 -33.5899963379 124.690002441 30.6399993896 183.779998779 46.6799926758 296.080001831 103.100006104 19.75 85.3600006104 0.669998168945 94.0099945068 1.33999633789 121.680007935 -14 15.0699920654 -2.00999450684 rrcurveto
          6.69000244141 44.1499938965 rlineto
          -68 12.9999847412 -110.759994507 15.0200042725 -52 0 -200.320007324 0 -62.3399963379 -136.679992676 -38.0099945068 -232.680007935 rrcurveto
          74.9899902344 -543.309997559 rmoveto
          44.3999938965 hlineto
          80.9900054932 1.52587890625e-05 25.6800079346 34.6600036621 16 101.339996338 0 0 -31.7400054932 -0.669998168945 -18.7599945068 0.669998168945 -8.9700012207 -61.1000061035 -16.5899963379 -28.0999908447 -38.9199981689 -8 rrcurveto
          -47.7400054932 -11.6999969482 rlineto
          endchar
        </CharString>
        <CharString name="Ccircumflex">
          7 -6 57.5 631 57.5 60 130 hstem
          296.697006226 285.399993896 vstem
          296.697265625 800 rmoveto
          74 callsubr
          -323.987304688 -559.360351562 rmoveto
          60 callsubr
          endchar
        </CharString>
        <CharString name="Cdotaccent">
          7 -6 57.5 631 57.5 60 96.7200012207 hstem
          387.348098755 85.8108978271 vstem
          387.34765625 819.370117188 rmoveto
          73 callsubr
          -280.958984375 -505.370117188 rmoveto
          60 callsubr
          endchar
        </CharString>
        <CharString name="D">
          98 0 59.5099945068 614.990005493 57.5 hstem
          80 hmoveto
          268.380004883 hlineto
          187.679992676 0 91.0100097656 154.289993286 36.6699981689 206.070007324 23.9799957275 130.910003662 -0.320007324219 240.729995728 -225.329986572 0 rrcurveto
          -40.200012207 -225.869995117 0 -0.669998168945 hvcurveto
          -49.1399993896 -671.820007324 rmoveto
          97.2799987793 614.990005493 208.240005493 0 rlineto
          134.25 0 54.5800018311 -96.9499969482 -34.6399993896 -213.550003052 -24.3300018311 -148.669998169 -78.6600036621 -155.820007324 -147.160003662 0 rrcurveto
          endchar
        </CharString>
        <CharString name="Dcaron">
          98 0 59.5099945068 614.990005493 57.5 61.6499938965 130 hstem
          335.722000122 285.399993896 vstem
          335.721679688 923.650390625 rmoveto
          61 callsubr
          -294.162109375 -923.650390625 rmoveto
          268.379882812 hlineto
          187.680664062 0 91.009765625 154.290039062 36.669921875 206.0703125 23.98046875 130.909179688 -0.3203125 240.73046875 -225.330078125 0 rrcurveto
          -40.2001953125 -225.870117188 0 -0.669921875 hvcurveto
          -49.1396484375 -671.8203125 rmoveto
          97.2802734375 614.990234375 208.239257812 0 rlineto
          134.25 0 54.580078125 -96.9501953125 -34.6396484375 -213.549804688 -24.330078125 -148.669921875 -78.66015625 -155.8203125 -147.16015625 0 rrcurveto
          endchar
        </CharString>
        <CharString name="Dcroat">
          107 0 59.5099945068 293.090011597 40.8000030518 281.099990845 57.5 hstem
          86.400390625 352.599609375 rmoveto
          65 0 -55.990234375 -352.599609375 268.379882812 0 rlineto
          187.6796875 0 92.0107421875 154.290039062 36.669921875 206.0703125 23.9794921875 130.909179688 -1.3203125 240.73046875 -225.329101562 0 rrcurveto
          -40.2001953125 -225.870117188 0 -0.669921875 hvcurveto
          -53.3203125 -337.9296875 -65 0 rlineto
          69.1796875 -333.890625 rmoveto
          46.630859375 293.08984375 145.599609375 0 6.6904296875 40.80078125 -145.600585938 0 43.9599609375 281.099609375 208.240234375 0 rlineto
          134.25 0 54.580078125 -96.9501953125 -34.6396484375 -213.549804688 -24.330078125 -148.669921875 -78.66015625 -155.8203125 -147.16015625 0 rrcurveto
          endchar
        </CharString>
        <CharString name="E">
          -1 -3 57.5 -42.8099975586 42.8099975586 277.740005493 60.8500061035 -52.5000152588 44.1499938965 289.760009766 57.5 -57.5 43.4799957275 hstemhm
          hintmask 10000000
          98 124.649993896 rmoveto
          -15.9900054932 -100.269989014 65.9900054932 -30.7200012207 66 3.33999633789 rrcurveto
          hintmask 01000000
          303.070007324 14.6900024414 7.36000061035 42.8099975586 rlineto
          hintmask 10100000
          -300.399993896 hlineto
          -37.5800018311 0 -40.5899963379 2.63000488281 9.63999938965 65.8699951172 rrcurveto
          33.3200073242 209.240005493 rlineto
          hintmask 00010000
          339.899993896 8.35000610352 7.36000061035 44.1499938965 rlineto
          hintmask 00101000
          -337.899993896 8.35000610352 33.3200073242 208.910003662 rlineto
          6.63999938965 42.8399963379 20.8800048828 29.6600036621 52.6199951172 0 rrcurveto
          hintmask 00000100
          310.399993896 0 6.69000244141 43.4799957275 rlineto
          hintmask 10001000
          -308.059997559 14.0200042725 rlineto
          -72.0400085449 3.33999633789 -58.6300048828 -33.6900024414 -16 -98 rrcurveto
          endchar
        </CharString>
        <CharString name="Eacute">
          -1 -3 57.5 -42.8099975586 42.8099975586 277.740005493 60.8500061035 -52.5000152588 44.1499938965 289.760009766 43.4799957275 -43.4799957275 57.5 60 133 hstemhm
          401.300003052 204.850006104 hintmask 00000011
          401.299804688 792 rmoveto
          -24 callsubr
          hintmask 10000000
          -435.919921875 -800.349609375 rmoveto
          -31 callsubr
          hintmask 01000000
          -30 callsubr
          hintmask 10100000
          -29 callsubr
          hintmask 00010000
          -28 callsubr
          hintmask 00100100
          -27 callsubr
          hintmask 00001000
          -26 callsubr
          hintmask 10000100
          -25 callsubr
          endchar
        </CharString>
        <CharString name="Ecaron">
          -1 -3 57.5 -42.8099975586 42.8099975586 277.740005493 60.8500061035 -52.5000152588 44.1499938965 289.760009766 43.4799957275 -43.4799957275 57.5 65 130 hstemhm
          322.99899292 285.399993896 hintmask 00000011
          322.999023438 927 rmoveto
          39 callsubr
          hintmask 10000000
          -274.159179688 -802.349609375 rmoveto
          -31 callsubr
          hintmask 01000000
          -30 callsubr
          hintmask 10100000
          -29 callsubr
          hintmask 00010000
          -28 callsubr
          hintmask 00100100
          -27 callsubr
          hintmask 00001000
          -26 callsubr
          hintmask 10000100
          -25 callsubr
          endchar
        </CharString>
        <CharString name="Ecircumflex">
          -1 -3 57.5 -42.8099975586 42.8099975586 277.740005493 60.8500061035 -52.5000152588 44.1499938965 289.760009766 43.4799957275 -43.4799957275 57.5 60 130.669998169 hstemhm
          287.970001221 285.399993896 hintmask 00000011
          287.969726562 792 rmoveto
          62.220703125 0 105.479492188 91.5498046875 65.8603515625 -91.5498046875 51.83984375 0 -87.9501953125 130.669921875 -54.5 0 rlineto
          hintmask 10000000
          -332.919921875 -798.01953125 rmoveto
          -31 callsubr
          hintmask 01000000
          -30 callsubr
          hintmask 10100000
          -29 callsubr
          hintmask 00010000
          -28 callsubr
          hintmask 00100100
          -27 callsubr
          hintmask 00001000
          -26 callsubr
          hintmask 10000100
          -25 callsubr
          endchar
        </CharString>
        <CharString name="Edieresis">
          -1 -3 57.5 -42.8099975586 42.8099975586 277.740005493 60.8500061035 -52.5000152588 44.1499938965 289.760009766 43.4799957275 -43.4799957275 57.5 70.8899993896 79.2200012207 hstemhm
          263.570007324 79.2200012207 175.779998779 79.2200012207 hintmask 0000001110000000
          263.5703125 843 rmoveto
          -23 callsubr
          255 hmoveto
          -23 callsubr
          hintmask 1000000000000000
          -420.5703125 -718.349609375 rmoveto
          -31 callsubr
          hintmask 0100000000000000
          -30 callsubr
          hintmask 1010000000000000
          -29 callsubr
          hintmask 0001000000000000
          -28 callsubr
          hintmask 0010010000000000
          -27 callsubr
          hintmask 0000100000000000
          -26 callsubr
          hintmask 1000010000000000
          -25 callsubr
          endchar
        </CharString>
        <CharString name="Edotaccent">
          -1 -3 57.5 -42.8099975586 42.8099975586 277.740005493 60.8500061035 -52.5000152588 44.1499938965 289.760009766 43.4799957275 -43.4799957275 57.5 65 96.7200012207 hstemhm
          397.409103394 85.8108978271 hintmask 00000011
          397.409179688 816.370117188 rmoveto
          -1.7060546875 -11.6904296875 7.4189453125 -7.6796875 11.689453125 0 rrcurveto
          37.130859375 hlineto
          11.689453125 0 8.5595703125 6.6796875 1.7578125 12.6904296875 rrcurveto
          9.2705078125 56.6396484375 rlineto
          1.7060546875 11.6904296875 -5.0791015625 9.01953125 -12.689453125 0 rrcurveto
          -37.1298828125 hlineto
          -13.3603515625 0 -8.228515625 -8.01953125 -1.7587890625 -12.6904296875 rrcurveto
          hintmask 10000000
          -308.6796875 -748.359375 rmoveto
          -31 callsubr
          hintmask 01000000
          -30 callsubr
          hintmask 10100000
          -29 callsubr
          hintmask 00010000
          -28 callsubr
          hintmask 00100100
          -27 callsubr
          hintmask 00001000
          -26 callsubr
          hintmask 10000100
          -25 callsubr
          endchar
        </CharString>
        <CharString name="Egrave">
          -1 -3 57.5 -42.8099975586 42.8099975586 277.740005493 60.8500061035 -52.5000152588 44.1499938965 289.760009766 43.4799957275 -43.4799957275 57.5 60 133 hstemhm
          289.229995728 170.88999939 hintmask 00000011
          289.23046875 925 rmoveto
          -32 callsubr
          hintmask 10000000
          -258.099609375 -800.349609375 rmoveto
          -31 callsubr
          hintmask 01000000
          -30 callsubr
          hintmask 10100000
          -29 callsubr
          hintmask 00010000
          -28 callsubr
          hintmask 00100100
          -27 callsubr
          hintmask 00001000
          -26 callsubr
          hintmask 10000100
          -25 callsubr
          endchar
        </CharString>
        <CharString name="Emacron">
          -1 -3 57.5 -42.8099975586 42.8099975586 277.740005493 60.8500061035 -52.5000152588 44.1499938965 289.760009766 43.4799957275 -43.4799957275 57.5 61.6499938965 47.1600036621 hstemhm
          285.785003662 286.160003662 hintmask 00000011
          285.78515625 793.650390625 rmoveto
          278.799804688 0 7.3603515625 47.1591796875 -278.80078125 0 rlineto
          hintmask 10000000
          -195.14453125 -716.159179688 rmoveto
          -31 callsubr
          hintmask 01000000
          -30 callsubr
          hintmask 10100000
          -29 callsubr
          hintmask 00010000
          -28 callsubr
          hintmask 00100100
          -27 callsubr
          hintmask 00001000
          -26 callsubr
          hintmask 10000100
          -25 callsubr
          endchar
        </CharString>
        <CharString name="Eng">
          81 -257 44.1300048828 233.869995117 -21 21 -21 732 -20 hstemhm
          hintmask 11010000
          80 hmoveto
          58.5 0 98.6199951172 623.699996948 288.550003052 -619.679992676 -12.3300018311 -78.9700012207 rlineto
          -20.6499938965 -130.229980469 -71.7600097656 6.32998657227 -69.9099884033 -14.0199890137 rrcurveto
          -7.02000427246 -44.1300048828 rlineto
          118 0 83.5 21 24 152 rrcurveto
          13.6699981689 86.6799926758 115.330001831 729.320007324 -57.5 0 -98.6199951172 -623.699996948 -289.88999939 623.699996948 -56.4900054932 0 rlineto
          endchar
        </CharString>
        <CharString name="Eogonek">
          -5 -169.327194214 44.8200073242 116.179992676 20 -14.6728057861 57.5 -42.8099975586 42.8099975586 277.740005493 60.8500061035 -52.5000152588 44.1499938965 289.760009766 43.4799957275 -43.4799957275 57.5 hstemhm
          hintmask 11000000
          490.103515625 11.6728515625 rmoveto
          36 callsubr
          hintmask 00100000
          -418.844726562 112.977539062 rmoveto
          -15.9892578125 -100.270507812 65.9892578125 -30.7197265625 66 3.33984375 rrcurveto
          hintmask 00010000
          303.0703125 14.6904296875 7.3603515625 42.8095703125 rlineto
          hintmask 00101000
          -300.400390625 hlineto
          -37.580078125 0 -40.58984375 2.6298828125 9.6396484375 65.8701171875 rrcurveto
          33.3203125 209.240234375 rlineto
          hintmask 00000100
          339.900390625 8.349609375 7.359375 44.150390625 rlineto
          hintmask 00001001
          -337.899414062 8.349609375 33.3193359375 208.91015625 rlineto
          6.640625 42.83984375 20.8798828125 29.66015625 52.6201171875 0 rrcurveto
          hintmask 00000010
          310.399414062 0 6.6904296875 43.48046875 rlineto
          hintmask 00100001
          -308.060546875 14.01953125 rlineto
          -72.0390625 3.33984375 -58.630859375 -33.689453125 -16 -98 rrcurveto
          endchar
        </CharString>
        <CharString name="Eth">
          107 0 59.5099945068 293.090011597 40.8000030518 281.099990845 57.5 hstem
          69.9900054932 352.600006104 rmoveto
          65 0 -55.9900054932 -352.600006104 268.380004883 0 rlineto
          187.679992676 0 92.0100097656 154.289993286 36.6699981689 206.070007324 23.9799957275 130.910003662 -1.32000732422 240.729995728 -225.329986572 0 rrcurveto
          -40.200012207 -225.869995117 0 -0.669998168945 hvcurveto
          -53.3200073242 -337.929992676 -65 0 rlineto
          69.1800079346 -333.88999939 rmoveto
          46.6300048828 293.089996338 145.600006104 0 6.69000244141 40.8000030518 -145.600006104 0 43.9600067139 281.100006104 208.240005493 0 rlineto
          134.25 0 54.5800018311 -96.9499969482 -34.6399993896 -213.550003052 -24.3300018311 -148.669998169 -78.6600036621 -155.820007324 -147.160003662 0 rrcurveto
          endchar
        </CharString>
        <CharString name="Euro">
          155 -6 57.5 209.11000061 36.1100006104 126.229995728 33.1000061035 226.449996948 57.5 hstem
          70 260.61000061 rmoveto
          87 -6.00999450684 rlineto
          -35.6699981689 -230.620010376 153.330001831 -29.9799957275 77.3300018311 0 83.6599884033 0 73.1300048828 8.69999694824 84.6699981689 21.6800079346 rrcurveto
          7.02000427246 42.4700012207 rlineto
          0 0 -140.809997559 -16.3400115967 -100.960006714 0.990005493164 -107.529998779 0.990005493164 -62 55.7899932861 25.3300018311 146.320007324 -3 2 254.5 3.67999267578 0 0 rrcurveto
          5.35000610352 36.1100006104 -248.830001831 6.00999450684 17.9799957275 114.199996948 251.5 5.67999267578 5.35000610352 35.4400024414 -249.830001831 5.67999267578 rlineto
          19.3200073242 111.880004883 31.2600097656 106.88999939 161.539993286 0.330001831055 82.3300018311 0.330001831055 150.11000061 -13.6800079346 0 0 rrcurveto
          6.69000244141 44.1499938965 rlineto
          -67.9999847412 13.0000152588 -110.760009766 13.6999969482 -52 0 -244 0 -22.9899902344 -204.600006104 -11 -72 rrcurveto
          -88.6699981689 -7.35000610352 -5.35000610352 -33.1000061035 87 -6.35000610352 -17.9799957275 -114.199996948 -89.6699981689 -5.67999267578 rlineto
          endchar
        </CharString>
        <CharString name="Euro.smcp">
          -60 -5 58.1699981689 145.440002441 46.4499969482 76.5500030518 32.4499969482 165.440002441 57.5 hstem
          47 204.61000061 rmoveto
          67.6699981689 -6 rlineto
          -26.6800079346 -167.41998291 107.509994507 -36.1900024414 79.5099945068 0 65 0 70.4000091553 10 66 18 rrcurveto
          7.36000061035 44.8300018311 rlineto
          1.52587890625e-05 1.52587890625e-05 -121.410003662 -14.6600036621 -82.0099945068 0 -83.4300079346 0 -42.0999908447 43.0899963379 17.6799926758 102.350006104 -2 2 188.669998169 4 0 0 rrcurveto
          5.35000610352 35.4499969482 -184 5 10.9799957275 70.5500030518 185.669998169 5 6.02000427246 34.4499969482 -184.669998169 6 rlineto
          10.6500091553 61.1900024414 24.5800018311 97.25 123.899993896 0 rrcurveto
          64 129.400009155 -11 0 hvcurveto
          6.69000244141 45.5 rlineto
          -52.9999847412 10 -96.7300109863 13 -41 0 -193.349990845 0 -24.6399993896 -159.940002441 -9 -56 rrcurveto
          -69.6699981689 -7 -4.35000610352 -32.4499969482 67 -6 -10.9799957275 -70.5500030518 -69.6699981689 -5.66000366211 rlineto
          endchar
        </CharString>
        <CharString name="F">
          -3 21 -21 21 -21 332.240005493 60.8500061035 -52.5000152588 44.1499938965 289.760009766 57.5 -57.5 43.4799957275 hstemhm
          hintmask 10100000
          80 hmoveto
          57.5 0 52.6499938965 332.240005493 rlineto
          hintmask 00010000
          340.240005493 8.35000610352 7.02000427246 44.1499938965 rlineto
          hintmask 00101000
          -337.559997559 8.35000610352 32.6499938965 208.910003662 rlineto
          6.63999938965 43.5 18.8999938965 29 53.9400024414 0 rrcurveto
          hintmask 00000100
          311.059997559 0 6.69000244141 43.4799957275 rlineto
          hintmask 10101000
          -308.059997559 14.0200042725 rlineto
          -73.0300140381 3.33999633789 -57.3099975586 -31.379989624 -16.6600036621 -103.280014038 rrcurveto
          endchar
        </CharString>
        <CharString name="G">
          53 -6.33999633789 57.5 279.339996338 58.5 -58.5 38.1199951172 313.210006714 57.5 hstemhm
          517.570007324 42.8099975586 hintmask 11011000
          119.63999939 370.300003052 rmoveto
          -29.6500091553 -182.209991455 16.799987793 -194.419998169 192.930007935 -0.00999450683594 80.6199951172 0 98.1999969482 37.6399993896 32.3300018311 24.7099914551 rrcurveto
          6.69999694824 -56.0099945068 42.8099975586 0 61 386 rlineto
          -24 2 -22.3300018311 1 -21 0 rrcurveto
          hintmask 10111000
          -81 0 -53.3600006104 -9.38000488281 -42 -11 rrcurveto
          -6.35000610352 -38.1199951172 183.850006104 0 -37.9600067139 -225.990005493 rlineto
          -1.52587890625e-05 -1.52587890625e-05 -132.830001831 -53.3499908447 -78 0 -130.86000061 -0.669998168945 -26.6799926758 124.449996948 30.2899932861 191.050003052 41.370010376 275.959991455 91.2099914551 40.5500030518 94.3099975586 -0.669998168945 61.8400115967 -0.669998168945 132.599990845 -9.94000244141 42.1800079346 -6.0299987793 rrcurveto
          6.35000610352 45.8000030518 rlineto
          -68.0000152588 13.0000152588 -117.629989624 16.0099945068 -49.9900054932 -0.669998168945 rrcurveto
          -199 0 -58.0599975586 -146.25 -36.6900024414 -222.779998779 rrcurveto
          endchar
        </CharString>
        <CharString name="Gbreve">
          53 -6.33999633789 57.5 279.339996338 38.1199951172 -38.1199951172 58.5 292.830001831 57.5 60.0279998779 35.4400024414 hstemhm
          328.574996948 35.4400024414 153.555007935 42.8099975586 -39.2550048828 35.4400024414 hintmask 00001101
          328.575195312 913.358398438 rmoveto
          -7.650390625 -73.3408203125 53.669921875 -40.6591796875 53.66015625 0 64.3798828125 0 52.6005859375 34.6494140625 11.330078125 79.3505859375 rrcurveto
          -35.4404296875 hlineto
          -8.330078125 -53.310546875 -35.9296875 -25.58984375 -48.2802734375 0.33984375 -39.9296875 -0.330078125 -31.6298828125 31.2705078125 6.9892578125 47.6201171875 rrcurveto
          hintmask 10110010
          -244.375 -543.05859375 rmoveto
          71 callsubr
          hintmask 11010010
          72 callsubr
          endchar
        </CharString>
        <CharString name="Gcircumflex">
          53 -6.33999633789 57.5 279.339996338 38.1199951172 -38.1199951172 58.5 292.830001831 57.5 60.0279998779 130 hstemhm
          281.804992676 285.399993896 -49.634979248 42.8099975586 hintmask 00001100
          281.8046875 799.358398438 rmoveto
          -38 callsubr
          hintmask 10110010
          -305.115234375 -559.05859375 rmoveto
          71 callsubr
          hintmask 11010010
          72 callsubr
          endchar
        </CharString>
        <CharString name="Gcommaaccent">
          53 -233.36000061 21.0780029297 205.942001343 57.5 279.339996338 38.1199951172 -38.1199951172 58.5 292.830001831 57.5 hstemhm
          277.586135864 89.193862915 150.790008545 42.8099975586 hintmask 10000100
          277.5859375 -233.360351562 rmoveto
          91 callsubr
          hintmask 01011010
          -161.244140625 582.58203125 rmoveto
          71 callsubr
          hintmask 01101010
          72 callsubr
          endchar
        </CharString>
        <CharString name="Gdotaccent">
          53 -6.33999633789 57.5 279.339996338 38.1199951172 -38.1199951172 58.5 292.830001831 57.5 60.6699981689 96.7200012207 hstemhm
          398.943099976 85.8108978271 32.8160095215 42.8099975586 hintmask 00001100
          398.943359375 819.370117188 rmoveto
          54 callsubr
          hintmask 10110010
          -288.57421875 -505.709960938 rmoveto
          71 callsubr
          hintmask 11010010
          72 callsubr
          endchar
        </CharString>
        <CharString name="H">
          73 21 -21 21 -21 325.25 57.5 349.25 -20 hstemhm
          hintmask 10110000
          85 hmoveto
          57.5 0 51.9900054932 325.25 379.699996948 0 -51.9900054932 -325.25 57.5 0 116 732 -57.5 0 -55.9900054932 -349.25 -379.699996948 0 55.9900054932 349.25 -57.5 0 rlineto
          endchar
        </CharString>
        <CharString name="Hbar">
          62 21 -21 21 -21 325.919998169 58.1699981689 139.510009766 41.8000030518 166.599990845 -20 hstemhm
          hintmask 10111000
          85 hmoveto
          57.5 0 52.6600036621 325.919998169 373.100006104 0 -52.6600036621 -325.919998169 57.5 0 82.9900054932 523.600006104 60.9799957275 0 6.02000427246 41.8000030518 -60.9799957275 0 26.9900054932 166.600006104 -57.5 0 -26.9900054932 -166.600006104 -373.100006104 0 26.9900054932 166.600006104 -57.5 0 rlineto
          -26.9900054932 -166.600006104 -62.3200073242 0 -6.02000427246 -41.8000030518 62.3200073242 0 rlineto
          35.1900024414 -139.510009766 rmoveto
          22.3099975586 139.509994507 373.100006104 0 -22.3099975586 -139.509994507 rlineto
          endchar
        </CharString>
        <CharString name="Hcircumflex">
          73 0 21 304.25 57.5 329.25 20 65 130 hstem
          316.10899353 285.399993896 vstem
          316.109375 797 rmoveto
          70 callsubr
          -374.05859375 -927 rmoveto
          57.5 0 51.990234375 325.25 379.700195312 0 -51.990234375 -325.25 57.5 0 116 732 -57.5 0 -55.990234375 -349.25 -379.700195312 0 55.990234375 349.25 -57.5 0 rlineto
          endchar
        </CharString>
        <CharString name="I">
          -352 21 -21 21 -21 732 -20 hstemhm
          90 173.5 hintmask 10110000
          90 hmoveto
          -66 callsubr
          endchar
        </CharString>
        <CharString name="Iacute">
          -352 0 21 691 20 65 133 hstemhm
          90 173.5 -43.716003418 204.850006104 hintmask 00101000
          219.784179688 797 rmoveto
          -39 callsubr
          hintmask 11010000
          -262.404296875 -930 rmoveto
          -66 callsubr
          endchar
        </CharString>
        <CharString name="Icircumflex">
          -352 0 21 691 20 65 130 hstemhm
          90 173.5 -160.990997314 285.399993896 hintmask 00101000
          102.508789062 797 rmoveto
          -38 callsubr
          hintmask 11010000
          -155.458984375 -927 rmoveto
          -66 callsubr
          endchar
        </CharString>
        <CharString name="Idieresis">
          -352 0 21 691 20 65 79.2200012207 hstemhm
          84.4553070068 79.2200012207 -73.6753082275 173.5 75.9553070068 79.2200012207 hintmask 00110100
          84.455078125 837.110351562 rmoveto
          -22 callsubr
          255 hmoveto
          -22 callsubr
          hintmask 11001000
          -249.455078125 -837.110351562 rmoveto
          -66 callsubr
          endchar
        </CharString>
        <CharString name="Idotaccent">
          -352 0 21 691 20 65 96.7200012207 hstemhm
          90 173.5 -53.6389007568 85.8108978271 hintmask 00101000
          209.861328125 816.370117188 rmoveto
          54 callsubr
          hintmask 11010000
          -129.131835938 -873.009765625 rmoveto
          -66 callsubr
          endchar
        </CharString>
        <CharString name="Idotaccent.smcp">
          -357 21 -21 21 -21 629.36000061 96.7200012207 hstemhm
          153.242797852 85.8108978271 hintmask 10110000
          60 hmoveto
          110 callsubr
          hintmask 00110000
          3.2431640625 78.73046875 rmoveto
          -1.7060546875 -11.6904296875 7.4189453125 -7.6796875 11.689453125 0 rrcurveto
          37.1298828125 hlineto
          11.6904296875 0 8.55859375 6.6796875 1.7578125 12.6904296875 rrcurveto
          9.271484375 56.6396484375 rlineto
          1.7060546875 11.689453125 -5.0791015625 9.0205078125 -12.6904296875 0 rrcurveto
          -37.1298828125 hlineto
          -13.359375 0 -8.2294921875 -8.0205078125 -1.7578125 -12.689453125 rrcurveto
          endchar
        </CharString>
        <CharString name="Igrave">
          -352 0 21 691 20 65 133 hstemhm
          90 173.5 -163.755996704 170.88999939 hintmask 00101000
          99.744140625 930 rmoveto
          -42 callsubr
          hintmask 11010000
          -76.6142578125 -930 rmoveto
          -66 callsubr
          endchar
        </CharString>
        <CharString name="Imacron">
          -352 0 21 691 20 61.6499938965 47.1600036621 hstemhm
          57.8399963379 173.5 -165.306289673 286.160003662 hintmask 00101000
          66.0341796875 793.650390625 rmoveto
          278.799804688 0 7.359375 47.1591796875 -278.799804688 0 rlineto
          hintmask 11010000
          -15.5537109375 -840.809570312 rmoveto
          -66 callsubr
          endchar
        </CharString>
        <CharString name="Iogonek">
          -352 -180.922317505 44.8200073242 116.179992676 20 -0.0776824951172 21 691 20 hstemhm
          90 173.5 hintmask 11000000
          105.711914062 0.078125 rmoveto
          -159.669921875 -64.66015625 55.330078125 -132.33984375 118 16 rrcurveto
          7.3603515625 44.8193359375 rlineto
          -99.1708984375 -3.669921875 6.990234375 79.4404296875 101.25 60.41015625 rrcurveto
          hintmask 00111000
          -45.8017578125 -0.078125 rmoveto
          -66 callsubr
          endchar
        </CharString>
        <CharString name="Itilde">
          -352 0 21 691 20 67.3200073242 52.1800994873 -5.31010437012 52.1799926758 hstemhm
          96.2700042725 173.5 hintmask 00010000
          90.1337890625 836.349609375 rmoveto
          89 callsubr
          hintmask 00100000
          35.009765625 0.669921875 19.900390625 -46.8701171875 51.3798828125 -0.669921875 43.33984375 -0.669921875 37.3505859375 33.689453125 41.6796875 28.98046875 rrcurveto
          -11.7001953125 30.44921875 rlineto
          -12.599609375 -8.94921875 -60.7607421875 -31.990234375 -28.94921875 0.669921875 rrcurveto
          hintmask 00010000
          -29.3203125 0.669921875 -29.58984375 44.1904296875 -46.3701171875 2.009765625 rrcurveto
          -40.33984375 0 -40.3505859375 -30.009765625 -43.01953125 -32.0107421875 rrcurveto
          hintmask 11001000
          6.1357421875 -836.349609375 rmoveto
          -66 callsubr
          endchar
        </CharString>
        <CharString name="J">
          -220 21 40.8000030518 670.199996948 -20 hstem
          38 21 rmoveto
          47 -34 100.399993896 -2.33999633789 54.700012207 33.3399963379 53.3499908447 32.3300018311 14.6500091553 67.6699981689 7 47 rrcurveto
          90 567 -57.5 0 -90 -567 rlineto
          -23.3100128174 -145.550003052 -110.309997559 21.3800048828 -75.2899932861 20.9700012207 rrcurveto
          endchar
        </CharString>
        <CharString name="Jcircumflex">
          -220 21 40.8000030518 650.199996948 20 65 130 hstem
          244.10899353 285.399993896 vstem
          244.109375 797 rmoveto
          70 callsubr
          -349.05859375 -906 rmoveto
          47 -34 100.400390625 -2.33984375 54.69921875 33.33984375 53.3505859375 32.330078125 14.6494140625 67.669921875 7 47 rrcurveto
          90 567 -57.5 0 -90 -567 rlineto
          -23.3095703125 -145.549804688 -110.309570312 21.3798828125 -75.2900390625 20.9697265625 rrcurveto
          endchar
        </CharString>
        <CharString name="K">
          -9 21 -21 21 -21 338.25 57.5 336.25 -20 hstemhm
          hintmask 10110000
          80 hmoveto
          58.5 0 53.3200073242 338.25 112.449996948 0 172.960006714 -338.25 68.8699951172 0 -187.669998169 363.979995728 303.339996338 368.020004272 -71.5399932861 0 -281.270004272 -336.25 -108.779998779 0 53.3200073242 336.25 -57.5 0 rlineto
          endchar
        </CharString>
        <CharString name="Kcommaaccent">
          -9 -228.36000061 21.0780029297 207.281997681 21 317.25 57.5 316.25 20 hstem
          240.276123047 89.193862915 vstem
          hintmask 00000000
          240.276367188 -228.360351562 rmoveto
          90 callsubr
          -163.573242188 207.282226562 rmoveto
          58.5 0 53.3203125 338.25 112.44921875 0 172.9609375 -338.25 68.869140625 0 -187.669921875 363.98046875 303.33984375 368.01953125 -71.5390625 0 -281.270507812 -336.25 -108.780273438 0 53.3203125 336.25 -57.5 0 rlineto
          endchar
        </CharString>
        <CharString name="L">
          -28 0 57.5 674.5 -20 hstem
          99 126 rmoveto
          -15.9900054932 -100.270004272 66.9700012207 -25.7299957275 66.6699981689 0 rrcurveto
          295.789993286 0 8.69000244141 57.5 -296.100006104 0 rlineto
          -37.25 0 -41.5899963379 2.63000488281 10.3099975586 65.8699951172 rrcurveto
          96.6699981689 606 -56.8300018311 0 rlineto
          endchar
        </CharString>
        <CharString name="Lacute">
          -28 0 57.5 654.5 20 61.6499938965 133 hstem
          169.833099365 204.850006104 vstem
          169.833007812 793.650390625 rmoveto
          -39 callsubr
          -244.993164062 -800.650390625 rmoveto
          59 callsubr
          endchar
        </CharString>
        <CharString name="Lcaron">
          -28 0 57.5 674.5 -20 hstem
          313.13999939 39.4700012207 vstem
          99 126 rmoveto
          -15.9900054932 -100.270004272 65.3150024414 -25.7299957275 66.6750030518 0 rrcurveto
          297.440002441 0 8.69000244141 57.5 -296.100006104 0 rlineto
          -37.25 0 -41.5899963379 2.63000488281 10.3099975586 65.8699951172 rrcurveto
          96.6699981689 606 -56.8300018311 0 rlineto
          116.800003052 -161 rmoveto
          37 callsubr
          endchar
        </CharString>
        <CharString name="Lcommaaccent">
          -28 -228.36000061 21.0780029297 207.281997681 57.5 654.5 20 hstem
          245.606124878 89.193862915 vstem
          hintmask 00000000
          245.606445312 -228.360351562 rmoveto
          90 callsubr
          -149.903320312 333.282226562 rmoveto
          59 callsubr
          endchar
        </CharString>
        <CharString name="Lslash">
          -28 0 57.5 674.5 -20 hstem
          47.3000030518 333.199996948 rmoveto
          89.6699981689 36.6699981689 -38.9799957275 -243.869995117 rlineto
          -15.9899902344 -100.270004272 66.3049926758 -25.7299957275 66.6750030518 0 rrcurveto
          295.779998779 0 9.36000061035 57.5 -296.770004272 0 rlineto
          -37.25 0 -40.9200134277 2.63000488281 10.3100128174 65.8699951172 rrcurveto
          42.6600036621 268.940002441 140.729995728 57.3600006104 8.69000244141 46.8000030518 -142.070007324 -57.3600006104 45.9900054932 290.259994507 -56.8300018311 0 -50 -315 -89.6699981689 -36 rlineto
          endchar
        </CharString>
        <CharString name="M">
          225 21 -21 21 -21 732 -20 hstemhm
          hintmask 10100000
          71 hmoveto
          57.8300018311 0 152.490005493 630.339996338 100.320007324 -630.339996338 60.1600036621 0 297.869995117 632.660003662 -45.3999938965 -632.660003662 57.8300018311 0 50.7599945068 732 -80.5399932861 0 -297.899993896 -636.059997559 -102.990005493 636.059997559 -75.5399932861 0 rlineto
          endchar
        </CharString>
        <CharString name="M.salt">
          237 21 -21 21 -21 hstemhm
          hintmask 10000000
          55 hmoveto
          56.5 0 144.990005493 650.61000061 rlineto
          7.64001464844 35.5500183105 38.8199920654 1.91999816895 4.30999755859 -32.8300018311 rrcurveto
          57 -393.589996338 rlineto
          13.6899871826 -94.1399993896 103.130004883 4.33000183105 32.6999969482 77.75 rrcurveto
          172.660003662 410 rlineto
          13.2700042725 31.1799926758 40.1699981689 -6.99000549316 -3.66000366211 -32.5099945068 rrcurveto
          -53.6600036621 -651.279998779 58.8399963379 0 52.9900054932 649.309997559 rlineto
          8.32998657227 103 -129.100006104 18.0400085449 -41.3399963379 -89.3500061035 rrcurveto
          -171.990005493 -411 rlineto
          -9.30000305176 -22.5899963379 -24.9100036621 -4.33000183105 -3.99000549316 26.9199981689 rrcurveto
          -57.6699981689 396.600006104 rlineto
          -16.3500061035 102.059997559 -134.070007324 -14.6600036621 -16 -102 rrcurveto
          endchar
        </CharString>
        <CharString name="N">
          88 21 -21 21 -21 732 -20 hstemhm
          hintmask 10100000
          80 hmoveto
          58.1699981689 0 99.2799987793 625.679992676 296.830001831 -625.679992676 54.8200073242 0 116 732 -57.5 0 -99.2799987793 -625.350006104 -295.830001831 625.350006104 -56.4900054932 0 rlineto
          endchar
        </CharString>
        <CharString name="N.salt">
          106 21 -21 21 -21 732 -20 hstemhm
          666.229995728 57.5 hintmask 10110000
          80 hmoveto
          57.5 0 102.330001831 646.649993896 rlineto
          5.97001647949 36.1399993896 42.7599945068 6.65000915527 6.63999938965 -30.8399963379 rrcurveto
          154.509994507 -594.539993286 rlineto
          27.3800048828 -103.720001221 129.980010986 13.6300048828 15.6699981689 104.380004883 rrcurveto
          100.990005493 653.649993896 -57.5 0 -102.660003662 -646.960006714 rlineto
          -6.64001464844 -36.8600158691 -41.4099884033 -5.91999816895 -7.63999938965 34.8300018311 rrcurveto
          -156.86000061 601.919998169 rlineto
          -21.6899871826 84.3099975586 -134.339996338 -8.31001281738 -13.6600036621 -101.689987183 rrcurveto
          endchar
        </CharString>
        <CharString name="Nacute">
          88 0 21 691 20 65 133 hstem
          435.583999634 204.850006104 vstem
          435.583984375 797 rmoveto
          -39 callsubr
          -488.204101562 -930 rmoveto
          -20 callsubr
          endchar
        </CharString>
        <CharString name="Nacute.salt">
          106 0 21 691 20 65 133 hstem
          447 204.850006104 14.379989624 57.5 vstem
          447 797 rmoveto
          -39 callsubr
          -499.620117188 -930 rmoveto
          160 callsubr
          endchar
        </CharString>
        <CharString name="Ncaron">
          88 0 21 691 20 65 130 hstem
          338.910003662 285.399993896 vstem
          338.91015625 927 rmoveto
          42 callsubr
          -308.0703125 -927 rmoveto
          -20 callsubr
          endchar
        </CharString>
        <CharString name="Ncaron.salt">
          106 0 21 691 20 65 130 hstem
          370.039993286 285.399993896 10.7900085449 57.5 vstem
          370.040039062 927 rmoveto
          39 callsubr
          -339.200195312 -927 rmoveto
          160 callsubr
          endchar
        </CharString>
        <CharString name="Ncommaaccent">
          88 -228.36000061 21.0780029297 207.281997681 21 691 20 hstem
          284.956130981 89.193862915 vstem
          hintmask 00000000
          284.956054688 -228.360351562 rmoveto
          0 0 64.5576171875 -13.5263671875 10.92578125 69.1650390625 rrcurveto
          13.7109375 87.533203125 rlineto
          1.58203125 11.421875 -2.46484375 8.720703125 -13.5263671875 0 rrcurveto
          -33.7236328125 hlineto
          -12.0244140625 0 -8.0087890625 -6.615234375 -2.232421875 -13.52734375 rrcurveto
          -7.740234375 -50.9755859375 rlineto
          -2.185546875 -12.626953125 7.2802734375 -6.30859375 10.5205078125 0 rrcurveto
          8.4150390625 0 -4.623046875 -29.0341796875 rlineto
          -1.48828125 -8.4150390625 -3.1318359375 -15.3359375 -22.5458984375 0.6025390625 rrcurveto
          -208.252929688 207.282226562 rmoveto
          -20 callsubr
          endchar
        </CharString>
        <CharString name="Ncommaaccent.salt">
          106 -245.130004883 21.0780029297 224.052001953 21 691 20 hstem
          273.081130981 89.193862915 303.955001831 57.5 vstem
          hintmask 00000000
          273.081054688 -245.129882812 rmoveto
          0 0 64.5576171875 -13.52734375 10.92578125 69.1650390625 rrcurveto
          13.7109375 87.5341796875 rlineto
          1.58203125 11.4208984375 -2.46484375 8.720703125 -13.5263671875 0 rrcurveto
          -33.7236328125 hlineto
          -12.0244140625 0 -8.0087890625 -6.6142578125 -2.232421875 -13.52734375 rrcurveto
          -7.740234375 -50.9755859375 rlineto
          -2.185546875 -12.626953125 7.2802734375 -6.3095703125 10.5205078125 0 rrcurveto
          8.4150390625 0 -4.623046875 -29.0341796875 rlineto
          -1.48828125 -8.4150390625 -3.1318359375 -15.3359375 -22.5458984375 0.603515625 rrcurveto
          -196.377929688 224.051757812 rmoveto
          160 callsubr
          endchar
        </CharString>
        <CharString name="Ntilde">
          88 0 21 691 20 62.3200073242 52.1800994873 -5.31010437012 52.1799926758 hstemhm
          hintmask 00010000
          292.302734375 831.349609375 rmoveto
          11.3701171875 -30.109375 rlineto
          34.640625 17.9599609375 26.3095703125 21.3193359375 42.01953125 0.6708984375 rrcurveto
          hintmask 00100000
          35.0107421875 0.669921875 19.8994140625 -46.8701171875 51.3798828125 -0.669921875 43.3408203125 -0.669921875 37.349609375 33.689453125 41.6796875 28.98046875 rrcurveto
          -11.7001953125 30.44921875 rlineto
          -12.599609375 -8.94921875 -60.759765625 -31.990234375 -28.9501953125 0.669921875 rrcurveto
          hintmask 00010000
          -21 callsubr
          hintmask 11000000
          -212.302734375 -831.349609375 rmoveto
          -20 callsubr
          endchar
        </CharString>
        <CharString name="Ntilde.salt">
          106 0 21 691 20 68.9700012207 52.1800994873 -5.31010437012 52.1799926758 hstemhm
          666.229995728 57.5 hintmask 00010000
          283 838 rmoveto
          -37 callsubr
          hintmask 00100000
          35.009765625 0.669921875 19.900390625 -46.8701171875 51.3798828125 -0.669921875 43.33984375 -0.669921875 37.3505859375 33.6904296875 41.6796875 28.9794921875 rrcurveto
          -11.7001953125 30.4501953125 rlineto
          -12.599609375 -8.9501953125 -60.759765625 -31.9892578125 -28.9501953125 0.669921875 rrcurveto
          hintmask 00010000
          -29.3203125 0.669921875 -29.58984375 44.189453125 -46.3701171875 2.009765625 rrcurveto
          -40.33984375 0 -40.3505859375 -30.009765625 -43.01953125 -32.009765625 rrcurveto
          hintmask 11001000
          -203 -838 rmoveto
          160 callsubr
          endchar
        </CharString>
        <CharString name="O">
          106 -4 57.5 626 57.5 hstem
          115.990005493 363.309997559 rmoveto
          -65 callsubr
          57.5 -2.30999755859 rmoveto
          -64 callsubr
          endchar
        </CharString>
        <CharString name="OE">
          493 -4 57.5 -41.8099975586 42.8099975586 277.740005493 60.8500061035 -52.5000152588 44.1499938965 289.760009766 43.4799957275 -38.4799957275 57.5 hstemhm
          hintmask 10000000
          108.289993286 363.309997559 rmoveto
          -53.0000152588 -333 111.150009155 -34.3099975586 167.940002441 0 103.220001221 0 77.629989624 13.6499938965 56.3300018311 79.1300048828 2.11999511719 -71.4700012207 55.6100006104 -23.3099975586 57.2700042725 3 rrcurveto
          hintmask 01100000
          292.5 14.6900024414 7.36000061035 42.8099975586 -290.5 0 rlineto
          -37.5800170898 0 -40.5899963379 2.63000488281 9.63999938965 65.8699951172 rrcurveto
          33.3200073242 209.240005493 rlineto
          hintmask 00010000
          330.669998169 8.35000610352 6.69000244141 44.1499938965 rlineto
          hintmask 00101000
          -327.330001831 8.35000610352 32.6499938965 208.910003662 rlineto
          6.63998413086 42.8399963379 20.8800048828 29.6600036621 52.6199951172 0 rrcurveto
          300.5 0 6.69000244141 43.4799957275 -297.830001831 14.0200042725 rlineto
          -66.2700195312 3 -52.2899932861 -23.9100036621 -19.3800048828 -78.1999969482 rrcurveto
          hintmask 10000100
          -33.4100036621 88.4600067139 -77.3199920654 15.6499938965 -104.25 0 rrcurveto
          -174.009994507 0 -103.670013428 -30.6900024414 -54 -343 rrcurveto
          57.5 -2.30999755859 rmoveto
          48.9799957275 311.539993286 84.2599945068 6.96000671387 137.949996948 0 135.880004883 0 82.3500061035 -11.25 -48.3200073242 -307.25 -41.6399993896 -264.509994507 -75.9799957275 -42.9900054932 -151.570007324 0 -159.569992065 0 -55.3200073242 36.9700012207 42.9799957275 270.529998779 rrcurveto
          endchar
        </CharString>
        <CharString name="Oacute">
          106 -4 57.5 626 57.5 60 133 hstem
          431.912002563 204.850006104 vstem
          431.912109375 797 rmoveto
          -39 callsubr
          -448.541992188 -566.690429688 rmoveto
          -19 callsubr
          57.5 -2.3095703125 rmoveto
          -18 callsubr
          endchar
        </CharString>
        <CharString name="Ocircumflex">
          106 -4 57.5 626 57.5 60 130 hstem
          314.636993408 285.399993896 vstem
          314.63671875 797 rmoveto
          -38 callsubr
          -341.596679688 -563.690429688 rmoveto
          -19 callsubr
          57.5 -2.3095703125 rmoveto
          -18 callsubr
          endchar
        </CharString>
        <CharString name="Odieresis">
          106 -4 57.5 626 57.5 60 79.2200012207 hstem
          296.582992554 79.2200012207 175.779998779 79.2200012207 vstem
          296.583007812 837.110351562 rmoveto
          -16 callsubr
          255 hmoveto
          -16 callsubr
          -435.592773438 -473.80078125 rmoveto
          -19 callsubr
          57.5 -2.3095703125 rmoveto
          -18 callsubr
          endchar
        </CharString>
        <CharString name="Ograve">
          106 -4 57.5 626 57.5 60 133 hstem
          311.871994019 170.88999939 vstem
          311.872070312 930 rmoveto
          -42 callsubr
          -262.751953125 -566.690429688 rmoveto
          -19 callsubr
          57.5 -2.3095703125 rmoveto
          -18 callsubr
          endchar
        </CharString>
        <CharString name="Ohungarumlaut">
          106 -4 57.5 626 57.5 60 133 hstem
          363.751953125 797 rmoveto
          -39 callsubr
          3.7001953125 -133 rmoveto
          -39 callsubr
          -516.702148438 -566.690429688 rmoveto
          -19 callsubr
          57.5 -2.3095703125 rmoveto
          -18 callsubr
          endchar
        </CharString>
        <CharString name="Omacron">
          106 -4 57.5 626 57.5 56.6499938965 47.1600036621 hstem
          322.912002563 286.160003662 vstem
          322.912109375 793.650390625 rmoveto
          278.799804688 0 7.3603515625 47.1591796875 -278.799804688 0 rlineto
          -214.282226562 -477.5 rmoveto
          -19 callsubr
          57.5 -2.3095703125 rmoveto
          -18 callsubr
          endchar
        </CharString>
        <CharString name="Omega">
          213 0 48.8500061035 632.649993896 57.5 hstem
          71 hmoveto
          220 0 10.0299987793 60.1799926758 rlineto
          -130 116 -10.5200042725 67.200012207 21.9900054932 137.61000061 24.9799957275 159.220001221 84.3400115967 141.289993286 200.869995117 0 208.910003662 0 25.3199920654 -142.259994507 -24.3199920654 -154.240005493 -21 -132.669998169 -38.4700012207 -98.1500091553 -157 -94 rrcurveto
          -10.0299987793 -60.1799926758 228 0 8.0299987793 48.8500061035 -147.130004883 10.3300018311 rlineto
          135.949996948 85.9700012207 40.1500091553 119.529998779 19 117 29 182 -54.7799987793 175.320007324 -233.260009766 0 -262 0 -84.3800048828 -193.710006714 -27.6799926758 -153.329986572 -15.3200073242 -85.5400085449 -16.0799865723 -136.339996338 136.909988403 -109.900009155 rrcurveto
          -153.479995728 -10.6600036621 rlineto
          endchar
        </CharString>
        <CharString name="Oslash">
          106 -4 57.5 626 57.5 hstem
          74.2799987793 hmoveto
          46.8099975586 0 34.6499938965 42.9799957275 rlineto
          42.3600158691 -39.9800109863 64.6799926758 -7 77.2900085449 0 175.309997559 0 105.039993286 39.6900024414 49.6600036621 323 23.9900054932 154.959991455 -9.01000976562 93.9700012207 -33.6699981689 54.3400115967 rrcurveto
          56.0299987793 70.0399932861 -46.8099975586 0 -33.3000030518 -41.9600067139 rlineto
          -41.3499908447 38.9599914551 -64.6500091553 8 -77.3000030518 0 -174.009994507 0 -102.020004272 -32.0099945068 -54 -343 -23.6599884033 -148.270004272 8.67999267578 -89.6499938965 32.3300018311 -52.3400115967 rrcurveto
          40.1499938965 289.270004272 rmoveto
          48.9799957275 311.539993286 84.2599945068 6.96000671387 137.949996948 0 62.9199981689 0 51.9600067139 -2.32000732422 31.9899902344 -33.2699890137 rrcurveto
          -416.759994507 -521.029998779 rlineto
          -19.6199951172 44.9799957275 -0.660003662109 73.9400024414 18.9799957275 119.199996948 rrcurveto
          22.0299987793 -270.220001221 rmoveto
          417.429992676 520.699996948 rlineto
          19.6300048828 -45.9800109863 1.98999023438 -76.6100006104 -19.9799957275 -127.88999939 -41.6399993896 -264.509994507 -74.9900054932 -42.9900054932 -151.569992065 0 -69.9300079346 0 -50.9499969482 6.66000366211 -29.9900054932 30.6199951172 rrcurveto
          endchar
        </CharString>
        <CharString name="Otilde">
          106 -4 57.5 626 57.5 60.6699981689 52.1800994873 -5.31010437012 52.1799926758 hstemhm
          hintmask 00010000
          293.790039062 834.700195312 rmoveto
          -37 callsubr
          hintmask 00100000
          -36 callsubr
          hintmask 00010000
          -17 callsubr
          hintmask 11000000
          -177.799804688 -471.390625 rmoveto
          -19 callsubr
          57.5 -2.3095703125 rmoveto
          -18 callsubr
          endchar
        </CharString>
        <CharString name="P">
          25 21 -21 21 -21 306.25 57.5 -42.8099975586 42.8099975586 309.75 58.5 hstemhm
          hintmask 10011000
          75 hmoveto
          57.5 0 51.6600036621 320.940002441 rlineto
          hintmask 10101000
          5 -3 190.929992676 -11.6900024414 40 0 74 0 104.339996338 -0.360000610352 31.3300018311 218.070007324 23.9800109863 168.949996948 -87.6399993896 39.0899963379 -79 0 rrcurveto
          -296.100006104 hlineto
          hintmask 00011000
          -0.820007324219 -368.25 rmoveto
          48.9600067139 309.75 238.600006104 0 rlineto
          51.2100067139 0 62.9600067139 -10.6199951172 -20.6500091553 -138.590011597 rrcurveto
          hintmask 00101000
          -21.6599884033 -141.579986572 -60.5800018311 -18.9600067139 -60.9100036621 0 rrcurveto
          endchar
        </CharString>
        <CharString name="Q">
          111 -4 57.5 626 57.5 hstem
          119.990005493 363.309997559 rmoveto
          -65 callsubr
          57.5 -2.30999755859 rmoveto
          -64 callsubr
          134.809997559 -394 rmoveto
          1.65000915527 -98.0200042725 117.11000061 -24.6900024414 76 27 rrcurveto
          10.0299987793 61.5200042725 rlineto
          -61.6600036621 -20.6699981689 -61.2099914551 -1.67999267578 -42.4600067139 56.5399932861 rrcurveto
          endchar
        </CharString>
        <CharString name="R">
          44 21 -21 21 -21 303.570007324 60.1799926758 -47.5 47.5 309.75 58.5 hstemhm
          hintmask 10011000
          75 hmoveto
          57.5 0 50.3200073242 316.25 rlineto
          hintmask 10101000
          1.31999206543 -0.990005493164 199.070007324 -11.3600006104 17.4899902344 -0.329986572266 rrcurveto
          102.300003052 -303.570007324 62.8500061035 0 -106.990005493 308.929992676 rlineto
          44.1800079346 3.34001159668 102.75 14.3300018311 22.6300048828 190.679992676 20.6300048828 170.960006714 -74.9100036621 43.7599945068 -83.0200042725 0 rrcurveto
          -300.119995117 hlineto
          hintmask 00011000
          -0.149993896484 -368.25 rmoveto
          48.9600067139 309.75 241.949996948 0 rlineto
          59.9199829102 0 43.5300140381 -15.6399993896 -15.2900085449 -139.259994507 -14.2799987793 -125.820007324 -63.2700042725 -29.0299987793 -62.9199981689 0 rrcurveto
          endchar
        </CharString>
        <CharString name="Racute">
          44 0 21 282.570007324 60.1799926758 -47.5 47.5 309.75 58.5 65 133 hstemhm
          389.393997192 204.850006104 hintmask 00001100
          389.393554688 797 rmoveto
          -24 callsubr
          hintmask 10110000
          -447.013671875 -930 rmoveto
          55 callsubr
          hintmask 11010000
          56 callsubr
          hintmask 00110000
          -0.150390625 -368.25 rmoveto
          57 callsubr
          endchar
        </CharString>
        <CharString name="Rcaron">
          44 0 21 282.570007324 60.1799926758 -47.5 47.5 309.75 58.5 65 130 hstemhm
          296.070007324 285.399993896 hintmask 00001100
          296.0703125 927 rmoveto
          87.94921875 -130 54.5 0 142.950195312 130 -59.5400390625 0 -107.489257812 -93.5595703125 -69.2099609375 93.5595703125 rlineto
          hintmask 10110000
          -270.23046875 -927 rmoveto
          55 callsubr
          hintmask 11010000
          56 callsubr
          hintmask 00110000
          -0.150390625 -368.25 rmoveto
          57 callsubr
          endchar
        </CharString>
        <CharString name="Rcommaaccent">
          44 -228.36000061 21.0780029297 207.281997681 21 282.570007324 60.1799926758 -47.5 47.5 309.75 58.5 hstemhm
          259.306137085 89.193862915 hintmask 10000100
          259.305664062 -228.360351562 rmoveto
          0 0 64.5576171875 -13.5263671875 10.92578125 69.1650390625 rrcurveto
          13.7109375 87.533203125 rlineto
          1.58203125 11.421875 -2.4638671875 8.720703125 -13.52734375 0 rrcurveto
          -33.7236328125 hlineto
          -12.0244140625 0 -8.0078125 -6.615234375 -2.2333984375 -13.52734375 rrcurveto
          -7.740234375 -50.9755859375 rlineto
          -2.185546875 -12.626953125 7.2802734375 -6.30859375 10.5205078125 0 rrcurveto
          8.4150390625 0 -4.623046875 -29.0341796875 rlineto
          -1.4873046875 -8.4150390625 -3.1328125 -15.3359375 -22.544921875 0.6025390625 rrcurveto
          hintmask 01011000
          -187.603515625 207.282226562 rmoveto
          55 callsubr
          hintmask 01101000
          56 callsubr
          hintmask 00011000
          -0.150390625 -368.25 rmoveto
          57 callsubr
          endchar
        </CharString>
        <CharString name="S">
          3 -8 57.5 280.75 57.5 292.75 57.5 hstem
          79 13.0299987793 rmoveto
          38.3000030518 -7.33000183105 134.979995728 -13.6999969482 67.0899963379 0 87.6100006104 0 115.080001831 13.6499938965 23.3399963379 148.700012207 rrcurveto
          10.6699981689 68 rlineto
          13 82 -19.3400115967 83.3999938965 -126.300003052 0 rrcurveto
          -130.75 hlineto
          -65.8699951172 0 -52 0.240005493164 16.6699981689 106.009994507 rrcurveto
          10.3300018311 66 rlineto
          16.3200073242 104.25 55.5999908447 20.25 85.5700073242 -4 0 0 184.800003052 -7.35000610352 54.2899932861 -1.31999206543 rrcurveto
          6.69000244141 43.8200073242 rlineto
          -52.0199890137 8 -131.399993896 13.0100097656 -53 1.33999633789 -109.320007324 2.67999267578 -90.6900024414 -26.9899902344 -24.3399963379 -152.369995117 rrcurveto
          -10.3300018311 -66 rlineto
          -12.0000152588 -75.9900054932 5.66000366211 -89.0800018311 156.339996338 0 rrcurveto
          130.089996338 hlineto
          83.9199981689 0 10.8999938965 -40.0099945068 -10.3199920654 -66.2400054932 rrcurveto
          -10.6699981689 -68 rlineto
          -14.6499938965 -95.5599975586 -86.6900024414 -10.9400024414 -57.1699981689 0 -93 0 -107.699996948 3.33999633789 -43 5.33999633789 rrcurveto
          endchar
        </CharString>
        <CharString name="Sacute">
          3 -8 57.5 280.75 57.5 292.75 57.5 60 133 hstem
          380.779998779 204.850006104 vstem
          380.780273438 798 rmoveto
          -39 callsubr
          -442.440429688 -917.969726562 rmoveto
          38 callsubr
          endchar
        </CharString>
        <CharString name="Scaron">
          3 -8 57.5 280.75 57.5 292.75 57.5 60.2510070801 130 hstem
          298.311004639 285.399993896 vstem
          298.310546875 928.250976562 rmoveto
          39 callsubr
          -268.470703125 -915.220703125 rmoveto
          38 callsubr
          endchar
        </CharString>
        <CharString name="Scedilla">
          3 -181 27.1000061035 145.899993896 57.5 280.75 57.5 292.75 57.5 hstem
          286.25 50.5 vstem
          169.349609375 -181 rmoveto
          40 callsubr
          -94.7001953125 166.930664062 rmoveto
          38 callsubr
          endchar
        </CharString>
        <CharString name="Scircumflex">
          3 -8 57.5 280.75 57.5 292.75 57.5 60.2510070801 130 hstem
          256.770004272 285.399993896 vstem
          256.76953125 798.250976562 rmoveto
          -38 callsubr
          -320.719726562 -915.220703125 rmoveto
          38 callsubr
          endchar
        </CharString>
        <CharString name="T">
          30 21 -21 21 -21 674.5 57.5 hstemhm
          hintmask 10100000
          139 674.5 rmoveto
          227.199996948 0 -106.63999939 -674.5 57.5 0 106.63999939 674.5 233.199996948 0 9.36000061035 57.5 -517.899993896 0 rlineto
          endchar
        </CharString>
        <CharString name="Tbar">
          16 21 -21 21 -21 396.600006104 40.8000030518 237.099990845 57.5 hstemhm
          hintmask 10110000
          139 674.5 rmoveto
          220.600006104 0 -37.6300048828 -237.100006104 -123.300003052 0 -6.02000427246 -40.8000030518 123.300003052 0 -62.9900054932 -396.600006104 57.5 0 62.9900054932 396.600006104 123.300003052 0 6.02000427246 40.8000030518 -123.300003052 0 37.6300048828 237.100006104 226.600006104 0 9.36000061035 57.5 -504.699996948 0 rlineto
          endchar
        </CharString>
        <CharString name="Tcaron">
          30 0 21 653.5 57.5 65 130 hstem
          295.669998169 285.399993896 vstem
          295.669921875 927 rmoveto
          39 callsubr
          -205.830078125 -252.5 rmoveto
          41 callsubr
          endchar
        </CharString>
        <CharString name="Tcommaaccent">
          30 -185 27.1000061035 157.899993896 21 653.5 57.5 hstem
          242.5 50.5 vstem
          125.599609375 -185 rmoveto
          40 callsubr
          -4.6806640625 832.400390625 rmoveto
          227.200195312 0 -106.639648438 -674.5 57.5 0 106.639648438 674.5 233.200195312 0 9.3603515625 57.5 -517.900390625 0 rlineto
          endchar
        </CharString>
        <CharString name="Thorn">
          -12 21 -21 21 -21 152.350006104 57.5 319.979995728 58.1699981689 hstemhm
          hintmask 10110000
          60 hmoveto
          57.5 0 27.0099945068 169.050003052 rlineto
          52.7599945068 -15.7199859619 110.509994507 -0.650009155273 40 -0.329986572266 82.7100067139 0 98.629989624 13.3099975586 27.3099975586 208.019989014 23.9800109863 179.670013428 -99.370010376 34.6499938965 -66.9399871826 0 rrcurveto
          -203.600006104 0 22 141 -57.5 0 rlineto
          -38 -243 -39 -243 -38 -243 rrcurveto
          90.5299987793 209.850006104 rmoveto
          50.6100006104 319.979995728 203.600006104 0 rlineto
          41.8800048828 -0.329986572266 72.2799987793 -10.9400024414 -21.3099975586 -141.559997559 -22.3199920654 -140.919998169 -49.9199981689 -26.2299957275 -71.2200012207 0 rrcurveto
          endchar
        </CharString>
        <CharString name="U">
          98 -5 57.5 679.5 -20 hstem
          128.320007324 307.940002441 rmoveto
          -40.6100006104 -256.63999939 96.5199890137 -56.3000030518 154.760009766 0 203.069992065 0 67.7200012207 110.539993286 32.2400054932 202.400009155 rrcurveto
          67.0099945068 424.059997559 -58.1699981689 0 -67.0099945068 -424.059997559 rlineto
          -33.6100006104 -213.309997559 -79.5400085449 -42.1300048828 -128.349990845 0 -125.279998779 0 -66.1900024414 29.4700012207 35.6100006104 225.970001221 rrcurveto
          67.0099945068 424.059997559 -58.1699981689 0 rlineto
          endchar
        </CharString>
        <CharString name="Uacute">
          98 -5 57.5 659.5 20 65 133 hstem
          437.214004517 204.850006104 vstem
          437.213867188 797 rmoveto
          -24 callsubr
          -441.513671875 -622.059570312 rmoveto
          -14 callsubr
          endchar
        </CharString>
        <CharString name="Ubreve">
          98 -5 57.5 659.5 20 65 35.4400024414 hstem
          366.710006714 35.4400024414 157.109985352 35.4400024414 vstem
          366.709960938 911 rmoveto
          -7.650390625 -73.33984375 53.6708984375 -40.66015625 53.6591796875 0 64.3798828125 0 52.6005859375 34.650390625 11.330078125 79.349609375 rrcurveto
          -35.4404296875 hlineto
          -8.330078125 -53.3095703125 -35.9296875 -25.5908203125 -48.2802734375 0.3408203125 -39.9296875 -0.330078125 -31.6298828125 31.26953125 6.990234375 47.6201171875 rrcurveto
          -273.830078125 -603.059570312 rmoveto
          -14 callsubr
          endchar
        </CharString>
        <CharString name="Ucircumflex">
          98 -5 57.5 659.5 20 65 130 hstem
          319.938995361 285.399993896 vstem
          319.939453125 797 rmoveto
          59.5390625 0 107.490234375 93.5595703125 69.2099609375 -93.5595703125 49.16015625 0 -87.9501953125 130 -54.5 0 rlineto
          -334.568359375 -619.059570312 rmoveto
          -14 callsubr
          endchar
        </CharString>
        <CharString name="Udieresis">
          98 -5 57.5 659.5 20 65 79.2200012207 hstem
          301.884994507 79.2200012207 175.779998779 79.2200012207 vstem
          301.884765625 837.110351562 rmoveto
          -22 callsubr
          255 hmoveto
          -22 callsubr
          -428.564453125 -529.169921875 rmoveto
          -14 callsubr
          endchar
        </CharString>
        <CharString name="Ugrave">
          98 -5 57.5 659.5 20 65 133 hstem
          317.173995972 170.88999939 vstem
          317.173828125 930 rmoveto
          -15 callsubr
          -255.723632812 -622.059570312 rmoveto
          -14 callsubr
          endchar
        </CharString>
        <CharString name="Uhungarumlaut">
          98 -5 57.5 659.5 20 65 133 hstem
          369.053710938 797 rmoveto
          -24 callsubr
          3.7001953125 -133 rmoveto
          -39 callsubr
          -509.673828125 -622.059570312 rmoveto
          -14 callsubr
          endchar
        </CharString>
        <CharString name="Umacron">
          98 -5 57.5 659.5 20 65 47.1600036621 hstem
          323.296005249 286.160003662 vstem
          323.295898438 797 rmoveto
          92 callsubr
          -202.3359375 -536.219726562 rmoveto
          -14 callsubr
          endchar
        </CharString>
        <CharString name="Uogonek">
          98 -181.624969482 44.8200073242 116.179992676 20 -4.37503051758 57.5 659.5 20 hstemhm
          hintmask 11000000
          325.380859375 -0.625 rmoveto
          -159.669921875 -64.66015625 55.3291015625 -132.33984375 118 16 rrcurveto
          7.3603515625 44.8203125 rlineto
          -99.169921875 -3.669921875 6.990234375 79.439453125 101.25 60.41015625 rrcurveto
          hintmask 00110000
          -227.150390625 308.565429688 rmoveto
          -14 callsubr
          endchar
        </CharString>
        <CharString name="Uring">
          98 -5 57.5 659.5 20 65 37.1100006104 130.779998779 37.1100006104 hstem
          377.302993774 203 vstem
          377.302734375 899 rmoveto
          62 callsubr
          36.4404296875 hmoveto
          4.3984375 35.9404296875 33.0654296875 29.94921875 35.9404296875 0 35.939453125 0 25.5048828125 -29.94921875 -4.3984375 -35.9404296875 -4.3984375 -35.9404296875 -32.0068359375 -28.94921875 -35.9404296875 0 -35.939453125 0 -26.5634765625 28.94921875 4.3984375 35.9404296875 rrcurveto
          -285.422851562 -591.059570312 rmoveto
          -14 callsubr
          endchar
        </CharString>
        <CharString name="Utilde">
          98 -5 57.5 659.5 20 65.6699981689 52.1800994873 -5.31010437012 52.1799926758 hstemhm
          hintmask 00010000
          299.091796875 834.700195312 rmoveto
          -37 callsubr
          hintmask 00100000
          2 callsubr
          hintmask 00010000
          -35 callsubr
          hintmask 11000000
          -170.771484375 -526.759765625 rmoveto
          -14 callsubr
          endchar
        </CharString>
        <CharString name="V">
          103 21 -21 21 -21 732 -20 hstemhm
          hintmask 10100000
          150 732 rmoveto
          142.649993896 -732 60.8000030518 0 386.649993896 732 -65.8600006104 0 -339.479995728 -643.690002441 -124.25 643.690002441 rlineto
          endchar
        </CharString>
        <CharString name="W">
          428 21 -21 21 -21 732 -20 hstemhm
          hintmask 10100000
          150 732 rmoveto
          142.649993896 -732 60.8000030518 0 198.649993896 381.259994507 72.5500030518 -381.259994507 60.8000030518 0 380.050003052 732 -62.8500061035 0 -334.880004883 -647.029998779 -71.5399932861 378.86000061 136.600006104 268.169998169 -64.8600006104 0 -334.550003052 -642.679992676 -125.25 642.679992676 rlineto
          endchar
        </CharString>
        <CharString name="Wacute">
          428 0 21 691 20 65 133 hstem
          592.783996582 204.850006104 vstem
          592.784179688 797 rmoveto
          -39 callsubr
          -575.404296875 -198 rmoveto
          155 callsubr
          endchar
        </CharString>
        <CharString name="Wcircumflex">
          428 0 21 691 20 65 130 hstem
          475.509002686 285.399993896 vstem
          475.508789062 797 rmoveto
          -38 callsubr
          -468.458984375 -195 rmoveto
          155 callsubr
          endchar
        </CharString>
        <CharString name="Wdieresis">
          428 0 21 691 20 65 79.2200012207 hstem
          457.455001831 79.2200012207 175.779998779 79.2200012207 vstem
          457.455078125 837.110351562 rmoveto
          -16 callsubr
          255 hmoveto
          -16 callsubr
          -562.455078125 -105.110351562 rmoveto
          155 callsubr
          endchar
        </CharString>
        <CharString name="Wgrave">
          428 0 21 691 20 65 133 hstem
          472.744003296 170.88999939 vstem
          472.744140625 930 rmoveto
          -42 callsubr
          -389.614257812 -198 rmoveto
          155 callsubr
          endchar
        </CharString>
        <CharString name="X">
          15 21 -21 21 -21 732 -20 hstemhm
          hintmask 10100000
          38 hmoveto
          69.8600006104 0 232.210006714 306.169998169 135.919998169 -306.169998169 61.5 0 -158.979995728 357.63999939 284.669998169 374.36000061 -69.8600006104 0 -240.880004883 -316.529998779 -139.940002441 316.529998779 -61.5 0 162.669998169 -367.669998169 rlineto
          endchar
        </CharString>
        <CharString name="X.salt">
          26 21 -21 21 -21 732 -20 hstemhm
          hintmask 10100000
          20 hmoveto
          70.1900024414 0 225.88999939 282.679992676 rlineto
          52.6500091553 65.6800079346 -17.0399932861 74.6399993896 -31.3099975586 62.6799926758 rrcurveto
          -122.550003052 246.320007324 -61.5 0 132.580001831 -269.059997559 rlineto
          29.3099975586 -59.3399963379 5.97999572754 -41.8899993896 -46.9799957275 -60.0100097656 rrcurveto
          129.470001221 -16.379989624 rmoveto
          136.550003052 -285.320007324 62.1600036621 0 -141.880004883 301.699996948 rlineto
          -27.9799957275 60.0099945068 18.6300048828 42.879989624 48.9700012207 58.6800079346 rrcurveto
          218.259994507 268.729995728 -70.1900024414 0 -199.559997559 -243.679992676 rlineto
          -51.3199920654 -62.3500061035 -25.9400024414 -75.6300048828 32.3000030518 -65.0199890137 rrcurveto
          endchar
        </CharString>
        <CharString name="Y">
          63 21 -21 21 -21 732 -20 hstemhm
          hintmask 10100000
          150 732 rmoveto
          161.300003052 -472 -41 -260 57.5 0 41 260 331.300003052 472 -68.5299987793 0 -283.160003662 -400.470001221 -137.240005493 400.470001221 rlineto
          endchar
        </CharString>
        <CharString name="Yacute">
          63 0 21 691 20 65 133 hstem
          410.083999634 204.850006104 vstem
          410.083984375 797 rmoveto
          -39 callsubr
          -392.704101562 -198 rmoveto
          -13 callsubr
          endchar
        </CharString>
        <CharString name="Ycircumflex">
          63 0 21 691 20 65 130 hstem
          292.809005737 285.399993896 vstem
          292.80859375 797 rmoveto
          -38 callsubr
          -285.758789062 -195 rmoveto
          -13 callsubr
          endchar
        </CharString>
        <CharString name="Ydieresis">
          63 0 21 691 20 61.6499938965 79.2200012207 hstem
          245.582992554 79.2200012207 175.779998779 79.2200012207 vstem
          245.583007812 833.759765625 rmoveto
          68 callsubr
          255 hmoveto
          68 callsubr
          -379.392578125 -101.759765625 rmoveto
          161.299804688 -472 -41 -260 57.5 0 41 260 331.299804688 472 -68.5302734375 0 -283.16015625 -400.469726562 -137.239257812 400.469726562 rlineto
          endchar
        </CharString>
        <CharString name="Ygrave">
          63 0 21 691 20 65 133 hstem
          290.044006348 170.88999939 vstem
          290.043945312 930 rmoveto
          -42 callsubr
          -206.9140625 -198 rmoveto
          -13 callsubr
          endchar
        </CharString>
        <CharString name="Z">
          -21 0 57.5 617 57.5 hstem
          35 hmoveto
          483.100006104 0 9.36000061035 57.5 -407.550003052 0 504.830001831 617 9.36000061035 57.5 -483.100006104 0 -9.36000061035 -57.5 407.550003052 0 -504.830001831 -617 rlineto
          endchar
        </CharString>
        <CharString name="Zacute">
          -21 0 57.5 617 57.5 61.6499938965 133 hstem
          446.285995483 204.850006104 vstem
          446.286132812 793.650390625 rmoveto
          -39 callsubr
          -474.2265625 -926.650390625 rmoveto
          483.100585938 0 9.359375 57.5 -407.549804688 0 504.830078125 617 9.3603515625 57.5 -483.100585938 0 -9.359375 -57.5 407.549804688 0 -504.830078125 -617 rlineto
          endchar
        </CharString>
        <CharString name="Zcaron">
          -21 0 57.5 617 57.5 65 130 hstem
          280.910003662 285.399993896 vstem
          280.91015625 927 rmoveto
          42 callsubr
          -295.0703125 -927 rmoveto
          43 callsubr
          endchar
        </CharString>
        <CharString name="Zdotaccent">
          -21 0 57.5 617 57.5 58.7299957275 96.7200012207 hstem
          357.01109314 85.8108978271 vstem
          357.010742188 810.099609375 rmoveto
          44 callsubr
          -331.282226562 -866.740234375 rmoveto
          43 callsubr
          endchar
        </CharString>
        <CharString name="a">
          -7 57.1699981689 -29.1699981689 -21 21 -21 hstemhm
          440.270004272 43.8200073242 hintmask 10010000
          90 278.330001831 rmoveto
          -40.3300018311 -238.689987183 80.3200073242 -46.6399993896 114 0 77 0 86.9299926758 48 29 19 rrcurveto
          hintmask 01010000
          7.03999328613 -60 40.1300048828 0 70 479 rlineto
          -51 49 -125.769989014 22 -70 -9 rrcurveto
          -82 -10 -98 -32.0399932861 -37.3200073242 -220.630004883 rrcurveto
          53.8399963379 -28.9799957275 rmoveto
          30.6699981689 191.329986572 55.6800079346 30.1700134277 82.1600036621 13.3199920654 59.4799957275 9.65000915527 72.6499938965 -17.2400054932 49.7700042725 -16.6600036621 rrcurveto
          -53.9799957275 -358.119995117 rlineto
          hintmask 10010000
          -67.9999847412 -28.9999847412 -50.620010376 -22.6300048828 -80.299987793 0 -88.5600128174 0 -31.2799987793 57.8800048828 22.3300018311 141.300003052 rrcurveto
          endchar
        </CharString>
        <CharString name="a.salt">
          -8.64999389648 58.1699981689 429.989990234 54.8200073242 hstem
          89.6699981689 267.710006714 rmoveto
          -31.0200195312 -205.519989014 67.0700073242 -70.8399963379 115.619995117 0 34.9800109863 0 195.929992676 12.7099914551 16.8300018311 2.63999938965 rrcurveto
          64.9600067139 480.619995117 rlineto
          -45.2600097656 18.6099853516 -86.9700012207 28.4000091553 -86.0999908447 0 -156.350006104 0 -64.0200042725 -80.4799957275 -25.6699981689 -186.13999939 rrcurveto
          57.5 -8.03001403809 rmoveto
          22.6499938965 164.350006104 48.6099853516 55.4799957275 110.600006104 0 50.5500030518 0 53.3600006104 -10.6699981689 62.5800018311 -14.3000030518 rrcurveto
          -57.25 -401 rlineto
          1.52587890625e-05 -1.52587890625e-05 -146.029998779 -4.01998901367 -49.5800018311 0 -89.1800079346 0 -26.3000030518 63.7799987793 19.9900054932 146.379989624 rrcurveto
          endchar
        </CharString>
        <CharString name="a.smcp">
          16 21 -21 21 -21 161.899993896 57.5 hstemhm
          hintmask 10100000
          38.3000030518 hmoveto
          67.5299987793 0 89.9199981689 161.899993896 256.169998169 0 38.3099975586 -161.899993896 59.1699981689 0 -127.960006714 570 -57.5 0 rlineto
          -135.760009766 -350.600006104 rmoveto
          153.470001221 273.36000061 59.5800018311 -273.36000061 rlineto
          endchar
        </CharString>
        <CharString name="a.superior">
          -171 364 47.4696960449 hstem
          307.570007324 28.4102020264 vstem
          48.9004058838 553 rmoveto
          -22.9999847412 -153 50 -36 74.9995880127 0 62 0 66.2810058594 40 20 19 rrcurveto
          8.38900756836 -54 28.4100036621 0 49.3209991455 322 rlineto
          -34 33 -106.419998169 14.6699981689 -49.3300018311 -3.66999816895 -50.9899902344 -3.66999816895 -72.6605987549 -28.3300018311 -23 -150 rrcurveto
          45.4696960449 -4 rmoveto
          16.6599121094 112.979995728 49.3300018311 25.8800048828 43.8500061035 2.00999450684 38.5699920654 2.01000976562 55.3509979248 -6.63999938965 38.6890106201 -12.6500091553 rrcurveto
          -34.2989959717 -213.479995728 rlineto
          -45.6699981689 -25.3099822998 -56.6009979248 -22.3300018311 -48 0 -51.3000030518 0 -22.8894958496 29.0200042725 16.3096008301 108.509994507 rrcurveto
          endchar
        </CharString>
        <CharString name="aacute">
          -7 57.1699981689 -50.1699981689 21 581.972106934 133 hstemhm
          338.919006348 204.850006104 -103.499008179 43.8200073242 hintmask 00110000
          338.918945312 602.971679688 rmoveto
          -39 callsubr
          hintmask 10001000
          -381.5390625 -457.641601562 rmoveto
          -12 callsubr
          hintmask 01001000
          -11 callsubr
          53.83984375 -28.98046875 rmoveto
          -10 callsubr
          hintmask 10001000
          -9 callsubr
          endchar
        </CharString>
        <CharString name="aacute.salt">
          -8.64999389648 58.1699981689 429.989990234 54.8200073242 65.0200042725 133 hstem
          335.151992798 204.850006104 vstem
          335.15234375 599.349609375 rmoveto
          -39 callsubr
          -378.102539062 -464.639648438 rmoveto
          164 callsubr
          57.5 -8.0302734375 rmoveto
          165 callsubr
          endchar
        </CharString>
        <CharString name="aacute.smcp">
          16 0 21 140.899993896 57.5 410.600006104 133 hstem
          376.932006836 204.850006104 vstem
          376.931640625 630 rmoveto
          -24 callsubr
          -471.251953125 -763 rmoveto
          113 callsubr
          -135.760742188 -350.599609375 rmoveto
          114 callsubr
          endchar
        </CharString>
        <CharString name="abreve">
          -7 57.1699981689 -50.1699981689 21 581.972106934 35.4400024414 hstemhm
          270.014007568 35.4400024414 134.815994263 43.8200073242 -21.5260162354 35.4400024414 hintmask 00110100
          270.013671875 716.971679688 rmoveto
          -7.6494140625 -73.33984375 53.669921875 -40.66015625 53.66015625 0 64.3798828125 0 52.599609375 34.650390625 11.330078125 79.349609375 rrcurveto
          -35.439453125 hlineto
          -8.330078125 -53.3095703125 -35.9306640625 -25.58984375 -48.279296875 0.33984375 -39.9306640625 -0.330078125 -31.6298828125 31.2705078125 6.990234375 47.619140625 rrcurveto
          hintmask 10001000
          -215.454101562 -438.641601562 rmoveto
          -12 callsubr
          hintmask 01001000
          -11 callsubr
          53.83984375 -28.98046875 rmoveto
          -10 callsubr
          hintmask 10001000
          -9 callsubr
          endchar
        </CharString>
        <CharString name="abreve.salt">
          -8.64999389648 58.1699981689 429.989990234 54.8200073242 61.6699981689 35.4400024414 hstem
          259.611999512 35.4400024414 157.11000061 35.4400024414 vstem
          259.612304688 710 rmoveto
          75 callsubr
          -205.381835938 -442.290039062 rmoveto
          164 callsubr
          57.5 -8.0302734375 rmoveto
          165 callsubr
          endchar
        </CharString>
        <CharString name="abreve.smcp">
          16 0 21 140.899993896 57.5 410.600006104 35.4400024414 hstem
          299.727005005 35.4400024414 157.109985352 35.4400024414 vstem
          299.7265625 744 rmoveto
          77 callsubr
          -296.8671875 -744 rmoveto
          113 callsubr
          -135.760742188 -350.599609375 rmoveto
          114 callsubr
          endchar
        </CharString>
        <CharString name="acircumflex">
          -7 57.1699981689 -50.1699981689 21 581.972106934 130 hstemhm
          214.944000244 285.399993896 -60.0739898682 43.8200073242 hintmask 00110000
          214.944335938 602.971679688 rmoveto
          59.5400390625 0 107.489257812 93.560546875 69.2099609375 -93.560546875 49.16015625 0 -87.9501953125 130 -54.5 0 rlineto
          hintmask 10001000
          -267.893554688 -454.641601562 rmoveto
          -12 callsubr
          hintmask 01001000
          -11 callsubr
          53.83984375 -28.98046875 rmoveto
          -10 callsubr
          hintmask 10001000
          -9 callsubr
          endchar
        </CharString>
        <CharString name="acircumflex.salt">
          -8.64999389648 58.1699981689 429.989990234 54.8200073242 61.6699981689 130 hstem
          218.871994019 285.399993896 vstem
          218.872070312 596 rmoveto
          -38 callsubr
          -272.15234375 -458.290039062 rmoveto
          164 callsubr
          57.5 -8.0302734375 rmoveto
          165 callsubr
          endchar
        </CharString>
        <CharString name="acircumflex.smcp">
          16 0 21 140.899993896 57.5 410.600006104 130 hstem
          259.656997681 285.399993896 vstem
          259.657226562 630 rmoveto
          59.5400390625 0 107.489257812 93.5595703125 69.2109375 -93.5595703125 49.1591796875 0 -87.94921875 130 -54.5 0 rlineto
          -364.307617188 -760 rmoveto
          113 callsubr
          -135.760742188 -350.599609375 rmoveto
          114 callsubr
          endchar
        </CharString>
        <CharString name="acute">
          -339 531 133 hstem
          104 204.850006104 vstem
          104 531 rmoveto
          -45 callsubr
          endchar
        </CharString>
        <CharString name="acute.smcp">
          -339 531 133 hstem
          104 204.850006104 vstem
          104 531 rmoveto
          -45 callsubr
          endchar
        </CharString>
        <CharString name="adieresis">
          -7 57.1699981689 -50.1699981689 21 581.972106934 79.2200012207 hstemhm
          196.88999939 79.2200012207 164.160003662 43.8200073242 -32.200012207 79.2200012207 hintmask 00110100
          196.889648438 643.08203125 rmoveto
          -8 callsubr
          255 hmoveto
          -8 callsubr
          hintmask 10001000
          -361.889648438 -364.751953125 rmoveto
          -12 callsubr
          hintmask 01001000
          -11 callsubr
          53.83984375 -28.98046875 rmoveto
          -10 callsubr
          hintmask 10001000
          -9 callsubr
          endchar
        </CharString>
        <CharString name="adieresis.salt">
          -8.64999389648 58.1699981689 429.989990234 54.8200073242 61.6699981689 79.2200012207 hstem
          195.557601929 79.2200012207 175.779998779 79.2200012207 vstem
          195.557617188 636.110351562 rmoveto
          -16 callsubr
          255 hmoveto
          -16 callsubr
          -360.887695312 -368.400390625 rmoveto
          164 callsubr
          57.5 -8.0302734375 rmoveto
          165 callsubr
          endchar
        </CharString>
        <CharString name="adieresis.smcp">
          16 0 21 140.899993896 57.5 410.600006104 79.2200012207 hstem
          241.602798462 79.2200012207 175.779998779 79.2200012207 vstem
          241.602539062 670.110351562 rmoveto
          128 callsubr
          255 hmoveto
          128 callsubr
          -458.302734375 -670.110351562 rmoveto
          113 callsubr
          -135.760742188 -350.599609375 rmoveto
          114 callsubr
          endchar
        </CharString>
        <CharString name="ae">
          356 -7 55.4900054932 435.009994507 57.5 hstem
          50.6699981689 276.320007324 rmoveto
          -41.0000152588 -229.980010986 79.6500091553 -53.3399963379 114.669998169 0 79.5699920654 0 92.7100067139 43.9499969482 42.2899932861 29.6800079346 19.3399963379 -49.6399993896 41 -23.9900054932 65.6500091553 0 83 0 76.7200012207 6 84 23 rrcurveto
          7.02000427246 42.8000030518 rlineto
          -78.0000152588 -10.9999847412 -91.049987793 -9.66000366211 -76.3300018311 4.35000610352 -82.8800048828 1.33000183105 -19.6600036621 50.2099914551 20.6699981689 133.570007324 37 -15 334.560012817 -49.6000061035 28 219 15 116 -79.0100097656 37 -126 0 -82.6199951172 0 -54.3300018311 -18.6399993896 -36.6699981689 -33.9600067139 -59.6800079346 39.3100128174 -112.989990234 21.2899932861 -63.3200073242 -8 rrcurveto
          -82 -10 -94.6399993896 -26.6799926758 -40.6699981689 -228 rrcurveto
          53.1699981689 -26.9700012207 rmoveto
          30.6699981689 191.329986572 56.3500061035 30.1700134277 81.4900054932 13.3199920654 58.8099975586 9.65000915527 86.6499938965 -24.5600128174 54.0599975586 -18.3099975586 -26.6599884033 -44.6499938965 -14.6600036621 -57.9900054932 -13 -70.3099975586 -12.3300018311 -69.2899932861 -4.33999633789 -56.6399993896 6.64999389648 -43.9900054932 -43.5500030518 -29.6699981689 -90.0199890137 -28.9100036621 -72.6100006104 0.669998168945 -94.5900115967 0.669998168945 -25.25 57.2100067139 22.3300018311 141.300003052 rrcurveto
          370.220001221 25.049987793 rmoveto
          22.3000030518 110.800003052 10.6399993896 98.3000030518 170.220001221 0 93.9499969482 0 50.9300079346 -15.5899963379 -12.3300018311 -79.9100036621 -23.6600036621 -157.13999939 -312.050003052 43.5399932861 0 0 rrcurveto
          endchar
        </CharString>
        <CharString name="ae.smcp">
          199 -3.64999389648 57.5 -45.1600036621 44.4900054932 125.329986572 55.4900054932 16.25 59.5 -52.1600036621 45.4900054932 209.099990845 56.5 -56.5 45.4900054932 hstemhm
          hintmask 10100000
          30.2599945068 hmoveto
          70.5299987793 0 128.100006104 178.509994507 169.809997559 0 -14.9700012207 -98.5 rlineto
          -7.66000366211 -52.6500091553 27.3199920654 -32.3500061035 56.6999969482 1.34001159668 rrcurveto
          hintmask 01100000
          268.949996948 12.3399963379 6.69000244141 44.4900054932 rlineto
          hintmask 10110000
          -252.880004883 0.669998168945 rlineto
          -18.700012207 0 -26.2299957275 1.98999023438 6.32000732422 39.5700073242 rrcurveto
          24.6399993896 154.839996338 rlineto
          hintmask 00101000
          268.479995728 7.33999633789 7.02000427246 45.4900054932 rlineto
          hintmask 00110100
          -266.13999939 6.66999816895 25.6499938965 159.210006714 rlineto
          6.31999206543 31.8900146484 6.62998962402 11.3299865723 43.5400085449 0 rrcurveto
          hintmask 00100010
          248.300003052 0 6.69000244141 45.4900054932 rlineto
          hintmask 10100100
          -248.300003052 11.0099945068 rlineto
          -94.6600036621 -2.31999206543 -48.4900054932 -10.3399963379 -52.9700012207 -74.0200042725 rrcurveto
          -105.63999939 -248 rmoveto
          184.399993896 261.899993896 -42.9900054932 -261.899993896 rlineto
          endchar
        </CharString>
        <CharString name="afii61289">
          -174 -0.330001831055 41.8099975586 hstem
          69 248 rmoveto
          15.7200012207 -25.3999938965 rlineto
          11.6699981689 5.66999816895 17.9300079346 9.95999145508 11.6599884033 9.30999755859 rrcurveto
          -7.9700012207 -58.8699951172 rlineto
          -17.3100128174 -133.630020142 34.3200073242 -55.3699951172 89.0599975586 0 rrcurveto
          68.3300018311 0 6.69000244141 41.8099975586 rlineto
          -2.98001098633 -1.52587890625e-05 -71.3600006104 15.6900024414 0 0 -43.6199951172 8.66999816895 -21.9400024414 11.9499969482 16.3099975586 110.880004883 rrcurveto
          14.9900054932 105.330001831 rlineto
          114.669998169 90 95.8500061035 114.350006104 15.9799957275 99.6499938965 12.3200073242 75 -33.9700012207 62.6499938965 -80 3.35000610352 -67.700012207 3.35000610352 -49.3199920654 -43.3500061035 -11.3300018311 -67 rrcurveto
          -52 -328 rlineto
          -22 -20 -22 -19 -22 -17 rrcurveto
          133.869995117 124.899993896 rmoveto
          40.6300048828 253.100006104 rlineto
          11.9700012207 74.8200073242 96.6999969482 -5.39001464844 7.33000183105 -55.4299926758 12.6799926758 -87.8000030518 -94.6399993896 -101.899993896 -74.6699981689 -77.4000091553 rrcurveto
          endchar
        </CharString>
        <CharString name="afii61352">
          498 21 -21 21 -21 381 47.4799957275 256.040008545 50.4799957275 hstemhm
          788.330001831 47.4799957275 hintmask 10111000
          72 hmoveto
          55.1499938965 0 102 645 rlineto
          5.9700012207 35.8099975586 50.1300048828 10.2799987793 7.96000671387 -33.8099975586 rrcurveto
          155.770004272 -597.910003662 rlineto
          25.0199890137 -96.6699981689 128.990005493 18.2700042725 14.6699981689 94.6999969482 0 0 59.2399902344 373.059997559 19.4300079346 121.270004272 11 70 35.0500030518 44.5200042725 64.2599945068 0 72 0 113.990005493 -0.669998168945 0 0 53.629989624 -1.34001159668 34.5700073242 -8.63999938965 -18.9799957275 -120.869995117 -16 -102 -35.9800109863 -22.5200042725 -55.549987793 0 rrcurveto
          -59.2799987793 hlineto
          -57.8600158691 -1.52587890625e-05 -27.3699951172 20.5200042725 26 166 rrcurveto
          -47.4799957275 hlineto
          -27.9999847412 -176 32.0399932861 -58 92.2799987793 0 rrcurveto
          65.6699981689 hlineto
          116.399993896 0 25.6100006104 65 17 107 19 121 -29.0099945068 60.3300018311 -95.9700012207 0 0 0 -137.440002441 0.669998168945 -49.5800018311 0 -95.3800048828 0 -63.1199951172 -45 -19 -122 -28 -177 -47.3300018311 -304.330001831 0 0 -6.94999694824 -35.4599914551 -46.4499969482 -8.63999938965 -7.63999938965 32.5199890137 rrcurveto
          -156.440002441 604.25 rlineto
          -22.0199890137 86.6600036621 -134.339996338 -12.6600036621 -16 -102 rrcurveto
          endchar
        </CharString>
        <CharString name="agrave">
          -7 57.1699981689 -50.1699981689 21 581.972106934 133 hstemhm
          212.178695679 170.88999939 57.2013092041 43.8200073242 hintmask 00110000
          212.178710938 735.971679688 rmoveto
          -42 callsubr
          hintmask 10001000
          -189.048828125 -457.641601562 rmoveto
          -12 callsubr
          hintmask 01001000
          -11 callsubr
          53.83984375 -28.98046875 rmoveto
          -10 callsubr
          hintmask 10001000
          -9 callsubr
          endchar
        </CharString>
        <CharString name="agrave.salt">
          -8.64999389648 58.1699981689 429.989990234 54.8200073242 65.0200042725 133 hstem
          198.462203979 170.88999939 vstem
          198.461914062 732.349609375 rmoveto
          -15 callsubr
          -175.662109375 -464.639648438 rmoveto
          164 callsubr
          57.5 -8.0302734375 rmoveto
          165 callsubr
          endchar
        </CharString>
        <CharString name="agrave.smcp">
          16 0 21 140.899993896 57.5 410.600006104 133 hstem
          256.891998291 170.88999939 vstem
          256.891601562 763 rmoveto
          -15 callsubr
          -285.461914062 -763 rmoveto
          113 callsubr
          -135.760742188 -350.599609375 rmoveto
          114 callsubr
          endchar
        </CharString>
        <CharString name="amacron">
          -7 57.1699981689 -50.1699981689 21 581.972106934 47.1600036621 hstemhm
          218.300506592 286.160003662 -64.1905059814 43.8200073242 hintmask 00110000
          218.30078125 602.971679688 rmoveto
          93 callsubr
          hintmask 10001000
          -135.66015625 -371.801757812 rmoveto
          -12 callsubr
          hintmask 01001000
          -11 callsubr
          53.83984375 -28.98046875 rmoveto
          -10 callsubr
          hintmask 10001000
          -9 callsubr
          endchar
        </CharString>
        <CharString name="amacron.salt">
          -8.64999389648 58.1699981689 429.989990234 54.8200073242 61.6699981689 47.1600036621 hstem
          222.998001099 286.160003662 vstem
          222.998046875 596 rmoveto
          92 callsubr
          -140.688476562 -375.450195312 rmoveto
          164 callsubr
          57.5 -8.0302734375 rmoveto
          165 callsubr
          endchar
        </CharString>
        <CharString name="amacron.smcp">
          16 0 21 140.899993896 57.5 410.600006104 47.1600036621 hstem
          263.013000488 286.160003662 vstem
          263.012695312 630 rmoveto
          119 callsubr
          -232.073242188 -677.16015625 rmoveto
          113 callsubr
          -135.760742188 -350.599609375 rmoveto
          114 callsubr
          endchar
        </CharString>
        <CharString name="ampersand">
          80 21 -21 21 -21 677.839996338 36.7799987793 hstemhm
          hintmask 10100000
          93.0099945068 79.9900054932 rmoveto
          67.0099945068 -105.66998291 140.690002441 0.349990844727 79.9699859619 69.3300018311 rrcurveto
          76.6399993896 67 65.9900054932 -111 58.8399963379 0 -84.7200012207 143.089996338 63.1799926758 56.5599975586 74.6300048828 106.779998779 -18.3899993896 16.0399932861 -149.169998169 -130.229995728 -200.199996948 347.100006104 rlineto
          -57.3000183105 99.9400024414 61.3000030518 38.5599975586 100.520004272 0 rrcurveto
          206.300003052 0 6.02000427246 36.7799987793 rlineto
          -88.4200134277 16.7200012207 -92.6799926758 5.65000915527 -90.1499938965 -10.3200073242 -82.3400115967 -10.6300048828 -79.7299957275 -77.7299957275 66.3200073242 -114.309997559 rrcurveto
          49 -85 -95.6600036621 -73 rlineto
          -101.680007935 -77.3500061035 -38.6399993896 -110.669998169 62.6699981689 -97.9899902344 rrcurveto
          46.8100128174 29.7399902344 rmoveto
          -43.2900085449 66.5599822998 16.25 76.5900115967 93.9600067139 69.9700012207 rrcurveto
          86.9900054932 66 135.179992676 -230.710006714 -84.6600036621 -73.3500061035 rlineto
          -66.8999938965 -57.6000061035 -93.8899993896 15.6199951172 -43.6399993896 66.9199981689 rrcurveto
          endchar
        </CharString>
        <CharString name="ampersand.salt">
          373 0 57.5 103.75 56.8300018311 116.419998169 57.5 82.5 56.8300018311 -40.1300048828 40.1300048828 hstemhm
          824.960006714 42.1399993896 hintmask 11110100
          89 286.660003662 rmoveto
          -13.6600036621 -88.3000030518 65.2700042725 -36.4400024414 69.7100067139 0 -16.9800109863 -142.25 88.0700073242 -19.6699981689 95.5899963379 0 rrcurveto
          151.089996338 hlineto
          107.690002441 0 128.330001831 29.0599975586 24.9900054932 157.940002441 rrcurveto
          45.6399993896 287.5 rlineto
          hintmask 11101100
          157.669998169 16.6999969482 6.69000244141 40.1300048828 rlineto
          hintmask 11110100
          -155 0 23 148.669998169 -42.1399993896 0 rlineto
          hintmask 11101100
          -38.3600006104 -148.669998169 rlineto
          hintmask 11110100
          -446.61000061 hlineto
          -133.999984741 1.52587890625e-05 -80.6500091553 -12.9900054932 -22.3399963379 -141.690002441 rrcurveto
          43.5 -90.6499938965 rmoveto
          13.6699981689 88.0099945068 rlineto
          14.3199920654 93.5399932861 50.2699890137 4.94999694824 105.210006714 2 rrcurveto
          447.270004272 0 -45.6399993896 -287.5 rlineto
          -15.3000030518 -97.4499969482 -92.5599975586 -32.0500030518 -90.9199981689 0 rrcurveto
          -151.460006714 hlineto
          -70.4899902344 2.00999450684 -57.0299987793 -0.0999908447266 13.9800109863 101.839996338 rrcurveto
          232.570007324 hlineto
          99.0699920654 0 36.629989624 10.3500061035 16.6699981689 103.36000061 14.9900054932 110.009994507 -79.3999938965 7.0299987793 -50.950012207 0 rrcurveto
          -129 hlineto
          -111 0 -58.3999938965 -51.6100006104 -20.3200073242 -122.309997559 -47.9699859619 0.669998168945 -33.5300140381 10.3399963379 9.32000732422 56.9100036621 rrcurveto
          130.009994507 -67.9199981689 rmoveto
          16.3099975586 100.500015259 42.9299926758 15.9199981689 63.2899932861 0 rrcurveto
          129 hlineto
          62.9399871826 0 11.9300079346 -7.99000549316 -7.65000915527 -50.5599975586 -8.31999206543 -55.25 -19.6300048828 -2.61999511719 -58.2299957275 0 rrcurveto
          endchar
        </CharString>
        <CharString name="ampersand.smcp">
          -19 21 -21 21 -21 517.5 51.5 -51.5 39.4700012207 hstemhm
          hintmask 10100000
          81.3500061035 66.0099945068 rmoveto
          51.3499908447 -88.3400115967 113.029998779 -0.330001831055 69.9900054932 53.9800109863 rrcurveto
          59.9700012207 49.3200073242 47.9799957275 -80.6399993896 65.1900024414 0 -69.7100067139 114.729995728 29.6100006104 27.2899932861 63.2400054932 87 -19.0700073242 23.4100036621 -104.210006714 -88.8999938965 -149.229995728 256.850006104 rlineto
          -28.6199951172 48.9199981689 13.2900085449 48.1999969482 82.8300018311 0 rrcurveto
          158 0 rlineto
          hintmask 00010000
          6.69000244141 39.4700012207 rlineto
          hintmask 10100000
          -98.879989624 17.3600006104 -45.5800018311 -0.330001831055 -64.1800079346 -5 -64.3299865723 -6.63999938965 -65.7200012207 -70.3399963379 54.3499908447 -93.6900024414 rrcurveto
          28.6399993896 -48.9499969482 -75 -55.6699981689 rlineto
          -86.0000152588 -63.6699981689 -22.3099975586 -82.0099945068 48.6800079346 -82.0200042725 rrcurveto
          50.1399993896 30.0900115967 rmoveto
          -26.6099853516 44.2200012207 -3.79000854492 54.2599945068 72.9700012207 53.3199920654 rrcurveto
          70.6699981689 50.6699981689 100.539993286 -167.460006714 -65.9900054932 -55.3300018311 rlineto
          -59.6399993896 -47.3000030518 -60.8699951172 22.0599975586 -27.2799987793 45.5600128174 rrcurveto
          endchar
        </CharString>
        <CharString name="aogonek">
          -60 -180.974227905 44.8200073242 116.179992676 20 -7.02577209473 57.1699981689 -50.1699981689 21 hstemhm
          425.529998779 43.8200073242 hintmask 11000000
          434.591796875 0.025390625 rmoveto
          45 callsubr
          hintmask 00101000
          -389.421875 278.3046875 rmoveto
          -12 callsubr
          hintmask 00011000
          -11 callsubr
          53.83984375 -28.98046875 rmoveto
          30.669921875 191.330078125 55.6806640625 30.169921875 82.16015625 13.3203125 59.4794921875 9.650390625 72.650390625 -17.240234375 49.76953125 -16.66015625 rrcurveto
          -53.9794921875 -358.120117188 rlineto
          hintmask 00101000
          -68 -29 -50.6201171875 -22.6298828125 -80.2998046875 0 -88.560546875 0 -31.2802734375 57.8798828125 22.330078125 141.299804688 rrcurveto
          endchar
        </CharString>
        <CharString name="aogonek.salt">
          87 -173.970001221 44.8200073242 116.179992676 20 -15.6799926758 58.1699981689 429.989990234 54.8200073242 hstemhm
          hintmask 11000000
          458.66015625 7.0302734375 rmoveto
          129 callsubr
          hintmask 00110000
          -399.080078125 260.6796875 rmoveto
          164 callsubr
          57.5 -8.0302734375 rmoveto
          165 callsubr
          endchar
        </CharString>
        <CharString name="aogonek.smcp">
          95 -180.974227905 44.8200073242 116.179992676 20 -0.0257720947266 21 140.899993896 57.5 hstemhm
          hintmask 11000000
          507.01171875 0.025390625 rmoveto
          45 callsubr
          hintmask 00110000
          -498.801757812 -0.025390625 rmoveto
          113 callsubr
          -135.760742188 -350.599609375 rmoveto
          114 callsubr
          endchar
        </CharString>
</ttFont>
